<?xml version="1.0" encoding="UTF-8"?>
<svg width="34px" height="24px" viewBox="0 0 34 24" version="1.1" xmlns="http://www.w3.org/2000/svg" xmlns:xlink="http://www.w3.org/1999/xlink">
    <!-- Generator: Sketch 52.2 (67145) - http://www.bohemiancoding.com/sketch -->
    <title>apple-pay</title>
    <desc>Created with Sketch.</desc>
    <defs>
        <rect id="path-1" x="3" y="8" width="34" height="24" rx="3"></rect>
    </defs>
    <g id="apple-pay" stroke="none" stroke-width="1" fill="none" fill-rule="evenodd">
        <g id="pm_applepay" transform="translate(-3.000000, -8.000000)">
            <rect id="bounds" x="0" y="0" width="40" height="40"></rect>
            <mask id="mask-2" fill="white">
                <use xlink:href="#path-1"></use>
            </mask>
            <rect stroke="#272320" stroke-width="0.5" x="3.25" y="8.25" width="33.5" height="23.5" rx="3"></rect>
            <path d="M11.4363105,16.7656315 C11.7408195,16.3849952 11.9472958,15.873793 11.8928572,15.3515297 C11.4473717,15.3736521 10.9036365,15.6454113 10.5889338,16.0264813 C10.3063303,16.3526791 10.0562598,16.8851361 10.1213259,17.385494 C10.6214668,17.4288713 11.121174,17.1356404 11.4363105,16.7656315" id="Fill-5" fill="#1A1919" mask="url(#mask-2)"></path>
            <path d="M11.8870012,17.4833099 C11.1608642,17.4399326 10.5433876,17.8953948 10.1965856,17.8953948 C9.84956671,17.8953948 9.31841096,17.5049986 8.74387786,17.515626 C7.99626909,17.5264704 7.30266514,17.9491827 6.92311325,18.6215318 C6.14275458,19.9666637 6.71728769,21.9618052 7.47617457,23.0570835 C7.84466522,23.5990836 8.28884937,24.1957392 8.87400993,24.1744843 C9.42685436,24.1527956 9.64374115,23.8164042 10.3156564,23.8164042 C10.9873548,23.8164042 11.1825529,24.1744843 11.7679304,24.1636399 C12.3747796,24.1527956 12.7543315,23.621423 13.1228222,23.0787722 C13.5455345,22.4610786 13.7186102,21.86464 13.7296714,21.8318901 C13.7186102,21.8208288 12.5591334,21.3762109 12.5485059,20.0423572 C12.5374447,18.9253902 13.4587798,18.3942344 13.5021571,18.3612676 C12.9818457,17.5917533 12.168954,17.5049986 11.8870012,17.4833099" id="Fill-6" fill="#1A1919" mask="url(#mask-2)"></path>
            <path d="M17.3410533,20.2677025 L18.7898571,20.2677025 C19.8892562,20.2677025 20.5149746,19.6758185 20.5149746,18.6497271 C20.5149746,17.6238526 19.8892562,17.0373907 18.7954962,17.0373907 L17.3410533,17.0373907 L17.3410533,20.2677025 Z M19.1282005,15.9718259 C20.7067025,15.9718259 21.8061017,17.0599469 21.8061017,18.644088 C21.8061017,20.2338682 20.6841463,21.3276283 19.0887271,21.3276283 L17.3410533,21.3276283 L17.3410533,24.1070325 L16.0783384,24.1070325 L16.0783384,15.9718259 L19.1282005,15.9718259 Z" id="Fill-7" fill="#1A1919" mask="url(#mask-2)"></path>
            <path d="M25.9527602,21.897173 L25.9527602,21.4404094 L24.5490689,21.5306343 C23.7598179,21.5813858 23.3483837,21.8743999 23.3483837,22.387554 C23.3483837,22.8835741 23.7767351,23.2050003 24.4475659,23.2050003 C25.3044856,23.2050003 25.9527602,22.6580118 25.9527602,21.897173 Z M22.1192862,22.4213884 C22.1192862,21.3783798 22.9141763,20.7808567 24.3798972,20.6906318 L25.9527602,20.5947678 L25.9527602,20.1438602 C25.9527602,19.4840906 25.5187698,19.1234078 24.7464359,19.1234078 C24.1092225,19.1234078 23.6470368,19.4502562 23.5511728,19.9521322 L22.4123003,19.9521322 C22.4463515,18.8978456 23.4383917,18.1311508 24.7802702,18.1311508 C26.2234349,18.1311508 27.1649405,18.8865674 27.1649405,20.0592743 L27.1649405,24.1070325 L25.9978727,24.1070325 L25.9978727,23.1316926 L25.9696774,23.1316926 C25.63719,23.7686891 24.9041126,24.1688452 24.1092225,24.1688452 C22.9367325,24.1688452 22.1192862,23.470036 22.1192862,22.4213884 Z" id="Fill-8" fill="#1A1919" mask="url(#mask-2)"></path>
            <path d="M28.2378795,26.2830577 L28.2378795,25.3079346 C28.3168262,25.3189959 28.5083373,25.330274 28.6098403,25.330274 C29.16789,25.330274 29.4836772,25.0936505 29.6754051,24.4846324 L29.7881862,24.1239497 L27.6514176,18.2044585 L28.970523,18.2044585 L30.4590171,23.0076334 L30.4872124,23.0076334 L31.9754895,18.2044585 L33.2609775,18.2044585 L31.0452621,24.4228197 C30.5379639,25.8490672 29.957141,26.3171089 28.7282605,26.3171089 C28.6323965,26.3171089 28.3222484,26.3058308 28.2378795,26.2830577" id="Fill-9" fill="#1A1919" mask="url(#mask-2)"></path>
        </g>
    </g>
</svg>