<?xml version="1.0" encoding="UTF-8"?>
<svg width="34px" height="24px" viewBox="0 0 34 24" version="1.1" xmlns="http://www.w3.org/2000/svg" xmlns:xlink="http://www.w3.org/1999/xlink">
    <!-- Generator: Sketch 52.2 (67145) - http://www.bohemiancoding.com/sketch -->
    <title>g-pay</title>
    <desc>Created with Sketch.</desc>
    <g id="g-pay" stroke="none" stroke-width="1" fill="none" fill-rule="evenodd">
        <g id="pm_googlepay-copy" transform="translate(-3.000000, -8.000000)">
            <rect id="bounds" x="0" y="0" width="40" height="40"></rect>
            <path d="M6,8 L34,8 C35.6568542,8 37,9.34314575 37,11 L37,29 C37,30.6568542 35.6568542,32 34,32 L6,32 C4.34314575,32 3,30.6568542 3,29 L3,11 C3,9.34314575 4.34314575,8 6,8 Z" id="Rectangle" fill="#FFFFFF"></path>
            <g id="google-pay-logo" transform="translate(3.000000, 8.000000)">
                <path d="M3,0.4 C1.56405965,0.4 0.4,1.56405965 0.4,3 L0.4,21 C0.4,22.4359403 1.56405965,23.6 3,23.6 L31,23.6 C32.4359403,23.6 33.6,22.4359403 33.6,21 L33.6,3 C33.6,1.56405965 32.4359403,0.4 31,0.4 L3,0.4 Z" id="Rectangle" stroke="#5F6368" stroke-width="0.8"></path>
                <path d="M29.8935556,10.1035 L26.6748889,17.5093611 L25.6794444,17.5093611 L26.8741667,14.9182778 L24.7567222,10.1035 L25.8050556,10.1035 L27.3355278,13.7962778 L27.3563056,13.7962778 L28.8452222,10.1035 L29.8935556,10.1035 Z M22.2936111,9.93586111 C23.0066667,9.93586111 23.5686111,10.1266389 23.9818056,10.50725 C24.3935833,10.8888056 24.5999444,11.4115556 24.5999444,12.0759722 L24.5999444,15.2436389 L23.6772222,15.2436389 L23.6772222,14.5305833 L23.6351944,14.5305833 C23.2371111,15.1175556 22.7058611,15.4112778 22.0419167,15.4112778 C21.4757222,15.4112778 21.0020833,15.2436389 20.6214722,14.9078889 C20.2408611,14.5726111 20.0500833,14.1523333 20.0500833,13.6494167 C20.0500833,13.1176944 20.2507778,12.6950556 20.6526389,12.3800833 C21.0545,12.0655833 21.5909444,11.9078611 22.2619722,11.9078611 C22.8343056,11.9078611 23.3065278,12.0126944 23.67675,12.2223611 L23.67675,12.0018333 C23.67675,11.6665556 23.5435833,11.3818056 23.2781944,11.1471111 C23.0227222,10.9166667 22.6898056,10.7910556 22.3455556,10.7957778 C21.8072222,10.7957778 21.3812778,11.0233889 21.0667778,11.4781389 L20.21725,10.9426389 C20.6856944,10.2716111 21.3775,9.93586111 22.2936111,9.93586111 Z M21.0455278,13.6701944 C21.0455278,13.9218889 21.15225,14.1315556 21.3656944,14.2996667 C21.5786667,14.4673056 21.8284722,14.5513611 22.1151111,14.5513611 C22.52075,14.5513611 22.8815278,14.4007222 23.1998056,14.1003889 C23.5180833,13.7995833 23.67675,13.4463611 23.67675,13.0411944 C23.3759444,12.8031944 22.9566111,12.6846667 22.41875,12.6846667 C22.0268056,12.6846667 21.7009722,12.7791111 21.4388889,12.968 C21.1768056,13.1568889 21.0455278,13.3901667 21.0455278,13.6701944 Z M16.1296944,12.2015833 L16.1296944,15.2436389 L15.1649444,15.2436389 L15.1649444,7.73294444 L17.7229722,7.73294444 C18.37275,7.73294444 18.9247778,7.95016667 19.3790556,8.38319444 C19.8404167,8.81669444 20.0713333,9.34463889 20.0713333,9.96702778 C20.0713333,10.6035833 19.8404167,11.1353056 19.3790556,11.56125 C18.9318611,11.9881389 18.3793611,12.2011111 17.7229722,12.2011111 L16.1296944,12.2011111 L16.1296944,12.2015833 Z M16.1296944,8.65613889 L16.1296944,11.2783889 L17.74375,11.2783889 C18.1286111,11.2783889 18.4464167,11.149 18.6981111,10.8902222 C18.9564167,10.6319167 19.0853333,10.3235556 19.0853333,9.96702778 C19.0853333,9.61758333 18.9564167,9.313 18.6981111,9.05422222 C18.4464167,8.78836111 18.1286111,8.65566667 17.7442222,8.65566667 L16.1292222,8.65566667 L16.1292222,8.65613889 L16.1296944,8.65613889 Z" id="Fill-5" fill="#5F6368"></path>
                <g id="google-mark" transform="translate(3.777778, 6.666667)">
                    <path d="M8.38052778,4.00161111 L4.31280556,4.00161111 L4.31280556,5.66383333 L6.64275,5.66383333 C6.54641667,6.20027778 6.23522222,6.67391667 5.78141667,6.97519444 L5.78141667,8.05469444 L7.17163889,8.05469444 C7.98575,7.30338889 8.45466667,6.19272222 8.45466667,4.879 C8.45466667,4.57536111 8.42916667,4.28211111 8.38052778,4.00161111 Z" id="Fill-7" fill="#4285F4"></path>
                    <path d="M7.17163889,8.05469444 L5.78141667,6.97519444 C5.39419444,7.23586111 4.896,7.38838889 4.31280556,7.38838889 C3.18797222,7.38838889 2.23313889,6.62952778 1.89172222,5.60669444 L0.459472222,5.60669444 L0.459472222,6.71877778 C1.19094444,8.17605556 2.68222222,9.09594444 4.31280556,9.09641667 C5.47683333,9.09641667 6.45669444,8.71391667 7.17163889,8.05469444 Z" id="Fill-9" fill="#34A853"></path>
                    <path d="M1.89172222,3.95486111 L1.89172222,2.84277778 L0.459472222,2.84277778 C0.156305556,3.44391667 -0.000944444444,4.10786111 2.60311927e-14,4.78125 C2.60311927e-14,5.47825 0.16575,6.13652778 0.459472222,6.71925 L1.89172222,5.60716667 C1.71180556,5.07072222 1.71180556,4.49083333 1.89172222,3.95486111 Z" id="Fill-11" fill="#FABB05"></path>
                    <path d="M5.96747222,2.82058333 L7.19855556,1.5895 C6.45102778,0.892972222 5.47636111,0.465138889 4.31327778,0.465138889 C2.68269444,0.465138889 1.19141667,1.3855 0.459472222,2.84277778 L1.89172222,3.95486111 C2.23313889,2.9325 3.18797222,2.17363889 4.31280556,2.17363889 C4.94841667,2.17363889 5.51838889,2.39227778 5.96747222,2.82058333 Z" id="Fill-13" fill="#E94235"></path>
                </g>
            </g>
        </g>
    </g>
</svg>