<?xml version="1.0" encoding="UTF-8"?>
<svg width="16px" height="54px" viewBox="0 0 16 54" version="1.1" xmlns="http://www.w3.org/2000/svg" xmlns:xlink="http://www.w3.org/1999/xlink">
    <!-- Generator: Sketch 52.3 (67297) - http://www.bohemiancoding.com/sketch -->
    <title>sharp</title>
    <desc>Created with Sketch.</desc>
    <g id="sharp" stroke="none" stroke-width="1" fill="none" fill-rule="evenodd">
        <g id="Group">
            <polygon id="Path" points="6.22222222 33.6393443 10.6666667 32.3500786 10.6666667 21.2459016 6.22222222 22.5758399"></polygon>
            <path d="M16,20.0045196 L16,12.8129802 L12.7025031,13.6763988 L12.7025031,0 L10.5917111,0 L10.5917111,14.2279671 L5.79182054,15.4829612 L5.79182054,1.83042574 L3.68157571,1.83042574 L3.68157571,16.0339872 L0,16.9966555 L0,24.3194432 L3.68157571,23.3269457 L3.68157571,34.0784597 L0,35.0411281 L0,42.3628311 L3.68157571,41.3703335 L3.68157571,54 L5.79182054,54 L5.79182054,40.8019525 L10.5917111,39.5073669 L10.5917111,52.1701166 L12.7025031,52.1701166 L12.7025031,38.9379011 L16,38.0489921 L16,30.8574528 L12.7025031,31.7197867 L12.7025031,20.8939709 L16,20.0045196 Z M10.591164,32.2718973 L5.79127342,33.5268914 L5.79127342,22.7574799 L10.591164,21.4628943 L10.591164,32.2718973 Z" id="Shape" fill="#000000" fill-rule="nonzero"></path>
        </g>
    </g>
</svg>