<?xml version="1.0" encoding="UTF-8"?>
<svg width="53px" height="145px" viewBox="0 0 53 145" version="1.1" xmlns="http://www.w3.org/2000/svg" xmlns:xlink="http://www.w3.org/1999/xlink">
    <!-- Generator: Sketch 52.5 (67469) - http://www.bohemiancoding.com/sketch -->
    <title>treble-clef</title>
    <desc>Created with Sketch.</desc>
    <g id="treble-clef" stroke="none" stroke-width="1" fill="none" fill-rule="evenodd">
        <g fill="#000000" fill-rule="nonzero" id="Shape">
            <path d="M30.7026452,70.496032 C29.4420676,65.4239845 28.2963665,61.0203225 27.4279006,57.7429286 C36.2366266,49.2690292 53.4956641,19.6726102 32.2649649,0.558320311 C28.7773159,-3.52420929 12.2075372,15.1383442 21.8004864,44.8791959 C21.8004864,44.8791959 0,58.8753427 0,76.6636172 C0,94.4488186 7.55887024,112.819434 34.8810845,111.946691 C35.346717,111.874475 35.8031595,111.791503 36.2504118,111.700848 L37.8081364,118.652058 C37.8081364,118.652058 43.6025044,137.896952 28.7773159,141.686006 C22.9645677,143.728039 20.0574277,138.771231 20.0574277,138.771231 C20.0574277,138.771231 32.6570765,136.730734 26.5027623,126.817117 C20.3484481,116.9035 7.84989058,127.399457 12.5000892,136.438796 C17.1502878,145.47967 33.4290462,149.270261 40.1133238,138.190427 C42.3388635,134.499709 41.4903095,123.656498 39.3689244,110.838861 C60.4832154,103.386747 56.6677857,69.3421066 30.7026452,70.496032 Z M30.2293542,14.2625286 C39.5312831,6.38940795 43.018932,28.550614 24.416606,42.8386993 C24.416606,42.8371628 20.9274254,22.1341128 30.2293542,14.2625286 Z M8.42886787,97.6555327 C-4.92743375,79.5107859 15.8851152,66.1784151 24.6647391,59.9570517 L27.113905,70.8909172 C12.2014104,75.1286352 11.2410433,97.7369681 25.870176,101.154185 C25.870176,101.154185 18.0218171,96.1958401 22.6720157,84.8256033 C23.9402517,81.7264456 26.3082382,80.059323 29.0530194,79.5522719 L35.3758191,107.798091 C27.5504355,110.891103 16.6724017,108.853679 8.42886787,97.6555327 Z M45.345563,95.3246341 C44.8738038,99.8589002 42.2959763,103.687904 38.5525358,106.150943 C36.9595824,97.3774228 34.8979331,88.0046601 32.9006146,79.5507354 C39.4286601,80.6201523 46.2247508,86.8476617 45.345563,95.3246341 Z"></path>
        </g>
    </g>
</svg>