<?xml version="1.0" encoding="UTF-8"?>
<svg width="24px" height="24px" viewBox="0 0 24 24" version="1.1" xmlns="http://www.w3.org/2000/svg" xmlns:xlink="http://www.w3.org/1999/xlink">
    <!-- Generator: Sketch 52.3 (67297) - http://www.bohemiancoding.com/sketch -->
    <title>add-alt</title>
    <desc>Created with Sketch.</desc>
    <defs>
        <path d="M11,5.25 L6.786,5.25 L6.786,1 C6.786,0.566 6.434,0.214 6,0.214 C5.566,0.214 5.214,0.566 5.214,1 L5.214,5.25 L1,5.25 C0.586,5.25 0.25,5.586 0.25,6 C0.25,6.414 0.586,6.75 1,6.75 L5.214,6.75 L5.214,11 C5.214,11.434 5.566,11.786 6,11.786 C6.434,11.786 6.786,11.434 6.786,11 L6.786,6.75 L11,6.75 C11.414,6.75 11.75,6.414 11.75,6 C11.75,5.586 11.414,5.25 11,5.25" id="path-1"></path>
    </defs>
    <g id="add-alt" stroke="none" stroke-width="1" fill="none" fill-rule="evenodd">
        <g id="ui/add_large_24">
            <rect id="Rectangle" fill="#FF0000" opacity="0" x="0" y="0" width="24" height="24"></rect>
            <g id="icon/ui/add_dark" stroke-width="1" transform="translate(6.000000, 6.000000)">
                <mask id="mask-2" fill="white">
                    <use xlink:href="#path-1"></use>
                </mask>
                <g id="Mask"></g>
                <g id="Black-058%-(Secondary)" mask="url(#mask-2)" fill="#000000">
                    <g transform="translate(-18.000000, -18.000000)" id="Rectangle-435-Copy-4">
                        <rect x="0" y="0" width="48" height="48"></rect>
                    </g>
                </g>
            </g>
        </g>
    </g>
</svg>