<?xml version="1.0" encoding="UTF-8"?>
<svg width="24px" height="24px" viewBox="0 0 24 24" version="1.1" xmlns="http://www.w3.org/2000/svg" xmlns:xlink="http://www.w3.org/1999/xlink">
    <!-- Generator: Sketch 52.3 (67297) - http://www.bohemiancoding.com/sketch -->
    <title>close-alt</title>
    <desc>Created with Sketch.</desc>
    <defs>
        <path d="M8.93895,10.136 L4.94095,6.138 C4.64795,5.845 4.64795,5.37 4.94095,5.077 C5.23395,4.785 5.70895,4.785 6.00195,5.077 L9.99995,9.075 L13.99795,5.077 C14.28995,4.785 14.76495,4.785 15.05795,5.077 C15.35095,5.37 15.35095,5.845 15.05795,6.138 L11.05995,10.136 L15.05795,14.134 C15.35095,14.427 15.35095,14.902 15.05795,15.195 C14.76495,15.487 14.28995,15.487 13.99795,15.195 L9.99995,11.197 L6.00195,15.195 C5.70895,15.487 5.23395,15.487 4.94095,15.195 C4.64795,14.902 4.64795,14.427 4.94095,14.134 L8.93895,10.136 Z M10,0 C4.47,0 0,4.47 0,10 C0,15.53 4.47,20 10,20 C15.53,20 20,15.53 20,10 C20,4.47 15.53,0 10,0 L10,0 Z" id="path-1"></path>
    </defs>
    <g id="close-alt" stroke="none" stroke-width="1" fill="none" fill-rule="evenodd">
        <g id="ui/close_circle_24">
            <rect id="Rectangle" fill="#FF0000" opacity="0" x="0" y="0" width="24" height="24"></rect>
            <g id="icon/ui/close_dark" stroke-width="1" transform="translate(2.000000, 2.000000)">
                <mask id="mask-2" fill="white">
                    <use xlink:href="#path-1"></use>
                </mask>
                <g id="Mask"></g>
                <g id="Black-058%-(Secondary)" mask="url(#mask-2)" fill="#000000">
                    <g transform="translate(-14.000000, -14.000000)" id="Rectangle-435-Copy-4">
                        <rect x="0" y="0" width="48" height="48"></rect>
                    </g>
                </g>
            </g>
        </g>
    </g>
</svg>