<?xml version="1.0" encoding="UTF-8"?>
<svg width="24px" height="24px" viewBox="0 0 24 24" version="1.1" xmlns="http://www.w3.org/2000/svg" xmlns:xlink="http://www.w3.org/1999/xlink">
    <!-- Generator: Sketch 52.3 (67297) - http://www.bohemiancoding.com/sketch -->
    <title>edit-thin</title>
    <desc>Created with Sketch.</desc>
    <defs>
        <path d="M13.4183053,17.2703831 L13.4183053,5.65038319 L13.4183053,3.97583511 L9.41830532,3.97583511 L9.41830532,5.65390535 L9.41830532,17.2703831 L13.4183053,17.2703831 Z M13.4183053,18.2703831 L9.41830532,18.2703831 L9.41830532,20.6680676 L11.4183053,23.5661358 L13.4183053,20.6680676 L13.4183053,18.2703831 Z M14.4183053,3.97583511 L14.4183053,20.6680676 C14.4183053,20.870966 14.3565853,21.0690643 14.2413412,21.2360569 L12.2413412,24.1341252 C11.9276494,24.5886753 11.3048662,24.7028636 10.850316,24.3891717 C10.7505443,24.3203178 10.6641233,24.2338968 10.5952694,24.1341252 L8.5952694,21.2360569 C8.4800253,21.0690643 8.41830532,20.870966 8.41830532,20.6680676 L8.41830532,3.97583511 L8.41830532,0.773905237 C8.41830532,0.497762862 8.64216294,0.273905237 8.91830532,0.273905237 C9.19444769,0.273905237 9.41830532,0.497762862 9.41830532,0.773905237 L9.41830532,2.97583511 L13.4183053,2.97583511 L13.4183053,0.770383079 C13.4183053,0.494240704 13.6421629,0.270383079 13.9183053,0.270383079 C14.1944477,0.270383079 14.4183053,0.494240704 14.4183053,0.770383079 L14.4183053,3.97583511 Z M8.91830532,-1.72961692 L13.9183053,-1.72961692 C14.1944477,-1.72961692 14.4183053,-1.5057593 14.4183053,-1.22961692 C14.4183053,-0.953474546 14.1944477,-0.729616921 13.9183053,-0.729616921 L8.91830532,-0.729616921 C8.64216294,-0.729616921 8.41830532,-0.953474546 8.41830532,-1.22961692 C8.41830532,-1.5057593 8.64216294,-1.72961692 8.91830532,-1.72961692 Z" id="path-1"></path>
    </defs>
    <g id="edit-thin" stroke="none" stroke-width="1" fill="none" fill-rule="evenodd">
        <g id="ui/edit_thin_24">
            <rect id="Rectangle" fill="#FF0000" opacity="0" x="0" y="0" width="24" height="24"></rect>
            <g id="icon/ui/edit_dark_thin" stroke-width="1" transform="translate(0.000000, 1.000000)">
                <mask id="mask-2" fill="white">
                    <use xlink:href="#path-1"></use>
                </mask>
                <g id="Mask" transform="translate(11.418305, 11.418305) rotate(45.000000) translate(-11.418305, -11.418305) "></g>
                <g id="Black-058%-(Secondary)" mask="url(#mask-2)" fill="#000000">
                    <g transform="translate(-12.000000, -13.000000)" id="Rectangle-435-Copy-4">
                        <rect x="0" y="0" width="48" height="48"></rect>
                    </g>
                </g>
            </g>
        </g>
    </g>
</svg>