<?xml version="1.0" encoding="UTF-8"?>
<svg width="24px" height="24px" viewBox="0 0 24 24" version="1.1" xmlns="http://www.w3.org/2000/svg" xmlns:xlink="http://www.w3.org/1999/xlink">
    <!-- Generator: Sketch 52.3 (67297) - http://www.bohemiancoding.com/sketch -->
    <title>edit</title>
    <desc>Created with Sketch.</desc>
    <defs>
        <path d="M6.6762,17.8370009 L4.20446481,15.3585 L2.18944031,17.3801002 L1.7137,20.2943 L4.6632899,19.8554209 L6.6762,17.8370009 Z M13.9232296,5.614 L5.3261,14.2347434 L7.79782761,16.7122 L16.3939,8.09145662 L13.9232296,5.614 Z M19.6162807,7.1098126 L18.1118878,8.61833721 C18.1002586,8.63211853 18.0960298,8.64908016 18.0833435,8.66180138 C18.0706571,8.6745226 18.0537419,8.6777029 18.0399983,8.68936402 L8.39306567,18.3638514 C8.38143649,18.3776328 8.3772077,18.3935343 8.36452132,18.4062555 C8.35289214,18.4189767 8.33597698,18.422157 8.3232906,18.4338181 L5.59889109,21.1657 C5.47837051,21.2865516 5.32296239,21.3649991 5.15486789,21.3893815 L1.10685636,21.9915192 C1.06774003,21.9978798 1.0286237,22 0.989507368,22 C0.736837022,22 0.513768223,21.8717277 0.366817686,21.6777291 C0.107804152,21.5112932 -0.0423179788,21.2028036 0.0105419263,20.8794726 L0.664947551,16.8712283 C0.692434702,16.7058525 0.769610163,16.554258 0.886959152,16.4376468 L13.3618967,3.92738753 L13.3629539,3.92738753 L13.3629539,3.92738753 L14.9254927,2.36055733 C15.2352518,2.04994756 15.7363637,2.04994756 16.0461227,2.36055733 C16.3558818,2.67116711 16.3558818,3.17365528 16.0461227,3.48426505 L15.0438989,4.48924139 L17.5156281,6.96775899 L18.4945935,5.98610488 C18.8043526,5.67549511 19.3065217,5.67549511 19.6162807,5.98610488 C19.9260398,6.29671466 19.9260398,6.79920283 19.6162807,7.1098126 L19.6162807,7.1098126 Z M21.2063063,5.1995 C21.0043809,5.1995 20.8013983,5.12211308 20.6459897,4.96733924 L17.0462199,1.35771642 C16.73646,1.04710864 16.73646,0.543563612 17.0462199,0.232955834 C17.3559799,-0.0776519445 17.8581504,-0.0776519445 18.1679103,0.232955834 L21.7676801,3.84257865 C22.07744,4.15318643 22.07744,4.65673146 21.7676801,4.96733924 C21.6122715,5.12211308 21.4092889,5.1995 21.2063063,5.1995 L21.2063063,5.1995 Z" id="path-1"></path>
    </defs>
    <g id="edit" stroke="none" stroke-width="1" fill="none" fill-rule="evenodd">
        <g id="ui/edit_thick_24">
            <rect id="Rectangle" fill="#FF0000" opacity="0" x="0" y="0" width="24" height="24"></rect>
            <g id="icon/ui/edit_dark" stroke-width="1" transform="translate(1.000000, 1.000000)">
                <mask id="mask-2" fill="white">
                    <use xlink:href="#path-1"></use>
                </mask>
                <g id="Mask"></g>
                <g id="Black-058%-(Secondary)" mask="url(#mask-2)" fill="#000000">
                    <g transform="translate(-13.000000, -13.000000)" id="Rectangle-435-Copy-4">
                        <rect x="0" y="0" width="48" height="48"></rect>
                    </g>
                </g>
            </g>
        </g>
    </g>
</svg>