<?xml version="1.0" encoding="UTF-8"?>
<svg width="24px" height="24px" viewBox="0 0 24 24" version="1.1" xmlns="http://www.w3.org/2000/svg" xmlns:xlink="http://www.w3.org/1999/xlink">
    <!-- Generator: Sketch 52.3 (67297) - http://www.bohemiancoding.com/sketch -->
    <title>euro</title>
    <desc>Created with Sketch.</desc>
    <defs>
        <path d="M10.376,6.00729167 C10.376,5.71979167 10.152,5.48645833 9.876,5.48645833 L5.604,5.48645833 L5.604,1.0625 C5.604,0.775 5.38,0.541666667 5.104,0.541666667 C4.827,0.541666667 4.604,0.775 4.604,1.0625 L4.604,5.48645833 L0.5,5.48645833 C0.224,5.48645833 0,5.71979167 0,6.00729167 C0,6.29479167 0.224,6.528125 0.5,6.528125 L4.604,6.528125 L4.604,10.7822917 C4.604,11.0697917 4.827,11.303125 5.104,11.303125 C5.38,11.303125 5.604,11.0697917 5.604,10.7822917 L5.604,6.528125 L9.876,6.528125 C10.152,6.528125 10.376,6.29479167 10.376,6.00729167 M21.386,22.2822917 C19.924,23.3416667 18.198,23.9010417 16.397,23.9010417 C12.534,23.9010417 9.257,21.3 8.169,17.7291667 L4.716,17.7291667 C4.44,17.7291667 4.216,17.4958333 4.216,17.2083333 C4.216,16.9208333 4.44,16.6875 4.716,16.6875 L7.927,16.6875 C7.838,16.184375 7.784,15.66875 7.784,15.1395833 C7.784,14.78125 7.812,14.4302083 7.853,14.0833333 L4.716,14.0833333 C4.44,14.0833333 4.216,13.85 4.216,13.5625 C4.216,13.275 4.44,13.0416667 4.716,13.0416667 L8.044,13.0416667 C8.972,9.22291667 12.36,6.37916667 16.397,6.37916667 C18.151,6.37916667 19.839,6.91145833 21.278,7.91979167 C21.508,8.08020833 21.568,8.40416667 21.415,8.64270833 C21.26,8.88125 20.95,8.94479167 20.721,8.784375 C19.447,7.89166667 17.952,7.42083333 16.397,7.42083333 C12.918,7.42083333 9.982,9.803125 9.078,13.0416667 L17.193,13.0416667 C17.469,13.0416667 17.693,13.275 17.693,13.5625 C17.693,13.85 17.469,14.0833333 17.193,14.0833333 L8.864,14.0833333 C8.817,14.4291667 8.784,14.7802083 8.784,15.1395833 C8.784,15.6697917 8.837,16.1875 8.938,16.6875 L16.209,16.6875 C16.486,16.6875 16.709,16.9208333 16.709,17.2083333 C16.709,17.4958333 16.486,17.7291667 16.209,17.7291667 L9.234,17.7291667 C10.287,20.7135417 13.096,22.859375 16.397,22.859375 C17.994,22.859375 19.521,22.3635417 20.816,21.4270833 C21.042,21.2625 21.354,21.3208333 21.512,21.5572917 C21.669,21.79375 21.613,22.1177083 21.386,22.2822917" id="path-1"></path>
    </defs>
    <g id="euro" stroke="none" stroke-width="1" fill="none" fill-rule="evenodd">
        <g id="ui/add_euro_24">
            <rect id="Rectangle" fill="#FF0000" opacity="0" x="0" y="0" width="24" height="24"></rect>
            <g id="icon/ui/add_euro_dark" stroke-width="1" transform="translate(1.000000, 0.000000)">
                <mask id="mask-2" fill="white">
                    <use xlink:href="#path-1"></use>
                </mask>
                <g id="Mask"></g>
                <g id="Black-058%-(Secondary)" fill="#D8D8D8" mask="url(#mask-2)">
                    <g transform="translate(-13.000000, -13.000000)" fill="#000000" id="Rectangle-435-Copy-4">
                        <rect x="0" y="0" width="48" height="48"></rect>
                    </g>
                </g>
            </g>
        </g>
    </g>
</svg>