<?xml version="1.0" encoding="UTF-8"?>
<svg width="24px" height="24px" viewBox="0 0 24 24" version="1.1" xmlns="http://www.w3.org/2000/svg" xmlns:xlink="http://www.w3.org/1999/xlink">
    <!-- Generator: Sketch 52.3 (67297) - http://www.bohemiancoding.com/sketch -->
    <title>house-phone</title>
    <desc>Created with Sketch.</desc>
    <defs>
        <path d="M5.034,14.426 C5.15,14.358 5.272,14.349 5.282,14.334 C5.288,14.365 5.257,14.445 5.213,14.474 C5.14,14.522 5.032,14.54 4.896,14.528 C4.938,14.49 4.984,14.455 5.034,14.426 L5.034,14.426 Z M11.831,11.656 C11.831,11.802 11.726,11.925 11.592,11.935 C11.36,11.952 11.114,11.967 10.935,11.967 C5.457,11.967 1,7.388 1,1.76 C1,1.595 1.004,1.431 1.012,1.268 C1.018,1.117 1.133,1 1.271,1 L2.987,1 C3.141,1 3.209,1.189 3.217,1.318 C3.229,1.527 3.299,2.252 3.363,2.911 L3.438,3.69 C3.476,4.087 3.414,4.356 3.249,4.511 L2.317,5.392 C2.161,5.539 2.116,5.77 2.206,5.965 C3.191,8.109 4.9,9.822 7.018,10.788 C7.21,10.876 7.437,10.832 7.585,10.681 L8.556,9.68 C8.611,9.623 8.78,9.455 9.287,9.497 C9.602,9.525 10.221,9.568 10.732,9.602 C11.095,9.627 11.403,9.648 11.503,9.657 C11.537,9.66 11.831,9.693 11.831,9.906 L11.831,11.656 Z M14.5429675,11.9729676 C14.2239682,11.2239697 13.5589697,10.6869711 12.8309713,10.5329715 L12.8309713,9.90597323 C12.8309713,9.24997501 12.3099725,8.72597642 11.5939741,8.6609766 C11.4909743,8.65197662 11.173975,8.62997668 10.7999759,8.60497675 C10.294977,8.56997684 9.68497835,8.52897695 9.37497904,8.50097703 C8.7229805,8.44397718 8.20498166,8.60597675 7.83898248,8.98397573 L7.11798409,9.72597372 C5.46798778,8.89097598 4.11899079,7.53897963 3.26899269,5.86698415 L3.9359912,5.23798585 C4.33399031,4.86198686 4.50098994,4.30898836 4.43399009,3.59599028 L4.35899026,2.81499239 C4.2959904,2.16999414 4.22699055,1.46199605 4.21499058,1.2579966 C4.17199067,0.540998538 3.64399185,0 2.98699332,0 L1.27099716,0 C0.596998665,0 0.0439999016,0.536998549 0.0129999709,1.2219967 C0.00399999106,1.40099621 0,1.57999573 0,1.75999524 C0,7.93997855 4.90598903,12.966965 10.9349756,12.966965 C11.1329751,12.966965 11.4079745,12.950965 11.6659739,12.9319651 C12.3189725,12.8839652 12.8309713,12.3219667 12.8309713,11.6559685 L12.8309713,11.5859687 C13.1609706,11.7239683 13.4659699,11.9969676 13.6229695,12.3649666 C13.8439691,12.8839652 13.8249691,13.5439634 13.5699697,14.1759617 C13.2679703,14.9259597 12.6799717,15.5729579 11.9119734,15.9979568 C11.2099749,16.3859557 10.3389769,16.5669552 9.44397889,16.5869552 C9.07397972,16.5849552 8.81798029,16.5239554 8.6799806,16.4049557 C9.11697962,15.900957 9.33997912,15.2349588 9.22597938,14.5929606 C9.14497956,14.1319618 8.87298017,13.9709623 8.71898051,13.9159624 C8.51498097,13.8429626 8.28598148,13.8689625 8.07298195,13.9889622 C7.50998321,14.3049613 7.30998366,14.9739595 7.47798328,15.9769568 C7.48498327,16.0129567 7.49098325,16.0499566 7.49698324,16.0879565 C7.41098343,16.1349564 7.32198363,16.1729563 7.23198383,16.1979562 C6.6199852,16.3759558 5.87498687,16.2009562 5.1899884,15.7179575 C5.11398857,15.6649577 5.03298875,15.6019578 4.95698892,15.531958 C5.24598827,15.532958 5.53398763,15.4599582 5.76398712,15.3079586 C6.02998652,15.1329591 6.2189861,14.8349599 6.26898599,14.5109608 C6.31398589,14.2199616 6.24398604,13.9419623 6.07198643,13.7269629 C5.68698729,13.2489642 5.00398881,13.2829641 4.52598988,13.5649633 C4.29799039,13.698963 4.10699082,13.8789625 3.96199114,14.0839619 C3.79199152,13.9269624 3.65699183,13.7389629 3.57099202,13.5319634 C3.38099244,13.0719647 3.44899229,12.4999662 3.73699165,12.1409672 C3.90999126,11.9259678 3.87599134,11.6119686 3.65999182,11.4389691 C3.4459923,11.2659696 3.130993,11.3009695 2.95799339,11.5149689 C2.43499456,12.1649671 2.31299483,13.1069646 2.64699408,13.9139624 C2.85099363,14.4049611 3.20899283,14.8229599 3.66099182,15.1129592 C3.66199181,15.1319591 3.66399181,15.1509591 3.66599181,15.169959 C3.72599167,15.6759576 4.04499096,16.1359564 4.61498968,16.5369553 C5.5489876,17.1929535 6.60398524,17.4199529 7.50898321,17.1589536 C7.63798293,17.1219537 7.76298265,17.0739539 7.88098238,17.016954 C8.37998127,17.5999524 9.19297945,17.5889525 9.46597884,17.5869525 C10.5389764,17.5869525 11.5519742,17.3399531 12.3959723,16.8729544 C13.3639701,16.3369559 14.1109685,15.5109581 14.4979676,14.5489607 C14.8499668,13.6729631 14.8669668,12.7349656 14.5429675,11.9729676 L14.5429675,11.9729676 Z" id="path-1"></path>
    </defs>
    <g id="house-phone" stroke="none" stroke-width="1" fill="none" fill-rule="evenodd">
        <g id="ui/house_phone_24">
            <rect id="Rectangle" fill="#FF0000" opacity="0" x="0" y="0" width="24" height="24"></rect>
            <g id="icon/ui/house_phone_dark" stroke-width="1" transform="translate(5.000000, 3.000000)">
                <mask id="mask-2" fill="white">
                    <use xlink:href="#path-1"></use>
                </mask>
                <g id="landline"></g>
                <g id="Black-058%-(Secondary)" mask="url(#mask-2)" fill="#000000">
                    <g transform="translate(-17.000000, -15.000000)" id="Rectangle-435-Copy-4">
                        <rect x="0" y="0" width="48" height="48"></rect>
                    </g>
                </g>
            </g>
        </g>
    </g>
</svg>