<?xml version="1.0" encoding="UTF-8"?>
<svg width="24px" height="24px" viewBox="0 0 24 24" version="1.1" xmlns="http://www.w3.org/2000/svg" xmlns:xlink="http://www.w3.org/1999/xlink">
    <!-- Generator: Sketch 52.3 (67297) - http://www.bohemiancoding.com/sketch -->
    <title>signed-in</title>
    <desc>Created with Sketch.</desc>
    <defs>
        <path d="M16.2376,12.9580138 C16.2376,10.4159273 14.1272149,8.3485 11.5339885,8.3485 C8.94076209,8.3485 6.8314,10.4159273 6.8314,12.9580138 C6.8314,13.2403542 7.05952209,13.4695 7.3428845,13.4695 C7.62522395,13.4695 7.854369,13.2403542 7.854369,12.9580138 C7.854369,10.9795851 9.50441801,9.37147243 11.5339885,9.37147243 C13.563559,9.37147243 15.214631,10.9795851 15.214631,12.9580138 C15.214631,13.2403542 15.4437761,13.4695 15.7261155,13.4695 C16.0084549,13.4695 16.2376,13.2403542 16.2376,12.9580138 M9.0052,4.60955 C9.0052,6.06320875 10.2092425,7.2468 11.6894885,7.2468 C13.1697345,7.2468 14.3748,6.06320875 14.3748,4.60955 C14.3748,3.15486827 13.1697345,1.9723 11.6894885,1.9723 C10.2092425,1.9723 9.0052,3.15486827 9.0052,4.60955 M24,2.33238195 L24,12.8066183 C23.7892673,14.0873824 22.7714079,14.9876 21.6256767,14.9876 L2.37534632,14.9876 C1.22859213,14.9876 0,14.0495323 0,12.655218 L0,2.33238195 C0,1.20608698 0.95443502,0 2.37534632,0 L21.6256767,0 C22.7724308,0 24,0.93704468 24,2.33238195 M10.0282,4.60955 C10.0282,3.71956426 10.7729155,2.9953 11.6894885,2.9953 C12.6060615,2.9953 13.3518,3.71956426 13.3518,4.60955 C13.3518,5.49953574 12.6060615,6.2238 11.6894885,6.2238 C10.7729155,6.2238 10.0282,5.49953574 10.0282,4.60955" id="path-1"></path>
    </defs>
    <g id="signed-in" stroke="none" stroke-width="1" fill="none" fill-rule="evenodd">
        <g id="ui/signed_in_24">
            <rect id="Rectangle" fill="#FF0000" opacity="0" x="0" y="0" width="24" height="24"></rect>
            <g id="icon/ui/signed_in_dark" stroke-width="1" transform="translate(0.000000, 5.000000)">
                <mask id="mask-2" fill="white">
                    <use xlink:href="#path-1"></use>
                </mask>
                <g id="Mask"></g>
                <g id="Black-058%-(Secondary)" mask="url(#mask-2)" fill="#000000">
                    <g transform="translate(-12.000000, -17.000000)" id="Rectangle-435-Copy-4">
                        <rect x="0" y="0" width="48" height="48"></rect>
                    </g>
                </g>
            </g>
        </g>
    </g>
</svg>