<?xml version="1.0" encoding="UTF-8"?>
<svg width="24px" height="24px" viewBox="0 0 24 24" version="1.1" xmlns="http://www.w3.org/2000/svg" xmlns:xlink="http://www.w3.org/1999/xlink">
    <!-- Generator: Sketch 52.3 (67297) - http://www.bohemiancoding.com/sketch -->
    <title>stamp</title>
    <desc>Created with Sketch.</desc>
    <g id="stamp" stroke="none" stroke-width="1" fill="none" fill-rule="evenodd">
        <g id="ui/stamp_24" fill="#000000">
            <g id="stamp">
                <path d="M3.91144398,18.9898421 C4.28449146,19.0292116 4.66515222,19.0374834 5.0542732,19.0150556 C5.08428902,19.1729036 5.0999,19.3350441 5.0999,19.4998 C5.0999,20.3138 4.7179,21.0648 4.0999,21.5488 L4.0999,21.6438 C4.6519,21.9018 5.0969,22.3478 5.3559,22.8998 L6.4509,22.8998 C6.9349,22.2808 7.6859,21.8998 8.4999,21.8998 C9.3139,21.8998 10.0649,22.2808 10.5499,22.8998 L11.4509,22.8998 C11.9349,22.2808 12.6859,21.8998 13.4999,21.8998 C14.3149,21.8998 15.0659,22.2808 15.5499,22.8998 L16.4499,22.8998 C16.9349,22.2808 17.6859,21.8998 18.4999,21.8998 C19.3149,21.8998 20.0659,22.2808 20.5499,22.8998 L21.6449,22.8998 C21.9029,22.3478 22.3489,21.9018 22.9009,21.6438 L22.9009,21.5488 C22.2809,21.0648 21.9009,20.3138 21.9009,19.4998 C21.9009,18.6848 22.2809,17.9338 22.9009,17.4498 L22.9009,16.5488 C22.2809,16.0648 21.9009,15.3138 21.9009,14.4998 C21.9009,13.6848 22.2809,12.9338 22.9009,12.4498 L22.9009,11.5488 C22.2809,11.0648 21.9009,10.3138 21.9009,9.4998 C21.9009,8.6858 22.2809,7.9348 22.9009,7.4498 L22.9009,6.5488 C22.2809,6.0648 21.9009,5.3138 21.9009,4.4998 C21.9009,3.6858 22.2809,2.9348 22.9009,2.4498 L22.9009,2.3548 C22.3489,2.0968 21.9029,1.6508 21.6449,1.0998 L20.5499,1.0998 C20.0659,1.7178 19.3149,2.0998 18.4999,2.0998 C17.6859,2.0998 16.9349,1.7178 16.4499,1.0998 L15.5499,1.0998 C15.0659,1.7178 14.3149,2.0998 13.4999,2.0998 C12.6859,2.0998 11.9349,1.7178 11.4509,1.0998 L10.5499,1.0998 C10.0649,1.7178 9.3139,2.0998 8.4999,2.0998 C7.6859,2.0998 6.9349,1.7178 6.4509,1.0998 L5.3559,1.0998 C5.0969,1.6508 4.6519,2.0968 4.0999,2.3548 L4.0999,2.4498 C4.7179,2.9348 5.0999,3.6858 5.0999,4.4998 C5.0999,5.3138 4.7179,6.0648 4.0999,6.5488 L4.0999,7.24727327 C3.74625257,7.11820459 3.40379996,6.85767038 3,6.43679296 L3,5.914 C3.583,5.708 4,5.152 4,4.5 C4,3.846 3.583,3.291 3,3.085 L3,1.499 C3.829,1.499 4.5,0.828 4.5,0 L7.086,0 C7.292,0.582 7.847,1 8.5,1 C9.153,1 9.708,0.582 9.914,0 L12.085,0 C12.291,0.582 12.847,1 13.5,1 C14.153,1 14.709,0.582 14.915,0 L17.085,0 C17.291,0.582 17.847,1 18.5,1 C19.153,1 19.709,0.582 19.915,0 L22.5,0 C22.5,0.828 23.172,1.499 24,1.499 L24,3.085 C23.417,3.291 23,3.846 23,4.5 C23,5.152 23.417,5.708 24,5.914 L24,8.085 C23.417,8.291 23,8.846 23,9.499 C23,10.153 23.417,10.708 24,10.914 L24,13.084 C23.417,13.29 23,13.846 23,14.5 C23,15.153 23.417,15.708 24,15.915 L24,18.084 C23.417,18.29 23,18.846 23,19.499 C23,20.153 23.417,20.709 24,20.914 L24,22.5 C23.172,22.5 22.5,23.171 22.5,23.999 L19.915,23.999 C19.709,23.416 19.153,22.999 18.5,22.999 C17.847,22.999 17.291,23.416 17.085,23.999 L14.915,23.999 C14.709,23.416 14.153,22.999 13.5,22.999 C12.847,22.999 12.291,23.416 12.085,23.999 L9.914,23.999 C9.708,23.416 9.153,22.999 8.5,22.999 C7.847,22.999 7.292,23.416 7.086,23.999 L4.5,23.999 C4.5,23.171 3.829,22.5 3,22.5 L3,20.914 C3.583,20.709 4,20.153 4,19.499 C4,19.3202865 3.96876625,19.1488385 3.91144398,18.9898421 Z" id="outer"></path>
                <path d="M6,18.9033439 C6.35921415,18.8400339 6.72568108,18.7525997 7.1,18.6413229 L7.1,19.9 L19.9,19.9 L19.9,4.1 L7.1,4.1 L7.1,6.60180239 C6.46838274,6.86506046 6.25831088,6.94941085 6,7.04251215 L6,4 C6,3.44771525 6.44771525,3 7,3 L20,3 C20.5522847,3 21,3.44771525 21,4 L21,20 C21,20.5522847 20.5522847,21 20,21 L7,21 C6.44771525,21 6,20.5522847 6,20 L6,18.9033439 Z M15.8926268,12.1905638 C16.1302495,12.379782 16.1694891,12.7258049 15.9802709,12.9634276 C15.7910527,13.2010503 15.4450298,13.2402899 15.2074071,13.0510717 C13.0026392,11.295422 11.5161963,11.3777076 8.41779157,12.7164617 C7.63337359,13.0553918 7.38915565,13.1575459 6.99704156,13.3017602 C4.32599849,14.2841342 2.31721703,13.8353055 0.123906813,11.1477671 C-0.0681502671,10.9124329 -0.0330672775,10.5659639 0.202266863,10.3739068 C0.437601004,10.1818497 0.784070044,10.2169327 0.976127123,10.4522669 C2.85868992,12.7590358 4.36864723,13.0964106 6.61734241,12.2693705 C6.98284121,12.1349449 7.2177373,12.0366901 7.9814904,11.7066888 C11.4132184,10.2239129 13.2922531,10.1198945 15.8926268,12.1905638 Z M15.8926268,8.69056378 C16.1302495,8.87978199 16.1694891,9.22580491 15.9802709,9.46342762 C15.7910527,9.70105032 15.4450298,9.74028992 15.2074071,9.55107172 C13.0026392,7.79542204 11.5161963,7.87770758 8.41779157,9.21646169 C7.63337359,9.55539185 7.38915565,9.65754592 6.99704156,9.80176024 C4.32599849,10.7841342 2.31721703,10.3353055 0.123906813,7.64776707 C-0.0681502671,7.41243293 -0.0330672775,7.06596389 0.202266863,6.87390681 C0.437601004,6.68184973 0.784070044,6.71693272 0.976127123,6.95226686 C2.85868992,9.25903576 4.36864723,9.59641056 6.61734241,8.76937051 C6.98284121,8.63494494 7.2177373,8.53669011 7.9814904,8.2066888 C11.4132184,6.72391285 13.2922531,6.61989447 15.8926268,8.69056378 Z M15.8926268,15.6905638 C16.1302495,15.879782 16.1694891,16.2258049 15.9802709,16.4634276 C15.7910527,16.7010503 15.4450298,16.7402899 15.2074071,16.5510717 C13.0026392,14.795422 11.5161963,14.8777076 8.41779157,16.2164617 C7.63337359,16.5553918 7.38915565,16.6575459 6.99704156,16.8017602 C4.32599849,17.7841342 2.31721703,17.3353055 0.123906813,14.6477671 C-0.0681502671,14.4124329 -0.0330672775,14.0659639 0.202266863,13.8739068 C0.437601004,13.6818497 0.784070044,13.7169327 0.976127123,13.9522669 C2.85868992,16.2590358 4.36864723,16.5964106 6.61734241,15.7693705 C6.98284121,15.6349449 7.2177373,15.5366901 7.9814904,15.2066888 C11.4132184,13.7239129 13.2922531,13.6198945 15.8926268,15.6905638 Z" id="inner" fill-rule="nonzero"></path>
            </g>
        </g>
    </g>
</svg>