<?xml version="1.0" encoding="UTF-8"?>
<svg width="24px" height="24px" viewBox="0 0 24 24" version="1.1" xmlns="http://www.w3.org/2000/svg" xmlns:xlink="http://www.w3.org/1999/xlink">
    <!-- Generator: Sketch 52.3 (67297) - http://www.bohemiancoding.com/sketch -->
    <title>trash</title>
    <desc>Created with Sketch.</desc>
    <defs>
        <path d="M8,3.25 L8,3 C8,2.44771525 8.44771525,2 9,2 L15,2 C15.5522847,2 16,2.44771525 16,3 L16,3.25 L21,3.25 C21.4142136,3.25 21.75,3.58578644 21.75,4 C21.75,4.41421356 21.4142136,4.75 21,4.75 L3,4.75 C2.58578644,4.75 2.25,4.41421356 2.25,4 C2.25,3.58578644 2.58578644,3.25 3,3.25 L8,3.25 Z M19.4981262,6 L21,6 L20.1950062,22.0998752 C20.1417853,23.1642939 19.2632499,24 18.1975016,24 L5.80249844,24 C4.73675006,24 3.8582147,23.1642939 3.80499376,22.0998752 L3,6 L4.50187383,6 L5.30312227,22.0249688 C5.3164275,22.2910735 5.53606134,22.5 5.80249844,22.5 L18.1975016,22.5 C18.4639387,22.5 18.6835725,22.2910735 18.6968777,22.0249688 L19.4981262,6 Z M7.25,9.33333333 C7.25,8.91911977 7.58578644,8.58333333 8,8.58333333 C8.41421356,8.58333333 8.75,8.91911977 8.75,9.33333333 L8.75,18.6666667 C8.75,19.0808802 8.41421356,19.4166667 8,19.4166667 C7.58578644,19.4166667 7.25,19.0808802 7.25,18.6666667 L7.25,9.33333333 Z M11.25,9.33333333 C11.25,8.91911977 11.5857864,8.58333333 12,8.58333333 C12.4142136,8.58333333 12.75,8.91911977 12.75,9.33333333 L12.75,18.6666667 C12.75,19.0808802 12.4142136,19.4166667 12,19.4166667 C11.5857864,19.4166667 11.25,19.0808802 11.25,18.6666667 L11.25,9.33333333 Z M15.25,9.33333333 C15.25,8.91911977 15.5857864,8.58333333 16,8.58333333 C16.4142136,8.58333333 16.75,8.91911977 16.75,9.33333333 L16.75,18.6666667 C16.75,19.0808802 16.4142136,19.4166667 16,19.4166667 C15.5857864,19.4166667 15.25,19.0808802 15.25,18.6666667 L15.25,9.33333333 Z" id="path-1"></path>
    </defs>
    <g id="trash" stroke="none" stroke-width="1" fill="none" fill-rule="evenodd">
        <g id="ui/delete_24">
            <rect id="Rectangle" fill="#FF0000" fill-rule="evenodd" opacity="0" x="0" y="0" width="24" height="24"></rect>
            <mask id="mask-2" fill="white">
                <use xlink:href="#path-1"></use>
            </mask>
            <use id="Combined-Shape" fill="#FFFFFF" fill-rule="evenodd" xlink:href="#path-1"></use>
            <g id="Color/black_58" mask="url(#mask-2)" fill="#000000" fill-rule="evenodd">
                <rect id="Rectangle-435-Copy-4" x="0" y="0" width="24" height="24"></rect>
            </g>
        </g>
    </g>
</svg>