<?xml version="1.0" encoding="UTF-8"?>
<svg width="24px" height="24px" viewBox="0 0 24 24" version="1.1" xmlns="http://www.w3.org/2000/svg" xmlns:xlink="http://www.w3.org/1999/xlink">
    <!-- Generator: Sketch 52.3 (67297) - http://www.bohemiancoding.com/sketch -->
    <title>walking</title>
    <desc>Created with Sketch.</desc>
    <defs>
        <path d="M7.192,1 C6.436,1 5.821,1.62 5.821,2.382 C5.821,3.145 6.436,3.765 7.192,3.765 C7.948,3.765 8.563,3.145 8.563,2.382 C8.563,1.62 7.948,1 7.192,1 M7.192,4.765 C5.885,4.765 4.821,3.696 4.821,2.382 C4.821,1.069 5.885,0 7.192,0 C8.499,0 9.563,1.069 9.563,2.382 C9.563,3.696 8.499,4.765 7.192,4.765 M4.458,13.8729963 C4.568,13.8729963 4.676,13.9099963 4.766,13.9789964 L6.475,15.3159971 C6.894,15.6439972 7.148,16.1369975 7.171,16.6699978 L7.335,20.4299998 C7.345,20.6759999 7.544,20.869 7.787,20.869 C8.036,20.869 8.239,20.6629999 8.239,20.4099998 L8.239,15.7489973 C8.239,15.5439972 8.164,15.3489971 8.027,15.197997 L5.654,12.5809956 C5.544,12.4579955 5.501,12.2889955 5.539,12.1279954 L6.389,8.56399349 C6.428,8.4009934 6.546,8.26899333 6.703,8.2109933 C6.861,8.15199327 7.037,8.17899329 7.172,8.27799334 L8.41,9.19199382 C8.904,9.55599401 9.488,9.74899412 10.1,9.74899412 L11.621,9.74899412 C11.775,9.74899412 11.9,9.62099405 11.9,9.46499397 C11.9,9.30799388 11.775,9.18099382 11.621,9.18099382 C11.591,9.18699382 9.847,9.31699389 8.5,7.96099317 L7.106,6.46099238 C6.668,5.98999213 6.108,5.66199195 5.485,5.51099187 C4.945,5.3809918 4.376,5.39199181 3.839,5.54299189 L1.692,6.15299221 C1.284,6.26899227 1,6.64799247 1,7.0759927 L1,9.60699404 C1,9.76399412 1.125,9.89099419 1.279,9.89099419 C1.433,9.89099419 1.558,9.76399412 1.558,9.60699404 L1.558,8.14299327 C1.558,7.62899299 1.942,7.19299276 2.45,7.12899273 L3.658,7.05099269 C3.815,7.04299268 3.969,7.10499272 4.072,7.22599278 C4.174,7.34699284 4.213,7.50799293 4.178,7.66199301 L1.277,20.2219997 C1.241,20.3809997 1.277,20.5449998 1.379,20.6729999 C1.625,20.9810001 2.18,20.863 2.285,20.4809998 L3.975,14.2419965 C4.019,14.0809964 4.141,13.9519963 4.3,13.8979963 C4.351,13.8809963 4.405,13.8729963 4.458,13.8729963 M7.787,21.869 C7.007,21.869 6.37,21.2560016 6.336,20.4740037 L6.171,16.7140136 C6.161,16.4730142 6.047,16.2510148 5.859,16.1040152 L4.743,15.2310175 L3.25,20.743003 C3.07,21.4060012 2.467,21.869 1.783,21.869 C1.319,21.869 0.886,21.6600006 0.596,21.2950015 C0.304,20.9280025 0.197,20.4550037 0.303,19.9980049 L3.052,8.09203637 L2.545,8.12503628 L2.558,9.60703237 C2.558,10.3150305 1.984,10.891029 1.279,10.891029 C0.573,10.891029 0,10.3150305 0,9.60703237 L0,7.07603905 C0,6.20304136 0.583,5.4280434 1.419,5.19104403 L3.567,4.58204564 C4.268,4.38204617 5.013,4.3680462 5.72,4.53904575 C6.534,4.73604523 7.267,5.1650441 7.838,5.78004248 L9.221,7.26903854 C10.219,8.2720359 11.569,8.18703612 11.581,8.18203613 L11.584,8.18203613 C12.328,8.18203613 12.9,8.75803461 12.9,9.46503275 C12.9,10.1730309 12.327,10.7490294 11.621,10.7490294 L10.1,10.7490294 C9.273,10.7490294 8.484,10.48903 7.817,9.99703134 L7.186,9.53203257 L6.572,12.1040258 L8.768,14.5260194 C9.072,14.8610185 9.239,15.2950174 9.239,15.7490162 L9.239,20.4100039 C9.239,21.2140017 8.588,21.869 7.787,21.869" id="path-1"></path>
    </defs>
    <g id="walking" stroke="none" stroke-width="1" fill="none" fill-rule="evenodd">
        <g id="W">
            <rect id="Rectangle" fill="#FF0000" opacity="0" x="0" y="0" width="24" height="24"></rect>
            <g id="ui/walking_dark" transform="translate(6.000000, 1.000000)">
                <mask id="mask-2" fill="white">
                    <use xlink:href="#path-1"></use>
                </mask>
                <g id="walking"></g>
                <g id="Black-058%-(Secondary)" mask="url(#mask-2)" fill="#000000">
                    <g transform="translate(-18.000000, -13.000000)" id="Rectangle-435-Copy-4">
                        <rect x="0" y="0" width="48" height="48"></rect>
                    </g>
                </g>
            </g>
        </g>
    </g>
</svg>