<?xml version="1.0" encoding="UTF-8"?>
<svg width="24px" height="24px" viewBox="0 0 24 24" version="1.1" xmlns="http://www.w3.org/2000/svg" xmlns:xlink="http://www.w3.org/1999/xlink">
    <!-- Generator: Sketch 52.3 (67297) - http://www.bohemiancoding.com/sketch -->
    <title>warning</title>
    <desc>Created with Sketch.</desc>
    <defs>
        <path d="M13.001,16.50115 L13.001,15.50105 C13.001,15.2250224 12.7769776,15.001 12.50095,15.001 C12.2249224,15.001 12.0009,15.2250224 12.0009,15.50105 L12.0009,16.50115 C12.0009,16.7771776 12.2249224,17.0012 12.50095,17.0012 C12.7769776,17.0012 13.001,16.7771776 13.001,16.50115 L13.001,16.50115 Z M13.001,13.7008524 L13.001,10.5005476 C13.001,10.2245213 12.7769776,10.0005 12.50095,10.0005 C12.2249224,10.0005 12.0009,10.2245213 12.0009,10.5005476 L12.0009,13.7008524 C12.0009,13.9778788 12.2249224,14.2009 12.50095,14.2009 C12.7769776,14.2009 13.001,13.9778788 13.001,13.7008524 L13.001,13.7008524 Z M5.0603,19.0013 L20.0106,19.0013 L12.500947,5.2391 L5.0603,19.0013 Z M20.1496394,20.0014 L4.85228792,20.0014 C4.55926203,20.0014 4.29223844,19.8563873 4.13822484,19.6133661 C3.96620964,19.3413422 3.95420858,18.9873113 4.10522192,18.6662832 C4.10922227,18.6572824 4.11422272,18.6492817 4.11822307,18.6422811 L11.7668988,4.4960434 C11.9089113,4.19401697 12.187936,4 12.5009636,4 L12.5009636,4 C12.8139913,4 13.093016,4.19501706 13.2470296,4.5200455 L20.8837042,18.6422811 C21.0477187,18.9873113 21.0357177,19.3413422 20.8637025,19.6133661 C20.7096889,19.8563873 20.4426653,20.0014 20.1496394,20.0014 L20.1496394,20.0014 Z" id="path-1"></path>
    </defs>
    <g id="warning" stroke="none" stroke-width="1" fill="none" fill-rule="evenodd">
        <g id="ui/warning_outline_24">
            <g id="icon/ui/warning_outline_dark">
                <rect id="Rectangle" fill="#FF0000" opacity="0" x="0" y="0" width="24" height="24"></rect>
                <mask id="mask-2" fill="white">
                    <use xlink:href="#path-1"></use>
                </mask>
                <g id="Mask"></g>
                <g id="Black-058%-(Secondary)" mask="url(#mask-2)" fill="#000000">
                    <g transform="translate(-12.000000, -12.000000)" id="Rectangle-435-Copy-4">
                        <rect x="0" y="0" width="48" height="48"></rect>
                    </g>
                </g>
            </g>
        </g>
    </g>
</svg>