<?xml version="1.0" encoding="UTF-8"?>
<svg width="24px" height="24px" viewBox="0 0 24 24" version="1.1" xmlns="http://www.w3.org/2000/svg" xmlns:xlink="http://www.w3.org/1999/xlink">
    <!-- Generator: Sketch 51.2 (57519) - http://www.bohemiancoding.com/sketch -->
    <title>Artboard</title>
    <desc>Created with Sketch.</desc>
    <defs></defs>
    <g id="Artboard" stroke="none" stroke-width="1" fill="none" fill-rule="evenodd">
        <path d="M13.05975,11.999775 L18.77875,6.28075457 C19.07175,5.98775353 19.07175,5.51275183 18.77875,5.21975078 C18.48575,4.92674974 18.01175,4.92674974 17.71875,5.21975078 L11.99875,10.9387712 L6.27975,5.21975078 C5.98675,4.92674974 5.51275,4.92674974 5.21975,5.21975078 C4.92675,5.51275183 4.92675,5.98775353 5.21975,6.28075457 L10.93875,11.999775 L5.21975,17.7187954 C4.92675,18.0117965 4.92675,18.4867982 5.21975,18.7797992 C5.36575,18.9257997 5.55775,18.9998 5.74975,18.9998 C5.94175,18.9998 6.13375,18.9257997 6.27975,18.7797992 L11.99875,13.0607788 L17.71875,18.7797992 C17.86475,18.9257997 18.05675,18.9998 18.24875,18.9998 C18.44075,18.9998 18.63275,18.9257997 18.77875,18.7797992 C19.07175,18.4867982 19.07175,18.0117965 18.77875,17.7187954 L13.05975,11.999775 Z" id="Mask" fill="#000000"></path>
    </g>
</svg>