<?xml version="1.0" encoding="UTF-8"?>
<svg width="24px" height="24px" viewBox="0 0 24 24" version="1.1" xmlns="http://www.w3.org/2000/svg" xmlns:xlink="http://www.w3.org/1999/xlink">
    <!-- Generator: Sketch 51.2 (57519) - http://www.bohemiancoding.com/sketch -->
    <title>heart</title>
    <desc>Created with Sketch.</desc>
    <defs></defs>
    <g id="heart" stroke="none" stroke-width="1" fill="none" fill-rule="evenodd">
        <path d="M21.6642253,12.1518912 C20.5485223,14.1766856 12.8343884,21.5084378 12.0801759,21.5084378 C11.3275507,21.5084378 3.49004655,14.0547146 2.49424137,12.1484486 C0.902642002,9.22388476 1.96283016,5.56476314 4.75071743,4.05894884 C7.19121625,2.59345322 10.1725983,3.18468575 11.9581568,5.30691064 C13.7404342,3.32763642 16.675114,2.73804966 19.0889592,4.0379377 C21.9335127,5.49538948 23.0135959,9.06066762 21.6642253,12.1518912 Z M12.8577575,19.121539 C13.691541,18.3818457 14.6685007,17.4856752 15.6019727,16.5984745 C18.0533063,14.2686509 19.8411443,12.3523121 20.3196929,11.490551 C21.335277,9.15788121 20.5129991,6.4488804 18.3991632,5.36994334 C16.3475944,4.26142704 13.8005437,4.97740055 12.5781133,6.9740368 C12.2809722,7.45936731 11.5727608,7.4499419 11.2886409,6.95687552 C10.0668993,4.83664487 7.54832597,4.12867632 5.49340801,5.36173675 C3.41015227,6.48761393 2.61493011,9.23223487 3.81775029,11.4426423 C4.26222601,12.2933966 6.04058151,14.2002573 8.50541309,16.5443929 C9.4476681,17.4405083 10.437748,18.3499676 11.2832821,19.1017429 C11.5922735,19.3764711 11.8661738,19.6159439 12.0809216,19.7994763 C12.2910416,19.6203263 12.5575678,19.3878532 12.8577575,19.121539 Z" id="Shape" fill="#000000" fill-rule="nonzero"></path>
    </g>
</svg>