<?xml version="1.0" encoding="UTF-8"?>
<svg width="24px" height="24px" viewBox="0 0 24 24" version="1.1" xmlns="http://www.w3.org/2000/svg" xmlns:xlink="http://www.w3.org/1999/xlink">
    <!-- Generator: Sketch 51.2 (57519) - http://www.bohemiancoding.com/sketch -->
    <title>minus</title>
    <desc>Created with Sketch.</desc>
    <defs></defs>
    <g id="minus" stroke="none" stroke-width="1" fill="none" fill-rule="evenodd">
        <path d="M12,22.75 C6.06293894,22.75 1.25,17.9370611 1.25,12 C1.25,6.06293894 6.06293894,1.25 12,1.25 C17.9370611,1.25 22.75,6.06293894 22.75,12 C22.75,17.9370611 17.9370611,22.75 12,22.75 Z M12,21.25 C17.1086339,21.25 21.25,17.1086339 21.25,12 C21.25,6.89136606 17.1086339,2.75 12,2.75 C6.89136606,2.75 2.75,6.89136606 2.75,12 C2.75,17.1086339 6.89136606,21.25 12,21.25 Z" id="Oval-34" fill="#000000" fill-rule="nonzero"></path>
        <path d="M7.57996765,12.4924242 C7.16575408,12.4924242 6.82996765,12.1566378 6.82996765,11.7424242 C6.82996765,11.3282107 7.16575408,10.9924242 7.57996765,10.9924242 L16.8455412,10.9924242 C17.2597547,10.9924242 17.5955412,11.3282107 17.5955412,11.7424242 C17.5955412,12.1566378 17.2597547,12.4924242 16.8455412,12.4924242 L7.57996765,12.4924242 Z" id="Stroke-3" fill="#000000" fill-rule="nonzero"></path>
    </g>
</svg>