<?xml version="1.0" encoding="UTF-8"?>
<svg width="24px" height="24px" viewBox="0 0 24 24" version="1.1" xmlns="http://www.w3.org/2000/svg" xmlns:xlink="http://www.w3.org/1999/xlink">
    <!-- Generator: Sketch 52.3 (67297) - http://www.bohemiancoding.com/sketch -->
    <title>24hrs</title>
    <desc>Created with Sketch.</desc>
    <defs>
        <path d="M13.945,17.116 L11.324,17.117 L13.944,12.417 L13.945,17.116 Z M16.1420013,17.1149913 L14.9450046,17.1159913 L14.9430046,10.4939742 C14.9430046,10.2659736 14.789005,10.0669731 14.5690056,10.0089729 C14.3470062,9.95197279 14.1180068,10.050973 14.0060071,10.2509736 L10.0360177,17.373992 C9.94901796,17.5279924 9.95201795,17.7179929 10.0420177,17.8699933 C10.1310175,18.0229937 10.295017,18.1169939 10.4730166,18.1169939 L13.9450072,18.1159939 L13.9460072,19.9699987 C13.9460072,20.2459994 14.1700066,20.469 14.4460059,20.469 C14.7220052,20.469 14.9460046,20.2459994 14.9460046,19.9689987 L14.9450046,18.1159939 L16.1430013,18.1149939 C16.4190006,18.1149939 16.642,17.8919933 16.642,17.6149926 C16.642,17.3389919 16.4190006,17.1149913 16.1420013,17.1149913 L16.1420013,17.1149913 Z M9.04699986,19.4710022 C9.32299994,19.4710022 9.547,19.6940017 9.547,19.9710011 C9.547,20.2470005 9.32399994,20.471 9.04699986,20.471 L4.73899862,20.472 C4.55099857,20.472 4.37999852,20.3680002 4.2939985,20.2010006 C4.20799847,20.0350009 4.22299848,19.8350014 4.33099851,19.6820017 L7.55399943,15.1610114 C8.4929997,14.0180139 8.61899973,12.4480173 7.86199952,11.5570192 C7.39299938,11.0240203 6.7569992,10.8670207 6.13399902,11.1060202 C5.56799886,11.3240197 4.91099867,11.9360184 4.92199868,12.9510162 L4.92899868,13.5900148 C4.93199868,13.8660142 4.70999862,14.0920137 4.43399854,14.0950137 L4.42899854,14.0950137 C4.15599846,14.0950137 3.93199839,13.8750142 3.92899839,13.6000148 L3.92199839,12.9610162 C3.90799839,11.7040189 4.6359986,10.6100212 5.77599892,10.1720222 C6.79099921,9.78402302 7.86799952,10.0490224 8.58599973,10.8670207 C9.70200004,12.1780179 9.58400001,14.2670134 8.34699966,15.7690101 L5.7089989,19.4720022 L9.04699986,19.4710022 L9.04699986,19.4710022 Z M19.285,19.2419998 C19.285,21.3089997 17.604,22.9919996 15.5370001,22.9919996 L4.75200035,22.9949996 C2.6850004,22.9959996 1.00200045,21.3149997 1.00200045,19.2469998 L1.00000045,11.5810002 C0.999000446,9.51500035 2.6800004,7.83300045 4.74700035,7.83200045 L15.5330001,7.82900045 C17.6,7.82800045 19.282,9.51000035 19.283,11.5760002 L19.285,19.2419998 Z M12.9469985,1 C13.2529977,1 13.502997,1.25 13.502997,1.556 C13.503997,1.863 13.2539977,2.113 12.9469985,2.113 C12.6399993,2.113 12.39,1.863 12.39,1.557 C12.39,1.25 12.6399993,1 12.9469985,1 L12.9469985,1 Z M17.0170001,7.09000065 C16.9870001,7.03500065 16.9480001,6.98400066 16.8970001,6.94200066 L12.1650002,3.04600089 L12.2630002,2.9480009 C12.4700002,3.05000089 12.7010002,3.11300089 12.9470002,3.11300089 C13.8060002,3.11300089 14.5040002,2.41400093 14.5030002,1.55600098 C14.5030002,0.69800103 13.8050002,-0.000998928315 12.9460002,1.07162575e-06 C12.0880002,1.07162575e-06 11.3900002,0.69800103 11.3900002,1.55700098 C11.3900002,1.80300096 11.4530002,2.03400095 11.5560002,2.24100094 L9.85300028,3.94500084 C9.65800029,4.14000083 9.65800029,4.45700081 9.85300028,4.6520008 C9.95100028,4.75000079 10.0780003,4.79800079 10.2070003,4.79800079 C10.3340003,4.79800079 10.4620003,4.74900079 10.5600003,4.6520008 L11.4550002,3.75700085 L15.1860001,6.82900067 L5.09300041,6.83200067 L10.4570003,2.41200093 C10.6700003,2.23600094 10.7000003,1.92100096 10.5240003,1.70700097 C10.3470003,1.49600098 10.0330003,1.46400098 9.82000028,1.64000097 L3.38200045,6.94600066 C3.33200046,6.98800066 3.29300046,7.03900065 3.26300046,7.09400065 C1.37400051,7.72100061 -0.000999454874,9.48500051 5.4509949e-07,11.5820004 L0.00200054505,19.2479999 C0.00300054502,21.8659998 2.13400049,23.9959996 4.75200042,23.9949996 L15.5370001,23.9919996 C18.1560001,23.9909996 20.285,21.8599998 20.285,19.2419999 L20.283,11.5760004 C20.282,9.47900051 18.906,7.71600061 17.0170001,7.09000065 L17.0170001,7.09000065 Z" id="path-1"></path>
    </defs>
    <g id="24hrs" stroke="none" stroke-width="1" fill="none" fill-rule="evenodd">
        <g>
            <rect id="Rectangle" fill="#FF0000" opacity="0" x="0" y="0" width="24" height="24"></rect>
            <g id="icon/ui/open_24hrs_dark" transform="translate(2.000000, 0.000000)">
                <mask id="mask-2" fill="white">
                    <use xlink:href="#path-1"></use>
                </mask>
                <g id="open_24hrs"></g>
                <g id="Black-058%-(Secondary)" mask="url(#mask-2)" fill="#000000">
                    <g transform="translate(-14.000000, -12.000000)" id="Rectangle-435-Copy-4">
                        <rect x="0" y="0" width="48" height="48"></rect>
                    </g>
                </g>
            </g>
        </g>
    </g>
</svg>