<?xml version="1.0" encoding="UTF-8"?>
<svg width="24px" height="24px" viewBox="0 0 24 24" version="1.1" xmlns="http://www.w3.org/2000/svg" xmlns:xlink="http://www.w3.org/1999/xlink">
    <!-- Generator: Sketch 52.3 (67297) - http://www.bohemiancoding.com/sketch -->
    <title>add-money</title>
    <desc>Created with Sketch.</desc>
    <defs>
        <path d="M10.376,11.773 C10.376,11.497 10.152,11.273 9.876,11.273 L5.604,11.273 L5.604,7.026 C5.604,6.75 5.38,6.526 5.104,6.526 C4.827,6.526 4.604,6.75 4.604,7.026 L4.604,11.273 L0.5,11.273 C0.224,11.273 0,11.497 0,11.773 C0,12.049 0.224,12.273 0.5,12.273 L4.604,12.273 L4.604,16.357 C4.604,16.633 4.827,16.857 5.104,16.857 C5.38,16.857 5.604,16.633 5.604,16.357 L5.604,12.273 L9.876,12.273 C10.152,12.273 10.376,12.049 10.376,11.773 M21.881,13.789 C21.604,13.3 21.238,12.875 20.794,12.526 C20.365,12.19 19.863,11.904 19.302,11.675 C18.765,11.457 18.225,11.26 17.67,11.086 L16.336,10.742 L16.336,4.067 C16.336,3.791 16.112,3.567 15.836,3.567 C15.56,3.567 15.336,3.791 15.336,4.067 L15.336,10.483 C14.511,10.268 13.809,10.037 13.116,9.745 C12.641,9.551 12.286,9.35 11.931,9.071 C11.591,8.804 11.31,8.477 11.096,8.099 C10.891,7.74 10.786,7.293 10.786,6.769 C10.786,6.231 10.885,5.747 11.078,5.33 C11.274,4.909 11.546,4.539 11.886,4.231 C12.235,3.916 12.643,3.66 13.098,3.47 C13.564,3.276 14.075,3.145 14.562,3.084 L15.833,3.083 C15.834,3.083 15.835,3.084 15.836,3.084 C15.837,3.084 15.838,3.083 15.839,3.083 L16.462,3.083 C17.38,3.126 18.281,3.375 19.14,3.823 C19.98,4.264 20.658,4.9 21.154,5.715 C21.297,5.953 21.606,6.026 21.841,5.882 C22.077,5.739 22.151,5.431 22.008,5.196 C21.416,4.223 20.607,3.463 19.604,2.937 C18.614,2.42 17.573,2.133 16.485,2.084 L16.336,2.084 L16.336,0.5 C16.336,0.223 16.112,0 15.836,0 C15.56,0 15.336,0.223 15.336,0.5 L15.336,2.086 L14.503,2.087 C13.866,2.163 13.264,2.317 12.713,2.546 C12.153,2.78 11.649,3.097 11.215,3.489 C10.775,3.887 10.424,4.365 10.172,4.908 C9.916,5.459 9.786,6.085 9.786,6.769 C9.786,7.469 9.935,8.084 10.227,8.594 C10.504,9.085 10.87,9.509 11.313,9.858 C11.747,10.198 12.173,10.44 12.733,10.669 C13.539,11.008 14.354,11.272 15.336,11.516 L15.336,11.597 L15.336,18.249 C15.336,18.525 15.56,18.749 15.836,18.749 C16.112,18.749 16.336,18.525 16.336,18.249 L16.336,11.774 L17.395,12.047 C17.897,12.207 18.412,12.392 18.925,12.601 C19.4,12.795 19.821,13.035 20.177,13.313 C20.518,13.581 20.799,13.907 21.012,14.284 C21.217,14.642 21.32,15.09 21.32,15.615 C21.32,16.155 21.223,16.638 21.029,17.053 C20.834,17.474 20.562,17.844 20.222,18.153 C19.872,18.468 19.465,18.724 19.011,18.914 C18.545,19.107 18.031,19.239 17.545,19.3 L15.646,19.301 C14.726,19.257 13.824,19.008 12.967,18.559 C12.127,18.12 11.449,17.483 10.953,16.668 C10.81,16.429 10.5,16.356 10.267,16.501 C10.03,16.643 9.956,16.951 10.1,17.187 C10.691,18.161 11.5,18.92 12.503,19.446 C13.49,19.962 14.531,20.25 15.622,20.3 L17.605,20.296 C18.241,20.22 18.844,20.066 19.395,19.837 C19.954,19.604 20.458,19.287 20.893,18.894 C21.333,18.495 21.684,18.017 21.936,17.475 C22.19,16.927 22.32,16.301 22.32,15.615 C22.32,14.915 22.173,14.299 21.881,13.789 M16.336,21.052 L16.336,22.041 C16.336,22.317 16.112,22.541 15.836,22.541 C15.56,22.541 15.336,22.317 15.336,22.041 L15.336,21.052 C15.336,20.776 15.56,20.552 15.836,20.552 C16.112,20.552 16.336,20.776 16.336,21.052" id="path-1"></path>
    </defs>
    <g id="add-money" stroke="none" stroke-width="1" fill="none" fill-rule="evenodd">
        <g id="ui/add_money_24">
            <rect id="Rectangle" fill="#FF0000" opacity="0" x="0" y="0" width="24" height="24"></rect>
            <g id="icon/ui/add_money_dark" stroke-width="1" transform="translate(1.000000, 1.000000)">
                <mask id="mask-2" fill="white">
                    <use xlink:href="#path-1"></use>
                </mask>
                <g id="add_money"></g>
                <g id="Black-058%-(Secondary)" mask="url(#mask-2)" fill="#000000">
                    <g transform="translate(-13.000000, -13.000000)" id="Rectangle-435-Copy-4">
                        <rect x="0" y="0" width="48" height="48"></rect>
                    </g>
                </g>
            </g>
        </g>
    </g>
</svg>