<?xml version="1.0" encoding="UTF-8"?>
<svg width="24px" height="24px" viewBox="0 0 24 24" version="1.1" xmlns="http://www.w3.org/2000/svg" xmlns:xlink="http://www.w3.org/1999/xlink">
    <!-- Generator: Sketch 52.3 (67297) - http://www.bohemiancoding.com/sketch -->
    <title>add</title>
    <desc>Created with Sketch.</desc>
    <defs>
        <path d="M16.7407562,11.3712106 L12.5863271,11.3712106 L12.5863271,7.25977738 C12.5863271,6.81568529 12.2261401,6.4555 11.782046,6.4555 C11.3379518,6.4555 10.9777649,6.81568529 10.9777649,7.25977738 L10.9777649,11.3712106 L7.2592438,11.3712106 C6.83561482,11.3712106 6.4918,11.7150239 6.4918,12.1386509 C6.4918,12.5622779 6.83561482,12.9060911 7.2592438,12.9060911 L10.9777649,12.9060911 L10.9777649,16.7402226 C10.9777649,17.185338 11.3379518,17.5445 11.782046,17.5445 C12.2261401,17.5445 12.5863271,17.185338 12.5863271,16.7402226 L12.5863271,12.9060911 L16.7407562,12.9060911 C17.1643852,12.9060911 17.5082,12.5622779 17.5082,12.1386509 C17.5082,11.7150239 17.1643852,11.3712106 16.7407562,11.3712106 M12,2.5349 C6.78140432,2.5349 2.5349,6.78038107 2.5349,12 C2.5349,17.2185957 6.78140432,21.4651 12,21.4651 C17.2196189,21.4651 21.4651,17.2185957 21.4651,12 C21.4651,6.78038107 17.2196189,2.5349 12,2.5349 M12,23 C5.93516279,23 1,18.0658605 1,12 C1,5.93413953 5.93516279,1 12,1 C18.0658605,1 23,5.93413953 23,12 C23,18.0658605 18.0658605,23 12,23" id="path-1"></path>
    </defs>
    <g id="add" stroke="none" stroke-width="1" fill="none" fill-rule="evenodd">
        <g id="ui/add_circle_24">
            <g id="Group-2">
                <rect id="Bounds" fill="#FF0000" opacity="0" x="0" y="0" width="24" height="24"></rect>
                <mask id="mask-2" fill="white">
                    <use xlink:href="#path-1"></use>
                </mask>
                <g id="Mask"></g>
                <g id="Black-058%-(Secondary)" mask="url(#mask-2)" fill="#000000">
                    <g transform="translate(-12.000000, -12.000000)" id="Rectangle-435-Copy-4">
                        <rect x="0" y="0" width="48" height="48"></rect>
                    </g>
                </g>
            </g>
        </g>
    </g>
</svg>