<?xml version="1.0" encoding="UTF-8"?>
<svg width="24px" height="24px" viewBox="0 0 24 24" version="1.1" xmlns="http://www.w3.org/2000/svg" xmlns:xlink="http://www.w3.org/1999/xlink">
    <!-- Generator: Sketch 52.3 (67297) - http://www.bohemiancoding.com/sketch -->
    <title>airstream</title>
    <desc>Created with Sketch.</desc>
    <defs>
        <path d="M21.0037,7.88024218 C21.0037,4.14831425 17.9093772,0.9962 14.2462011,0.9962 L6.09894684,0.9962 C4.33759375,0.9962 2.905,2.45768913 2.905,4.25391605 L2.905,10.4904 L4.50496214,10.4904 C4.73708616,9.24011448 5.81800703,8.28870199 7.11710456,8.28870199 C8.32454797,8.28870199 9.33473577,9.11259532 9.65951016,10.2313767 L13.9951485,10.2313767 C14.3199229,9.11259532 15.3301107,8.28870199 16.5375541,8.28870199 C17.8366517,8.28870199 18.9185688,9.24011448 19.1496965,10.4904 L21.0037,10.4904 L21.0037,7.88024218 Z M18.2033,10.98855 C18.2033,10.0491069 17.456126,9.285 16.5376,9.285 C15.619074,9.285 14.8719,10.0491069 14.8719,10.98855 C14.8719,11.9279931 15.619074,12.6921 16.5376,12.6921 C17.456126,12.6921 18.2033,11.9279931 18.2033,10.98855 L18.2033,10.98855 Z M8.7828,10.98855 C8.7828,10.0491069 8.03562596,9.285 7.1171,9.285 C6.19857404,9.285 5.4514,10.0491069 5.4514,10.98855 C5.4514,11.9279931 6.19857404,12.6921 7.1171,12.6921 C8.03562596,12.6921 8.7828,11.9279931 8.7828,10.98855 L8.7828,10.98855 Z M22,7.88029432 L22,10.9885773 C22,11.2635408 21.7768419,11.4866996 21.5018793,11.4866996 L19.1497532,11.4866996 C18.9186252,12.7379827 17.836707,13.6884 16.5376081,13.6884 C15.15084,13.6884 14.0211022,12.6034897 13.8995607,11.227676 L9.7551963,11.227676 C9.63365485,12.6034897 8.50491328,13.6884 7.11714894,13.6884 C5.81805008,13.6884 4.73712811,12.7379827 4.50500385,11.4866996 L2.40691935,11.4866996 C2.13195671,11.4866996 1.90879862,11.2635408 1.90879862,10.9885773 L1.90879862,7.98788873 C1.9058099,7.98788873 1.90182493,7.98988122 1.89783997,7.98988122 L1.7713173,7.98988122 C1.29212516,7.98988122 0.996241453,8.40332271 0.996241453,8.78687686 L0.996241453,10.9885773 C0.996241453,11.2635408 0.773083367,11.4866996 0.498120726,11.4866996 C0.223158085,11.4866996 0,11.2635408 0,10.9885773 L0,8.78687686 C0,7.92412908 0.677444188,6.99363668 1.7713173,6.99363668 L1.89783997,6.99363668 C1.90182493,6.99363668 1.9058099,6.99562917 1.90879862,6.99662541 L1.90879862,4.25396419 C1.90879862,1.90880454 3.78870624,0 6.09899017,0 L14.2462528,0 C18.4493955,0 22,3.60839773 22,7.88029432 L22,7.88029432 Z M19.536275,5.59987089 C19.6508427,5.84992534 19.5412562,6.14580651 19.2911997,6.26136952 C19.2234553,6.29125651 19.1527222,6.3062 19.0839816,6.3062 C18.8946958,6.3062 18.7143762,6.19860685 18.6306919,6.0153 C17.7729284,4.14636712 16.001612,2.93893288 14.1187165,2.93893288 L13.343641,2.93893288 L13.343641,5.67857329 C13.343641,5.95353356 13.120483,6.17668973 12.8455205,6.17668973 C12.570558,6.17668973 12.3474,5.95353356 12.3474,5.67857329 L12.3474,2.44081644 C12.3474,2.16585616 12.570558,1.9427 12.8455205,1.9427 L14.1187165,1.9427 C16.3901459,1.9427 18.5161242,3.37827158 19.536275,5.59987089 L19.536275,5.59987089 Z" id="path-1"></path>
    </defs>
    <g id="airstream" stroke="none" stroke-width="1" fill="none" fill-rule="evenodd">
        <g id="ui/airstream_24">
            <rect id="Rectangle" fill="#FF0000" opacity="0" x="0" y="0" width="24" height="24"></rect>
            <g id="ui/airstream_dark" stroke-width="1" transform="translate(1.000000, 5.000000)">
                <mask id="mask-2" fill="white">
                    <use xlink:href="#path-1"></use>
                </mask>
                <g id="Mask"></g>
                <g id="Color/black_58" mask="url(#mask-2)" fill="#000000">
                    <g transform="translate(-13.000000, -17.000000)" id="Rectangle-435-Copy-4">
                        <rect x="0" y="0" width="48" height="48"></rect>
                    </g>
                </g>
            </g>
        </g>
    </g>
</svg>