<?xml version="1.0" encoding="UTF-8"?>
<svg width="48px" height="48px" viewBox="0 0 48 48" version="1.1" xmlns="http://www.w3.org/2000/svg" xmlns:xlink="http://www.w3.org/1999/xlink">
    <!-- Generator: Sketch 54.1 (76490) - https://sketchapp.com -->
    <title>bag-full</title>
    <desc>Created with Sketch.</desc>
    <g id="bag-full" stroke="none" stroke-width="1" fill="none" fill-rule="evenodd">
        <g id="ui/shopping-bag_full" transform="translate(8.000000, 8.000000)">
            <g id="Group">
                <path d="M5.8458278,6 L26.1541722,6 C27.4914503,6 27.9763797,6.13923842 28.4652686,6.40069906 C28.9541574,6.66215969 29.3378403,7.04584256 29.5993009,7.53473144 C29.8607616,8.02362033 30,8.50854969 30,9.8458278 L30,27.1541722 C30,28.4914503 29.8607616,28.9763797 29.5993009,29.4652686 C29.3378403,29.9541574 28.9541574,30.3378403 28.4652686,30.5993009 C27.9763797,30.8607616 27.4914503,31 26.1541722,31 L5.8458278,31 C4.50854969,31 4.02362033,30.8607616 3.53473144,30.5993009 C3.04584256,30.3378403 2.66215969,29.9541574 2.40069906,29.4652686 C2.13923842,28.9763797 2,28.4914503 2,27.1541722 L2,9.8458278 C2,8.50854969 2.13923842,8.02362033 2.40069906,7.53473144 C2.66215969,7.04584256 3.04584256,6.66215969 3.53473144,6.40069906 C4.02362033,6.13923842 4.50854969,6 5.8458278,6 Z" id="Rectangle" fill="#00A862"></path>
                <path d="M16,10.8 C18.7931782,10.8 21,8.75080832 21,6.29999995 C21,3.84919159 18.7931782,1.79999995 16,1.79999995 C13.2068218,1.79999995 11,3.84919159 11,6.29999995 C11,8.75080832 13.2068218,10.8 16,10.8 Z M16,13 C12.1340068,13 9,10.0898509 9,6.5 C9,2.91014913 12.1340068,0 16,0 C19.8659932,0 23,2.91014913 23,6.5 C23,10.0898509 19.8659932,13 16,13 Z" id="Oval-3" fill="#00A862" fill-rule="nonzero"></path>
                <text id="Number-of-items" font-family="AvenirNext-DemiBold, Avenir Next" font-size="18" font-weight="500" line-spacing="24" fill="#FFFFFF">
                    <tspan x="10.5" y="25">2</tspan>
                </text>
            </g>
        </g>
    </g>
</svg>