<?xml version="1.0" encoding="UTF-8"?>
<svg width="24px" height="24px" viewBox="0 0 24 24" version="1.1" xmlns="http://www.w3.org/2000/svg" xmlns:xlink="http://www.w3.org/1999/xlink">
    <!-- Generator: Sketch 52.3 (67297) - http://www.bohemiancoding.com/sketch -->
    <title>bus</title>
    <desc>Created with Sketch.</desc>
    <defs>
        <path d="M19.517162,5.1562 L2.48293797,5.1562 C2.19932434,5.1562 1.971,4.927944 1.971,4.6467 C1.971,4.365456 2.19932434,4.1372 2.48293797,4.1372 L19.517162,4.1372 C19.7997518,4.1372 20.0291,4.365456 20.0291,4.6467 C20.0291,4.927944 19.7997518,5.1562 19.517162,5.1562 L19.517162,5.1562 Z M20.9762,11.5557 L18.9929494,11.5557 C18.7523382,10.1810377 17.5677119,9.13042476 16.138379,9.13042476 C14.8114338,9.13042476 13.7015507,10.0404125 13.3554801,11.2703735 L8.5043487,11.2703735 C8.15827812,10.0404125 7.04839496,9.13042476 5.72042589,9.13042476 C4.29109296,9.13042476 3.10646675,10.1810377 2.86585554,11.5557 L1.0239,11.5557 L1.0239,1.79345764 C1.0239,1.35935375 1.3556363,1.019 1.77849769,1.019 L19.6584697,1.019 C20.3608496,1.019 20.9762,1.64773732 20.9762,2.36411064 L20.9762,11.5557 Z M16.1383381,13.981 C15.1011639,13.981 14.2575,13.1219695 14.2575,12.06525 C14.2575,11.0095495 15.1011639,10.1495 16.1383381,10.1495 C17.1755122,10.1495 18.0202,11.0095495 18.0202,12.06525 C18.0202,13.1219695 17.1755122,13.981 16.1383381,13.981 L16.1383381,13.981 Z M5.7204,13.981 C4.68320484,13.981 3.8385,13.1219695 3.8385,12.06525 C3.8385,11.0095495 4.68320484,10.1495 5.7204,10.1495 C6.75759516,10.1495 7.6023,11.0095495 7.6023,12.06525 C7.6023,13.1219695 6.75759516,13.981 5.7204,13.981 L5.7204,13.981 Z M19.6583981,0 L1.7784707,0 C0.797598548,0 0,0.805027174 0,1.79347826 L0,12.0652174 C0,12.3474864 0.228324103,12.5747283 0.511937451,12.5747283 L2.86582585,12.5747283 C3.10643645,13.9504076 4.29105971,15 5.72038907,15 C7.24698655,15 8.48792293,13.8016304 8.60362079,12.2894022 L13.2561083,12.2894022 C13.3707823,13.8016304 14.6127426,15 16.1383162,15 C17.5676456,15 18.7522688,13.9504076 18.9928794,12.5747283 L21.4880625,12.5747283 C21.7716759,12.5747283 22,12.3474864 22,12.0652174 L22,2.36413043 C22,1.08322011 20.928003,0 19.6583981,0 L19.6583981,0 Z" id="path-1"></path>
    </defs>
    <g id="bus" stroke="none" stroke-width="1" fill="none" fill-rule="evenodd">
        <g id="ui/transportation_bus_24">
            <rect id="Rectangle" fill="#FF0000" opacity="0" x="0" y="0" width="24" height="24"></rect>
            <g id="icon/ui/bus_dark" stroke-width="1" transform="translate(1.000000, 5.000000)">
                <mask id="mask-2" fill="white">
                    <use xlink:href="#path-1"></use>
                </mask>
                <g id="Mask"></g>
                <g id="Black-058%-(Secondary)" mask="url(#mask-2)" fill="#000000">
                    <g transform="translate(-13.000000, -17.000000)" id="Rectangle-435-Copy-4">
                        <rect x="0" y="0" width="48" height="48"></rect>
                    </g>
                </g>
            </g>
        </g>
    </g>
</svg>