<?xml version="1.0" encoding="UTF-8"?>
<svg width="24px" height="24px" viewBox="0 0 24 24" version="1.1" xmlns="http://www.w3.org/2000/svg" xmlns:xlink="http://www.w3.org/1999/xlink">
    <!-- Generator: Sketch 52.3 (67297) - http://www.bohemiancoding.com/sketch -->
    <title>check</title>
    <desc>Created with Sketch.</desc>
    <defs>
        <path d="M6.74363109,15.8852001 L0.181636891,10.4482049 C-0.0313629205,10.271205 -0.061362894,9.9562053 0.11463695,9.74420549 C0.291636794,9.53220567 0.606636515,9.5012057 0.818636328,9.67720554 L6.96763089,14.7722011 L17.3426217,0.210213846 C17.5026216,-0.014785957 17.8146213,-0.0677859105 18.0406211,0.0932139483 C18.2656209,0.253213808 18.3176209,0.565213534 18.157621,0.790213337 L7.46963045,15.7902002 C7.38963052,15.9032001 7.26563063,15.9782 7.12763075,15.9962 C7.10563077,15.9992 7.08363079,16.0002 7.06263081,16.0002 C6.94663091,16.0002 6.83363101,15.9602 6.74363109,15.8852001 Z" id="path-1"></path>
    </defs>
    <g id="check" stroke="none" stroke-width="1" fill="none" fill-rule="evenodd">
        <g id="ui/check_24">
            <rect id="Rectangle-3" fill="#FF0000" opacity="0" x="0" y="0" width="24" height="24"></rect>
            <g id="icon/ui/check_dark" stroke-width="1" transform="translate(3.000000, 4.000000)">
                <mask id="mask-2" fill="white">
                    <use xlink:href="#path-1"></use>
                </mask>
                <g id="Mask"></g>
                <g id="Black-058%-(Secondary)" mask="url(#mask-2)" fill="#000000">
                    <g transform="translate(-15.000000, -16.000000)" id="Rectangle-435-Copy-4">
                        <rect x="0" y="0" width="48" height="48"></rect>
                    </g>
                </g>
            </g>
        </g>
    </g>
</svg>