<?xml version="1.0" encoding="UTF-8"?>
<svg width="24px" height="24px" viewBox="0 0 24 24" version="1.1" xmlns="http://www.w3.org/2000/svg" xmlns:xlink="http://www.w3.org/1999/xlink">
    <!-- Generator: Sketch 52.3 (67297) - http://www.bohemiancoding.com/sketch -->
    <title>external-link</title>
    <desc>Created with Sketch.</desc>
    <defs>
        <path d="M8.75,12 L1.875,12 C0.8395,12 0,11.1605 0,10.125 L0,3.25 C0,2.2145 0.8395,1.375 1.875,1.375 L6.9845,1.375 C7.2605,1.375 7.4845,1.599 7.4845,1.875 C7.4845,2.151 7.2605,2.375 6.9845,2.375 L1.875,2.375 C1.392,2.375 1,2.767 1,3.25 L1,10.125 C1,10.608 1.392,11 1.875,11 L8.75,11 C9.233,11 9.625,10.608 9.625,10.125 L9.625,5 C9.625,4.724 9.849,4.5 10.125,4.5 C10.401,4.5 10.625,4.724 10.625,5 L10.625,10.125 C10.625,11.1605 9.7855,12 8.75,12 Z M8,0.5 C8,0.224 8.224,0 8.5,0 L11.5,0 C11.776,0 12,0.224 12,0.5 L12,3.5 C12,3.776 11.776,4 11.5,4 C11.224,4 11,3.776 11,3.5 L11,1.7215 L6.3415,6.4595 C6.148,6.6565 5.8315,6.659 5.635,6.4655 C5.438,6.272 5.435,5.9555 5.629,5.7585 L10.3075,1 L8.5,1 C8.224,1 8,0.776 8,0.5 Z" id="path-1"></path>
    </defs>
    <g id="external-link" stroke="none" stroke-width="1" fill="none" fill-rule="evenodd">
        <g id="ui/external_link_24">
            <rect id="Rectangle" fill="#FF0000" opacity="0" x="0" y="0" width="24" height="24"></rect>
            <g id="ui/external_link" stroke-width="1" transform="translate(6.000000, 6.000000)">
                <g id="Color/black_58">
                    <mask id="mask-2" fill="white">
                        <use xlink:href="#path-1"></use>
                    </mask>
                    <g id="Mask"></g>
                    <g mask="url(#mask-2)" fill="#000000" id="Rectangle-435-Copy-4">
                        <g transform="translate(-44.000000, -44.000000)">
                            <rect x="0" y="0" width="100" height="100"></rect>
                        </g>
                    </g>
                </g>
            </g>
        </g>
    </g>
</svg>