<?xml version="1.0" encoding="UTF-8"?>
<svg width="24px" height="24px" viewBox="0 0 24 24" version="1.1" xmlns="http://www.w3.org/2000/svg" xmlns:xlink="http://www.w3.org/1999/xlink">
    <!-- Generator: Sketch 52.3 (67297) - http://www.bohemiancoding.com/sketch -->
    <title>hamburger</title>
    <desc>Created with Sketch.</desc>
    <defs>
        <path d="M2,12.875 C1.51675084,12.875 1.125,12.4832492 1.125,12 C1.125,11.5167508 1.51675084,11.125 2,11.125 L22,11.125 C22.4832492,11.125 22.875,11.5167508 22.875,12 C22.875,12.4832492 22.4832492,12.875 22,12.875 L2,12.875 Z M2,5.875 C1.51675084,5.875 1.125,5.48324916 1.125,5 C1.125,4.51675084 1.51675084,4.125 2,4.125 L22,4.125 C22.4832492,4.125 22.875,4.51675084 22.875,5 C22.875,5.48324916 22.4832492,5.875 22,5.875 L2,5.875 Z M2,19.875 C1.51675084,19.875 1.125,19.4832492 1.125,19 C1.125,18.5167508 1.51675084,18.125 2,18.125 L22,18.125 C22.4832492,18.125 22.875,18.5167508 22.875,19 C22.875,19.4832492 22.4832492,19.875 22,19.875 L2,19.875 Z" id="path-1"></path>
    </defs>
    <g id="hamburger" stroke="none" stroke-width="1" fill="none" fill-rule="evenodd">
        <g id="ui/hamburger_24">
            <g id="Hamburger">
                <rect id="Rectangle" fill="#FF0000" opacity="0" x="0" y="0" width="24" height="24"></rect>
                <mask id="mask-2" fill="white">
                    <use xlink:href="#path-1"></use>
                </mask>
                <g id="Combined-Shape" fill-rule="nonzero"></g>
                <g id="Black-058%-(Secondary)" mask="url(#mask-2)" fill="#000000">
                    <g transform="translate(-12.000000, -12.000000)" id="Rectangle-435-Copy-4">
                        <rect x="0" y="0" width="48" height="48"></rect>
                    </g>
                </g>
            </g>
        </g>
    </g>
</svg>