<?xml version="1.0" encoding="UTF-8"?>
<svg width="24px" height="24px" viewBox="0 0 24 24" version="1.1" xmlns="http://www.w3.org/2000/svg" xmlns:xlink="http://www.w3.org/1999/xlink">
    <!-- Generator: Sketch 52.3 (67297) - http://www.bohemiancoding.com/sketch -->
    <title>heart</title>
    <desc>Created with Sketch.</desc>
    <defs>
        <path d="M7.73836345,4.4794 C7.02736551,4.4794 6.32136755,4.6784 5.6823694,5.0654 C4.68737228,5.6104 3.97537434,6.5124 3.64937528,7.6224 C3.31037626,8.7774 3.43937589,10.0004 4.01337423,11.0664 C4.88237172,12.7474 10.4603556,17.9354 12.0783509,19.3204 C13.6763463,17.9534 19.1613304,12.8614 20.1423276,11.0624 C21.1143248,8.8004 20.2923271,6.1494 18.2403331,5.0904 C18.2343331,5.0874 18.2303331,5.0854 18.2253331,5.0834 C16.2443389,4.0004 13.758346,4.6994 12.5633495,6.6714 C12.4283499,6.8944 12.1983506,7.0264 11.9303513,7.0244 C11.6713521,7.0214 11.4343528,6.8804 11.3063531,6.6544 C10.7133549,5.6164 9.79135752,4.8884 8.70936065,4.6054 C8.38836157,4.5214 8.06336251,4.4794 7.73836345,4.4794 M12.0773575,20.9994 C11.1093572,20.9994 3.48935468,13.2473975 2.72235442,11.762397 C1.96735418,10.3593965 1.79635412,8.73539598 2.24635427,7.20239547 C2.68535441,5.71239498 3.64735473,4.49739459 4.95835516,3.78139435 C6.19935557,3.0263941 7.67335605,2.80639403 9.07635651,3.17439415 C10.2053569,3.46939425 11.2003572,4.11439446 11.9583575,5.02739476 C13.702358,3.06939412 16.570359,2.50139393 18.9133597,3.77739435 C21.6463606,5.19339481 22.761361,8.67739596 21.4543606,11.715397 C20.3063602,13.8263976 12.8053577,20.9994 12.0773575,20.9994" id="path-1"></path>
    </defs>
    <g id="heart" stroke="none" stroke-width="1" fill="none" fill-rule="evenodd">
        <g id="ui/favorite_deselected_24">
            <g id="fav">
                <rect id="Bounds" fill="#FF0000" opacity="0" x="0" y="0" width="24" height="24"></rect>
                <mask id="mask-2" fill="white">
                    <use xlink:href="#path-1"></use>
                </mask>
                <g id="Mask"></g>
                <g id="Black-058%-(Secondary)" fill="#D8D8D8" mask="url(#mask-2)">
                    <g transform="translate(-12.000000, -12.000000)" fill="#000000" id="Rectangle-435-Copy-4">
                        <rect x="0" y="0" width="48" height="48"></rect>
                    </g>
                </g>
            </g>
        </g>
    </g>
</svg>