<?xml version="1.0" encoding="UTF-8"?>
<svg width="24px" height="24px" viewBox="0 0 24 24" version="1.1" xmlns="http://www.w3.org/2000/svg" xmlns:xlink="http://www.w3.org/1999/xlink">
    <!-- Generator: Sketch 52.3 (67297) - http://www.bohemiancoding.com/sketch -->
    <title>lock</title>
    <desc>Created with Sketch.</desc>
    <defs>
        <path d="M10.0029,6.4874 L4.71721213,6.4874 L2.9484,6.4874 L2.9484,4.45452278 C2.9484,2.62108621 4.59687066,1.0124 6.47565,1.0124 C8.35442934,1.0124 10.0029,2.62108621 10.0029,4.45452278 L10.0029,6.4874 Z M4.4765,14.4771 L5.25457692,11.2881081 C5.09896154,11.1362514 4.94334615,10.6806811 4.94334615,10.3769676 C4.94334615,9.46582703 5.56580769,8.8584 6.4995,8.8584 C7.43319231,8.8584 8.05565385,9.61768378 8.05565385,10.3769676 C8.05565385,10.6806811 7.90003846,10.9843946 7.74442308,11.2881081 L8.5225,14.4771 L4.4765,14.4771 Z M12.2499401,6.48737494 L12.1752454,6.48737494 L12.1264863,6.48737494 L11.0403001,6.48737494 L11.0403001,4.45450214 C11.0403001,2.0399595 8.94988429,0 6.47562046,0 C4.00135664,0 1.91094087,2.0399595 1.91094087,4.45450214 L1.91094087,6.48737494 L0.873513686,6.48737494 C0.335088979,6.48737494 0,6.81437589 0,7.33980467 L0,16.1475703 C0,16.6740114 0.335088979,17 0.873513686,17 L4.71718139,17 L12.0777272,17 L12.1264863,17 C12.664911,17 13,16.6740114 13,16.1475703 L13,7.33980467 C13,6.85892091 12.7105578,6.5369819 12.2499401,6.48737494 L12.2499401,6.48737494 Z" id="path-1"></path>
    </defs>
    <g id="lock" stroke="none" stroke-width="1" fill="none" fill-rule="evenodd">
        <g id="ui/locked_fill_24">
            <rect id="Rectangle" fill="#FF0000" opacity="0" x="0" y="0" width="24" height="24"></rect>
            <g id="icon/ui/locked_fill_dark" stroke-width="1" transform="translate(6.000000, 4.000000)">
                <mask id="mask-2" fill="white">
                    <use xlink:href="#path-1"></use>
                </mask>
                <g id="locked_fill"></g>
                <g id="Black-058%-(Secondary)" mask="url(#mask-2)" fill="#000000">
                    <g transform="translate(-18.000000, -16.000000)" id="Rectangle-435-Copy-4">
                        <rect x="0" y="0" width="48" height="48"></rect>
                    </g>
                </g>
            </g>
        </g>
    </g>
</svg>