<?xml version="1.0" encoding="UTF-8"?>
<svg width="24px" height="24px" viewBox="0 0 24 24" version="1.1" xmlns="http://www.w3.org/2000/svg" xmlns:xlink="http://www.w3.org/1999/xlink">
    <!-- Generator: Sketch 52.3 (67297) - http://www.bohemiancoding.com/sketch -->
    <title>password-manager</title>
    <desc>Created with Sketch.</desc>
    <defs>
        <path d="M5.50658347,20.6588319 C6.35526834,20.9145255 7.17008098,20.1734019 6.99652884,19.3040091 L6.75169822,18.0796681 L7.87287559,18.412749 C8.78701282,18.6848137 9.62680371,17.8104315 9.31879559,16.9076303 L8.87218901,15.5989276 L11.9538357,12.5169893 L13.115694,11.355131 C13.3109562,11.1598688 13.3109562,10.8432863 13.115694,10.6480242 C12.9204319,10.4527621 12.6038494,10.4527621 12.4085872,10.6480242 L11.2467122,11.8098992 L7.9448205,15.1121034 C7.81001,15.2469267 7.76360859,15.4466832 7.82518613,15.6271254 L8.37237363,17.2305629 C8.4181374,17.3647009 8.293415,17.4945607 8.15789242,17.4542266 L6.24109316,16.8847812 C5.88006676,16.7775269 5.53455929,17.0928115 5.6084099,17.4621212 L6.0159099,19.4999337 C6.04172054,19.6292298 5.92078882,19.7392248 5.79481506,19.7012712 L3.74019778,19.0833858 C3.41932246,18.9868889 3.09620312,19.2271315 3.09620312,19.5622026 L3.09620312,19.6034526 C3.09620312,20.2217589 2.34851789,20.5314731 1.91131902,20.0942742 C1.62095616,19.8039113 1.62095616,19.3333063 1.91131902,19.0429435 L11.357569,9.59669348 C11.5528312,9.40143134 11.5528312,9.08484885 11.357569,8.8895867 C11.1623069,8.69432455 10.8457244,8.69432455 10.6504622,8.8895867 L1.20421223,18.3358367 C0.523325089,19.0167238 0.523325089,20.1204938 1.20421223,20.801381 C2.1183405,21.7155092 3.58839314,21.291966 3.99123102,20.2031197 L5.50658347,20.6588319 Z M11.4302943,8.98223772 C10.9735774,8.23680839 10.7283281,7.38046168 10.7283281,6.48814009 C10.7283281,3.84792004 12.8770829,1.69907759 15.5173906,1.69907759 C18.1574983,1.69907759 20.3064531,3.84803247 20.3064531,6.48814009 C20.3064531,9.12851639 18.1575421,11.2775151 15.5173906,11.2775151 C14.6251495,11.2775151 13.7691115,11.0323128 13.0236055,10.5755489 C12.7881438,10.4312839 12.4803144,10.5052135 12.3360495,10.7406752 C12.1917845,10.9761369 12.265714,11.2839663 12.5011758,11.4282313 C13.4027142,11.9805947 14.4393081,12.2775151 15.5173906,12.2775151 C18.709836,12.2775151 21.3064531,9.68079201 21.3064531,6.48814009 C21.3064531,3.29574772 18.709783,0.699077591 15.5173906,0.699077591 C12.324789,0.699077591 9.72832812,3.29564442 9.72832812,6.48814009 C9.72832812,7.56628716 10.0252877,8.60319282 10.577612,9.50466746 C10.7218769,9.74012919 11.0297063,9.81405875 11.265168,9.66979376 C11.5006297,9.52552877 11.5745593,9.21769945 11.4302943,8.98223772 Z M17.9007969,4.85001509 C17.9007969,4.30909422 17.4622788,3.87064009 16.9214219,3.87064009 C16.3803767,3.87064009 15.9420469,4.30896997 15.9420469,4.85001509 C15.9420469,5.39106022 16.3803767,5.82939009 16.9214219,5.82939009 C17.4622788,5.82939009 17.9007969,5.39093596 17.9007969,4.85001509 Z M18.9007969,4.85001509 C18.9007969,5.94325338 18.0145309,6.82939009 16.9214219,6.82939009 C15.828092,6.82939009 14.9420469,5.94334497 14.9420469,4.85001509 C14.9420469,3.75668522 15.828092,2.87064009 16.9214219,2.87064009 C18.0145309,2.87064009 18.9007969,3.7567768 18.9007969,4.85001509 Z M6.63554687,4.35004634 L6.63554687,5.35004634 C5.40887675,5.35004634 4.41460937,6.34431372 4.41460937,7.57098384 L3.41460937,7.57098384 C3.41460937,6.34431372 2.420342,5.35004634 1.19367187,5.35004634 L1.19367187,4.35004634 C2.420342,4.35004634 3.41460937,3.35577897 3.41460937,2.12910884 L4.41460937,2.12910884 C4.41460937,3.35577897 5.40887675,4.35004634 6.63554687,4.35004634 Z M4.41460937,7.57098384 C4.41460937,8.23765051 3.41460937,8.23765051 3.41460937,7.57098384 C3.41460937,6.93660489 3.59797912,6.34507703 3.91460937,5.84650949 C4.23123963,6.34507703 4.41460937,6.93660489 4.41460937,7.57098384 Z M1.19367187,5.35004634 C0.527005208,5.35004634 0.527005208,4.35004634 1.19367187,4.35004634 C1.82805082,4.35004634 2.41957869,4.53341609 2.91814623,4.85004634 C2.41957869,5.16667659 1.82805082,5.35004634 1.19367187,5.35004634 Z M3.41460937,2.12910884 C3.41460937,1.46244217 4.41460937,1.46244217 4.41460937,2.12910884 C4.41460937,2.76348779 4.23123963,3.35501565 3.91460937,3.85358319 C3.59797912,3.35501565 3.41460937,2.76348779 3.41460937,2.12910884 Z M6.63554687,4.35004634 C7.30221354,4.35004634 7.30221354,5.35004634 6.63554687,5.35004634 C6.00116793,5.35004634 5.40964006,5.16667659 4.91107252,4.85004634 C5.40964006,4.53341609 6.00116793,4.35004634 6.63554687,4.35004634 Z M3.91460938,3.85358319 C3.65996064,4.25455434 3.31911737,4.5953976 2.91814623,4.85004634 C3.31911737,5.10469508 3.65996064,5.44553835 3.91460937,5.84650949 C4.16925811,5.44553835 4.51010138,5.10469508 4.91107252,4.85004634 C4.51010138,4.5953976 4.16925811,4.25455434 3.91460938,3.85358319 Z M17.2136094,16.3002963 L17.2136094,17.3002963 C16.4360017,17.3002963 15.8057969,17.9305012 15.8057969,18.7081088 L14.8057969,18.7081088 C14.8057969,17.9305861 14.1753644,17.3002963 13.3976719,17.3002963 L13.3976719,16.3002963 C14.1753644,16.3002963 14.8057969,15.6700065 14.8057969,14.8924838 L15.8057969,14.8924838 C15.8057969,15.6700915 16.4360017,16.3002963 17.2136094,16.3002963 Z M15.8057969,18.7081088 C15.8057969,19.3747755 14.8057969,19.3747755 14.8057969,18.7081088 C14.8057969,18.1550028 14.9922503,17.6454816 15.3057378,17.2389649 C15.6192908,17.6454861 15.8057969,18.1550104 15.8057969,18.7081088 Z M13.3976719,17.3002963 C12.7310052,17.3002963 12.7310052,16.3002963 13.3976719,16.3002963 C13.9508208,16.3002963 14.4604225,16.486775 14.8670107,16.8002963 C14.4604225,17.1138177 13.9508208,17.3002963 13.3976719,17.3002963 Z M14.8057969,14.8924838 C14.8057969,14.2258172 15.8057969,14.2258172 15.8057969,14.8924838 C15.8057969,15.4455823 15.6192908,15.9551066 15.3057378,16.3616278 C14.9922503,15.9551111 14.8057969,15.4455899 14.8057969,14.8924838 Z M17.2136094,16.3002963 C17.880276,16.3002963 17.880276,17.3002963 17.2136094,17.3002963 C16.6604686,17.3002963 16.1509182,17.1138195 15.7443889,16.8002963 C16.1509182,16.4867732 16.6604686,16.3002963 17.2136094,16.3002963 Z M15.3057378,16.3616278 C15.1789562,16.5260001 15.0314036,16.6735325 14.8670107,16.8002963 C15.0314036,16.9270602 15.1789562,17.0745925 15.3057378,17.2389649 C15.4324948,17.074592 15.5800212,16.9270598 15.7443889,16.8002963 C15.5800212,16.6735329 15.4324948,16.5260007 15.3057378,16.3616278 Z" id="path-1"></path>
    </defs>
    <g id="password-manager" stroke="none" stroke-width="1" fill="none" fill-rule="evenodd">
        <g id="ui/password_manager_24">
            <rect id="Rectangle" fill="#FF0000" opacity="0" x="0" y="0" width="24" height="24"></rect>
            <g id="Icons/PasswordManagers" stroke-width="1" transform="translate(1.000000, 1.000000)">
                <mask id="mask-2" fill="white">
                    <use xlink:href="#path-1"></use>
                </mask>
                <g id="Mask" fill-rule="nonzero"></g>
                <g id="Black-058%-(Secondary)" mask="url(#mask-2)" fill="#000000">
                    <g transform="translate(-13.000000, -13.000000)" id="Rectangle-435-Copy-4">
                        <rect x="0" y="0" width="48" height="48"></rect>
                    </g>
                </g>
            </g>
        </g>
    </g>
</svg>