<?xml version="1.0" encoding="UTF-8"?>
<svg width="24px" height="24px" viewBox="0 0 24 24" version="1.1" xmlns="http://www.w3.org/2000/svg" xmlns:xlink="http://www.w3.org/1999/xlink">
    <!-- Generator: Sketch 52.3 (67297) - http://www.bohemiancoding.com/sketch -->
    <title>show-password-off</title>
    <desc>Created with Sketch.</desc>
    <defs>
        <path d="M12.1288,4.9698 C10.9654659,4.9698 10.0194,5.9158659 10.0194,7.0792 C10.0194,8.2425341 10.9654659,9.1886 12.1288,9.1886 C13.2921341,9.1886 14.2382,8.2425341 14.2382,7.0792 C14.2382,5.9158659 13.2921341,4.9698 12.1288,4.9698 M12.1288,10.2433 C10.3843262,10.2433 8.9647,8.8236738 8.9647,7.0792 C8.9647,5.3347262 10.3843262,3.9151 12.1288,3.9151 C13.8732738,3.9151 15.2929,5.3347262 15.2929,7.0792 C15.2929,8.8236738 13.8732738,10.2433 12.1288,10.2433 M1.2137,7.1086953 C2.33484719,8.40914411 6.79306841,13.1648 11.9990726,13.1648 C17.2050769,13.1648 21.6643528,8.40914411 22.7855,7.10975 C21.6643528,5.80930118 17.2050769,1.0547 11.9990726,1.0547 C6.7856855,1.0547 2.33273778,5.80930118 1.2137,7.1086953 M11.9990771,14.2195 C5.48102086,14.2195 0.327748542,7.71093046 0.111534701,7.43354369 C-0.0371782336,7.24369723 -0.0371782336,6.97580277 0.111534701,6.78490161 C0.327748542,6.50751483 5.48102086,0 11.9990771,0 C18.5181881,0 23.6714604,6.50751483 23.8876743,6.78490161 C24.0374419,6.97580277 24.0374419,7.24369723 23.8876743,7.43354369 C23.6714604,7.71093046 18.5181881,14.2195 11.9990771,14.2195" id="path-1"></path>
    </defs>
    <g id="show-password-off" stroke="none" stroke-width="1" fill="none" fill-rule="evenodd">
        <g id="ui/show_password_on_24">
            <rect id="Rectangle" fill="#FF0000" opacity="0" x="0" y="0" width="24" height="24"></rect>
            <g id="password_off" stroke-width="1" transform="translate(0.000000, 5.000000)">
                <mask id="mask-2" fill="white">
                    <use xlink:href="#path-1"></use>
                </mask>
                <g id="password_show"></g>
                <g id="Black-058%-(Secondary)" mask="url(#mask-2)" fill="#000000">
                    <g transform="translate(-12.000000, -17.000000)" id="Rectangle-435-Copy-4">
                        <rect x="0" y="0" width="48" height="48"></rect>
                    </g>
                </g>
            </g>
        </g>
    </g>
</svg>