<?xml version="1.0" encoding="UTF-8"?>
<svg width="48px" height="48px" viewBox="0 0 48 48" version="1.1" xmlns="http://www.w3.org/2000/svg" xmlns:xlink="http://www.w3.org/1999/xlink">
    <!-- Generator: Sketch 52.6 (67491) - http://www.bohemiancoding.com/sketch -->
    <title>small-star</title>
    <desc>Created with Sketch.</desc>
    <g id="small-star" stroke="none" stroke-width="1" fill="none" fill-rule="evenodd">
        <rect id="Rectangle" x="0" y="0" width="48" height="48"></rect>
        <path d="M23.5043825,16.3786667 L21.8647875,21.7066667 L16.5223897,21.6944762 C16.2953454,21.6944762 16.0957293,21.8468571 16.0256351,22.072381 C15.9555408,22.2971429 16.0324921,22.544 16.2161085,22.6826667 L20.5444259,25.9634286 L18.882736,31.2845714 C18.8126418,31.5100952 18.8888312,31.7569524 19.0716856,31.896381 C19.1631128,31.9657143 19.2705398,32 19.3779668,32 C19.4861557,32 19.5935827,31.9657143 19.68501,31.895619 L24.0003752,28.5950476 L28.3149786,31.895619 C28.4064058,31.9657143 28.5145947,32 28.6220217,32 C28.7294487,32 28.8368757,31.9657143 28.9283029,31.896381 C29.1111574,31.7569524 29.1881086,31.5100952 29.1172525,31.2845714 L27.4555626,25.9634286 L31.784642,22.6826667 C31.9674964,22.544 32.0444477,22.2971429 31.9743535,22.072381 C31.9050212,21.8468571 31.7046432,21.6944762 31.4791227,21.6944762 L26.1359629,21.7066667 L24.4956061,16.3786667 C24.4262737,16.1531429 24.2258957,16 24.0003752,16 C23.7740928,16 23.5737148,16.1531429 23.5043825,16.3786667" id="Fill-1-Copy" fill="#D2A04A"></path>
    </g>
</svg>