<?xml version="1.0" encoding="UTF-8"?>
<svg width="22px" height="22px" viewBox="0 0 22 22" version="1.1" xmlns="http://www.w3.org/2000/svg" xmlns:xlink="http://www.w3.org/1999/xlink">
    <!-- Generator: Sketch 52.6 (67491) - http://www.bohemiancoding.com/sketch -->
    <title>star</title>
    <desc>Created with Sketch.</desc>
    <g id="star" stroke="none" stroke-width="1" fill="none" fill-rule="evenodd">
        <path d="M10.3185259,0.520659567 L8.06408281,7.84655967 L0.718285804,7.82979799 C0.406099907,7.82979799 0.131627743,8.03931894 0.0352482045,8.34940995 C-0.0611313341,8.65845336 0.0446766376,8.9978773 0.297149125,9.18854137 L6.24858563,13.6995275 L3.96376201,21.0159991 C3.86738247,21.3260901 3.97214284,21.6655141 4.22356772,21.8572258 C4.34928016,21.9525578 4.49699228,21.9997 4.6447044,21.9997 C4.79346412,21.9997 4.94117624,21.9525578 5.06688868,21.8561781 L11.0005159,17.3179543 L16.9330956,21.8561781 C17.058808,21.9525578 17.2075677,21.9997 17.3552799,21.9997 C17.502992,21.9997 17.6507041,21.9525578 17.7764165,21.8572258 C18.0278414,21.6655141 18.1336494,21.3260901 18.0362222,21.0159991 L15.7513986,13.6995275 L21.7038827,9.18854137 C21.9553076,8.9978773 22.0611156,8.65845336 21.9647361,8.34940995 C21.8694041,8.03931894 21.5938843,7.82979799 21.2837937,7.82979799 L13.936949,7.84655967 L11.6814583,0.520659567 C11.5861264,0.210568557 11.3106066,3.73034936e-14 11.0005159,3.73034936e-14 C10.6893776,3.73034936e-14 10.4138579,0.210568557 10.3185259,0.520659567" id="Fill-1" fill="#CBA258"></path>
    </g>
</svg>