<?xml version="1.0" encoding="UTF-8"?>
<svg width="24px" height="24px" viewBox="0 0 24 24" version="1.1" xmlns="http://www.w3.org/2000/svg" xmlns:xlink="http://www.w3.org/1999/xlink">
    <!-- Generator: Sketch 52.3 (67297) - http://www.bohemiancoding.com/sketch -->
    <title>alarm-clock</title>
    <desc>Created with Sketch.</desc>
    <defs>
        <path d="M18.6788052,18.7133177 C18.8562833,18.5265018 18.8497446,18.2303986 18.6619915,18.0529235 L16.8750672,16.3528989 C16.6891823,16.1763579 16.39214,16.1828964 16.2146619,16.3687782 C16.0362497,16.5555941 16.0437224,16.8516973 16.2305415,17.0291724 L18.0183998,18.7301311 C18.1090071,18.8151323 18.2248349,18.8581 18.3406627,18.8581 C18.4639633,18.8581 18.5872638,18.8095279 18.6788052,18.7133177 M3.22728888,19.19353 L5.33925979,17.1843075 C5.52607721,17.0058967 5.5335499,16.710725 5.35513927,16.5239075 C5.17766272,16.33709 4.88155711,16.3305514 4.6947397,16.5070939 L2.58276878,18.5163165 C2.39595137,18.6937931 2.38847867,18.9898989 2.56595522,19.1767164 C2.65842984,19.2729274 2.78079525,19.3215 2.90502883,19.3215 C3.02085563,19.3215 3.13668243,19.278532 3.22728888,19.19353 M12.2532747,12.1038276 L10.5392652,10.3795113 L10.5392652,6.80104125 C10.5392652,6.54323448 10.3300346,6.334 10.0722326,6.334 C9.81349653,6.334 9.6052,6.54323448 9.6052,6.80104125 L9.6052,10.5102829 C9.6052,10.5205578 9.60987033,10.5298986 9.61080439,10.5401735 C9.60146374,10.670011 9.64162854,10.8026507 9.74063945,10.9016634 L11.5910225,12.7623558 C11.6825609,12.85483 11.8021213,12.9006 11.9226157,12.9006 C12.041242,12.9006 12.1598682,12.855764 12.2514066,12.764224 C12.4344834,12.5830119 12.4354175,12.2869078 12.2532747,12.1038276 M15.5552,1.42163025 L19.532537,5.2056 C19.8790829,4.74976755 20.0659,4.20426315 20.0659,3.63260443 C20.0659,2.91522878 19.7707289,2.23988685 19.2364319,1.73081169 C18.2360261,0.77898123 16.6761029,0.67529803 15.5552,1.42163025 M19.5577716,6.3405 C19.4419449,6.3405 19.3261183,6.29753256 19.236446,6.21253175 L14.5239833,1.73084067 C14.4315088,1.64303764 14.3792,1.52067384 14.3792,1.39270558 C14.3792,1.26473733 14.4315088,1.14143945 14.5239833,1.05363642 C16.001707,-0.351212139 18.4041756,-0.351212139 19.8800312,1.05363642 C20.6020795,1.7411155 21,2.65744291 21,3.63261704 C21,4.60872525 20.6020795,5.52505267 19.8800312,6.21253175 C19.7894248,6.29753256 19.6735982,6.3405 19.5577716,6.3405 M3.79798522,1.0845 C3.06193122,1.0845 2.32494315,1.35164787 1.76449594,1.88500953 C1.22926886,2.39408501 0.9341,3.06942735 0.9341,3.78773754 C0.9341,4.35939661 1.12091573,4.90396727 1.46745892,5.3598 L5.4457,1.57676198 C4.95344054,1.24889869 4.37524584,1.0845 3.79798522,1.0845 M1.44222102,6.4956 C1.32639498,6.4956 1.21056894,6.45263222 1.11996308,6.36669666 C0.397918493,5.67921219 0,4.76381168 0,3.78769582 C0,2.81157997 0.397918493,1.89524537 1.11996308,1.20869498 C2.5967451,-0.197098664 4.99920135,-0.196164582 6.47691745,1.20869498 C6.56939147,1.29649871 6.6217,1.41886347 6.6217,1.54683273 C6.6217,1.67480198 6.56939147,1.79716674 6.47691745,1.88497047 L1.76447895,6.36669666 C1.6738731,6.45263222 1.55804706,6.4956 1.44222102,6.4956 M10.51405,4.1772 C7.11305382,4.1772 4.3463,6.87948676 4.3463,10.201067 C4.3463,13.5217132 7.11305382,16.224 10.51405,16.224 C13.9150462,16.224 16.6818,13.5217132 16.6818,10.201067 C16.6818,6.87948676 13.9150462,4.1772 10.51405,4.1772 M10.514,17.1581 C6.59834229,17.1581 3.4122,14.0373364 3.4122,10.201067 C3.4122,6.36386358 6.59834229,3.2431 10.514,3.2431 C14.4305918,3.2431 17.6158,6.36386358 17.6158,10.201067 C17.6158,14.0373364 14.4305918,17.1581 10.514,17.1581" id="path-1"></path>
    </defs>
    <g id="alarm-clock" stroke="none" stroke-width="1" fill="none" fill-rule="evenodd">
        <g id="ui/alarm_clock_24">
            <rect id="Rectangle" fill="#FF0000" opacity="0" x="0" y="0" width="24" height="24"></rect>
            <g id="icon/ui/alarm_clock_dark" stroke-width="1" transform="translate(2.000000, 2.000000)">
                <mask id="mask-2" fill="white">
                    <use xlink:href="#path-1"></use>
                </mask>
                <g id="Mask"></g>
                <g id="Black-058%-(Secondary)" mask="url(#mask-2)" fill="#000000">
                    <g transform="translate(-14.000000, -14.000000)" id="Rectangle-435-Copy-4">
                        <rect x="0" y="0" width="48" height="48"></rect>
                    </g>
                </g>
            </g>
        </g>
    </g>
</svg>