<?xml version="1.0" encoding="UTF-8"?>
<svg width="24px" height="24px" viewBox="0 0 24 24" version="1.1" xmlns="http://www.w3.org/2000/svg" xmlns:xlink="http://www.w3.org/1999/xlink">
    <!-- Generator: Sketch 52.3 (67297) - http://www.bohemiancoding.com/sketch -->
    <title>current-location</title>
    <desc>Created with Sketch.</desc>
    <defs>
        <path d="M5.2839,10.627323 L11.8868211,10.627323 C12.706227,10.627323 13.372677,11.293773 13.372677,12.1131789 L13.372677,18.7161 L19.8435,4.1565 L5.2839,10.627323 Z M13.017137,20.9956 C12.976415,20.9956 12.9337065,20.9906339 12.890998,20.9816949 C12.5513164,20.9101828 12.3794892,20.6022838 12.3794892,20.0669367 L12.3794892,12.1132091 C12.3794892,11.8460322 12.1540281,11.6205706 11.8868517,11.6205706 L3.93214557,11.6205706 C3.39481307,11.6205706 3.08592138,11.4487431 3.01341625,11.1090609 C2.94190435,10.770372 3.15644006,10.4853171 3.6530505,10.2648216 L19.7084662,3.12950952 C20.3073784,2.86332583 20.6411006,3.06693649 20.787104,3.21194701 C20.9331075,3.35795075 21.1367178,3.69167359 20.8705346,4.29158012 L13.7342425,20.3470256 C13.5425509,20.7780842 13.3021914,20.9956 13.017137,20.9956 L13.017137,20.9956 Z" id="path-1"></path>
    </defs>
    <g id="current-location" stroke="none" stroke-width="1" fill="none" fill-rule="evenodd">
        <g id="icon/ui/current_location_dark">
            <rect id="bounds" fill="#FF0000" opacity="0" x="0" y="0" width="24" height="24"></rect>
            <mask id="mask-2" fill="white">
                <use xlink:href="#path-1"></use>
            </mask>
            <g id="Mask"></g>
            <g id="Black-058%-(Secondary)" fill="#D8D8D8" mask="url(#mask-2)">
                <g transform="translate(-12.000000, -12.000000)" fill="#000000" id="Rectangle-435-Copy-4">
                    <rect x="0" y="0" width="48" height="48"></rect>
                </g>
            </g>
        </g>
    </g>
</svg>