<?xml version="1.0" encoding="UTF-8"?>
<svg width="24px" height="24px" viewBox="0 0 24 24" version="1.1" xmlns="http://www.w3.org/2000/svg" xmlns:xlink="http://www.w3.org/1999/xlink">
    <!-- Generator: Sketch 52.3 (67297) - http://www.bohemiancoding.com/sketch -->
    <title>danger</title>
    <desc>Created with Sketch.</desc>
    <defs>
        <path d="M12.4942,17.8327332 L12.4942,15.9575668 C12.4942,15.6844555 12.272552,15.4628 11.99945,15.4628 C11.726348,15.4628 11.5047,15.6844555 11.5047,15.9575668 L11.5047,17.8327332 C11.5047,18.1058445 11.726348,18.3275 11.99945,18.3275 C12.272552,18.3275 12.4942,18.1058445 12.4942,17.8327332 M12.4942,12.6961375 L12.4942,6.06236246 C12.4942,5.78925358 12.272552,5.5676 11.99945,5.5676 C11.726348,5.5676 11.5047,5.78925358 11.5047,6.06236246 L11.5047,12.6961375 C11.5047,12.9692464 11.726348,13.1909 11.99945,13.1909 C12.272552,13.1909 12.4942,12.9692464 12.4942,12.6961375 M11.9995052,1.9895 C6.47995114,1.9895 1.9895,6.47994879 1.9895,11.9995 C1.9895,17.5190512 6.47995114,22.0095 11.9995052,22.0095 C17.5190593,22.0095 22.0105,17.5190512 22.0105,11.9995 C22.0105,6.47994879 17.5190593,1.9895 11.9995052,1.9895 M11.9995052,22.999 C5.93473665,22.999 1,18.0642657 1,11.9995 C1,5.9347343 5.93473665,1 11.9995052,1 C18.0652633,1 23,5.9347343 23,11.9995 C23,18.0642657 18.0652633,22.999 11.9995052,22.999" id="path-1"></path>
    </defs>
    <g id="danger" stroke="none" stroke-width="1" fill="none" fill-rule="evenodd">
        <g id="icon/ui/actung_dark">
            <rect id="bounds" fill="#FF0000" opacity="0" x="0" y="0" width="24" height="24"></rect>
            <mask id="mask-2" fill="white">
                <use xlink:href="#path-1"></use>
            </mask>
            <g id="actung"></g>
            <g id="Black-058%-(Secondary)" mask="url(#mask-2)" fill="#000000">
                <g transform="translate(-12.000000, -12.000000)" id="Rectangle-435-Copy-4">
                    <rect x="0" y="0" width="48" height="48"></rect>
                </g>
            </g>
        </g>
    </g>
</svg>