<?xml version="1.0" encoding="UTF-8"?>
<svg width="24px" height="24px" viewBox="0 0 24 24" version="1.1" xmlns="http://www.w3.org/2000/svg" xmlns:xlink="http://www.w3.org/1999/xlink">
    <!-- Generator: Sketch 52.3 (67297) - http://www.bohemiancoding.com/sketch -->
    <title>directions</title>
    <desc>Created with Sketch.</desc>
    <defs>
        <path d="M12.4267526,4.18082902 L19.8187714,11.5728637 C19.932371,11.6864636 19.9947,11.8382652 19.9947,11.9991146 C19.9947,12.159964 19.932371,12.3117656 19.8187714,12.4253655 L12.4267526,19.8174002 C12.198548,20.0445999 11.801452,20.0445999 11.5742527,19.8174002 L4.18223395,12.4253655 C4.06863431,12.3117656 4.0053,12.159964 4.0053,11.9991146 C4.0053,11.8382652 4.06863431,11.6864636 4.18223395,11.5728637 L11.5742527,4.18082902 C11.6918736,4.0632079 11.8456855,4.0049 12.0005027,4.0049 C12.1543145,4.0049 12.3091318,4.0632079 12.4267526,4.18082902 M13.1375035,20.5281174 L20.5295169,13.1361113 C20.8331192,12.8325092 21,12.4283767 21,11.9991115 C21,11.5698464 20.8331192,11.1657139 20.5295169,10.8621118 L13.1375035,3.47010573 C12.5101927,2.84279554 11.4898073,2.84380084 10.8635018,3.47010573 L3.47148841,10.8621118 C3.16788607,11.1657139 3,11.5698464 3,11.9991115 C3,12.4283767 3.16788607,12.8325092 3.47148841,13.1361113 L10.8635018,20.5281174 C11.1671042,20.8317194 11.5702318,20.9986 12.0005027,20.9986 C12.4297682,20.9986 12.8339011,20.8317194 13.1375035,20.5281174 M16.9245451,11.2410629 C16.9225345,11.3767788 16.8672425,11.5064629 16.7687224,11.5989508 L14.2323306,14.0106727 C14.1348158,14.1031606 14.0101576,14.1494045 13.8854994,14.1494045 C13.7527988,14.1494045 13.6200981,14.0971288 13.521578,13.9935826 C13.3295642,13.792522 13.3386119,13.4738409 13.5386682,13.2828333 L15.164251,11.7376826 L12.284044,11.7376826 C11.4446119,11.7376826 10.7620079,12.4212886 10.7620079,13.2607167 L10.7620079,15.3899485 C10.7620079,15.6674121 10.5368189,15.8926 10.2593539,15.8926 C9.98088365,15.8926 9.7567,15.6674121 9.7567,15.3899485 L9.7567,13.2607167 C9.7567,11.8663614 10.8906873,10.7323795 12.284044,10.7323795 L15.2084846,10.7323795 L13.5306257,9.05452879 C13.3335854,8.85748939 13.3335854,8.53981364 13.5306257,8.34377955 C13.7266608,8.14674015 14.044338,8.14674015 14.2413784,8.34377955 L16.7777701,10.8801591 C16.8732744,10.9756629 16.9265557,11.1063523 16.9245451,11.2410629" id="path-1"></path>
    </defs>
    <g id="directions" stroke="none" stroke-width="1" fill="none" fill-rule="evenodd">
        <g id="ui/directions_24">
            <g id="icon/ui/directions_dark">
                <rect id="Rectangle" fill="#FF0000" opacity="0" x="0" y="0" width="24" height="24"></rect>
                <mask id="mask-2" fill="white">
                    <use xlink:href="#path-1"></use>
                </mask>
                <g id="Mask"></g>
                <g id="Black-058%-(Secondary)" mask="url(#mask-2)" fill="#000000">
                    <g transform="translate(-12.000000, -12.000000)" id="Rectangle-435-Copy-4">
                        <rect x="0" y="0" width="48" height="48"></rect>
                    </g>
                </g>
            </g>
        </g>
    </g>
</svg>