<?xml version="1.0" encoding="UTF-8"?>
<svg width="24px" height="24px" viewBox="0 0 24 24" version="1.1" xmlns="http://www.w3.org/2000/svg" xmlns:xlink="http://www.w3.org/1999/xlink">
    <!-- Generator: Sketch 52.3 (67297) - http://www.bohemiancoding.com/sketch -->
    <title>mic</title>
    <desc>Created with Sketch.</desc>
    <defs>
        <path d="M16.3363805,20.4857159 C16.3363805,20.7696007 16.1059796,21 15.8220927,21 L9.11577997,21 C8.83189311,21 8.60149218,20.7696007 8.60149218,20.4857159 C8.60149218,20.2018311 8.83189311,19.9714318 9.11577997,19.9714318 L11.9371628,19.9714318 L11.9371628,17.2868687 L11.8425338,17.2868687 C9.17235162,17.2868687 7,15.0805899 7,12.3692841 C7,12.0853993 7.22937235,11.855 7.51428779,11.855 C7.79817465,11.855 8.02857558,12.0853993 8.02857558,12.3692841 C8.02857558,14.5138488 9.73909677,16.2583005 11.8425338,16.2583005 L12.7785376,16.2583005 C14.8819747,16.2583005 16.5935244,14.5138488 16.5935244,12.3692841 C16.5935244,12.0853993 16.8228968,11.855 17.1078122,11.855 C17.3916991,11.855 17.6221,12.0853993 17.6221,12.3692841 C17.6221,15.0157901 15.5474631,17.1654977 12.9657384,17.2673259 L12.9657384,19.9714318 L15.8220927,19.9714318 C16.1059796,19.9714318 16.3363805,20.2018311 16.3363805,20.4857159 L16.3363805,20.4857159 Z M10.2914,6.12070814 C10.2914,4.96768296 11.2099047,4.0286 12.3392643,4.0286 C13.4675953,4.0286 14.3861,4.96768296 14.3861,6.12070814 L14.3861,11.6646919 C14.3861,12.8187456 13.4675953,13.7568 12.3392643,13.7568 C11.2099047,13.7568 10.2914,12.8187456 10.2914,11.6646919 L10.2914,6.12070814 Z M12.3393643,14.7854 C14.0354825,14.7854 15.4148,13.3855109 15.4148,11.6647067 L15.4148,6.12069328 C15.4148,4.39988911 14.0354825,3 12.3393643,3 C10.6432461,3 9.2629,4.39988911 9.2629,6.12069328 L9.2629,11.6647067 C9.2629,13.3855109 10.6432461,14.7854 12.3393643,14.7854 L12.3393643,14.7854 Z" id="path-1"></path>
    </defs>
    <g id="mic" stroke="none" stroke-width="1" fill="none" fill-rule="evenodd">
        <g id="icon/ui/mic_dark">
            <rect id="bounds" fill="#FF0000" opacity="0" x="0" y="0" width="24" height="24"></rect>
            <mask id="mask-2" fill="white">
                <use xlink:href="#path-1"></use>
            </mask>
            <g id="Mask"></g>
            <g id="Black-058%-(Secondary)" mask="url(#mask-2)" fill="#000000">
                <g transform="translate(-12.000000, -12.000000)" id="Rectangle-435-Copy-4">
                    <rect x="0" y="0" width="48" height="48"></rect>
                </g>
            </g>
        </g>
    </g>
</svg>