<?xml version="1.0" encoding="UTF-8"?>
<svg width="24px" height="24px" viewBox="0 0 24 24" version="1.1" xmlns="http://www.w3.org/2000/svg" xmlns:xlink="http://www.w3.org/1999/xlink">
    <!-- Generator: Sketch 52.3 (67297) - http://www.bohemiancoding.com/sketch -->
    <title>mobile-order</title>
    <desc>Created with Sketch.</desc>
    <defs>
        <path d="M7.26365,17.4884 C6.93931897,17.4884 6.6758,17.748876 6.6758,18.06915 C6.6758,18.389424 6.93931897,18.6499 7.26365,18.6499 C7.58798103,18.6499 7.8515,18.389424 7.8515,18.06915 C7.8515,17.748876 7.58798103,17.4884 7.26365,17.4884 L7.26365,17.4884 Z M7.26355,19.6635 C6.38078047,19.6635 5.6622,18.9479401 5.6622,18.0692 C5.6622,17.1904599 6.38078047,16.4749 7.26355,16.4749 C8.14631953,16.4749 8.8649,17.1904599 8.8649,18.0692 C8.8649,18.9479401 8.14631953,19.6635 7.26355,19.6635 L7.26355,19.6635 Z M10.1450534,15.4522371 C10.1450534,15.172504 9.91903748,14.9454743 9.63829124,14.9454743 L3.62302433,14.9454743 L3.62302433,2.85512574 L11.2183757,2.85512574 L11.2183757,4.29027818 C11.2183757,4.57001129 11.4443916,4.79704105 11.7251378,4.79704105 C12.0048705,4.79704105 12.2319,4.57001129 12.2319,4.29027818 L12.2319,2.34836287 C12.2319,2.06862977 12.0048705,1.8416 11.7251378,1.8416 L3.11626217,1.8416 C2.83551593,1.8416 2.6095,2.06862977 2.6095,2.34836287 L2.6095,15.4522371 C2.6095,15.7329838 2.83551593,15.959 3.11626217,15.959 L9.63829124,15.959 C9.91903748,15.959 10.1450534,15.7329838 10.1450534,15.4522371 L10.1450534,15.4522371 Z M10.5200849,20.512835 C10.5200849,20.2331007 10.2940677,20.0060699 10.01332,20.0060699 L2.71590585,20.0060699 C2.32873749,20.0060699 2.01352974,19.6949162 2.01352974,19.3118018 L2.01352974,1.70779816 C2.01352974,1.32468379 2.32873749,1.01353006 2.71590585,1.01353006 L11.9420671,1.01353006 C12.330249,1.01353006 12.6464703,1.32468379 12.6464703,1.70779816 L12.6464703,4.26493451 C12.6464703,4.54466881 12.8724874,4.77169954 13.1532351,4.77169954 C13.4329693,4.77169954 13.66,4.54466881 13.66,4.26493451 L13.66,1.70779816 C13.66,0.765215198 12.8897174,0 11.9420671,0 L2.71590585,0 C1.7702826,0 1,0.765215198 1,1.70779816 L1,19.3118018 C1,20.2543848 1.7702826,21.0196 2.71590585,21.0196 L10.01332,21.0196 C10.2940677,21.0196 10.5200849,20.7935828 10.5200849,20.512835 L10.5200849,20.512835 Z M21.3729144,7.8305 L10.4470856,7.8305 L9.9312,7.8305 L10.0507963,7.16459621 C10.0994456,6.95479091 10.2545153,6.67910471 10.2443801,6.6476846 L21.485416,6.6264 C21.5664982,6.68011827 21.7195409,6.9507367 21.7641361,7.14027096 L21.8888,7.8305 L21.3729144,7.8305 Z M19.9215804,21.736057 C19.9084046,21.9610599 19.7188752,22.1364 19.4908317,22.1364 L12.3302683,22.1364 C12.1012113,22.1364 11.9126954,21.9600464 11.8985061,21.7320029 L10.9914,8.844 L20.8297,8.844 L19.9215804,21.736057 Z M22.7564472,6.9345571 C22.6713106,6.57272742 22.2942772,5.6342 21.5756839,5.6342 L10.2444107,5.6342 C9.52480394,5.6342 9.14878405,6.57272742 9.05857982,6.95989531 L8.82648129,8.24707654 C8.80012949,8.39505171 8.84067072,8.54708099 8.93594261,8.66262324 C9.03324155,8.77715196 9.17513585,8.84404484 9.32513839,8.84404484 L9.97481157,8.84404484 L10.8869892,21.7979529 C10.9336116,22.5560723 11.5670683,23.15 12.3302569,23.15 L19.4908513,23.15 C20.2540399,23.15 20.8874966,22.5560723 20.9331054,21.8030206 L21.8452831,8.84404484 L22.4949562,8.84404484 C22.6459723,8.84404484 22.7878666,8.77715196 22.884152,8.66262324 C22.9804374,8.54708099 23.0209787,8.39505171 22.9946269,8.24707654 L22.7564472,6.9345571 Z M16.0062568,11.613 C14.5447598,11.613 13.3559,12.7917235 13.3559,14.2410568 C13.3559,15.6893765 14.5447598,16.8681 16.0062568,16.8681 C17.4667402,16.8681 18.6556,15.6893765 18.6556,14.2410568 C18.6556,12.7917235 17.4667402,11.613 16.0062568,11.613 L16.0062568,11.613 Z M16.0063068,17.8817 C13.9863438,17.8817 12.3424,16.2478926 12.3424,14.2411068 C12.3424,12.2333074 13.9863438,10.5995 16.0063068,10.5995 C18.0262697,10.5995 19.6692,12.2333074 19.6692,14.2411068 C19.6692,16.2478926 18.0262697,17.8817 16.0063068,17.8817 L16.0063068,17.8817 Z" id="path-1"></path>
    </defs>
    <g id="mobile-order" stroke="none" stroke-width="1" fill="none" fill-rule="evenodd">
        <g id="icon/ui/mobile_order_dark">
            <rect id="bounds" fill="#FF0000" opacity="0" x="0" y="0" width="24" height="24"></rect>
            <mask id="mask-2" fill="white">
                <use xlink:href="#path-1"></use>
            </mask>
            <g id="Mask"></g>
            <g id="Black-058%-(Secondary)" mask="url(#mask-2)" fill="#000000">
                <g transform="translate(-12.000000, -12.000000)" id="Rectangle-435-Copy-4">
                    <rect x="0" y="0" width="48" height="48"></rect>
                </g>
            </g>
        </g>
    </g>
</svg>