<?xml version="1.0" encoding="UTF-8"?>
<svg width="24px" height="24px" viewBox="0 0 24 24" version="1.1" xmlns="http://www.w3.org/2000/svg" xmlns:xlink="http://www.w3.org/1999/xlink">
    <!-- Generator: Sketch 52.3 (67297) - http://www.bohemiancoding.com/sketch -->
    <title>pin</title>
    <desc>Created with Sketch.</desc>
    <defs>
        <path d="M14.5,8 C14.5,4.41014913 11.5898509,1.5 8,1.5 C4.41014913,1.5 1.5,4.41014913 1.5,8 C1.5,10.2762572 3.65483326,14.2305441 8.0000032,19.634261 C12.3450853,14.2306933 14.5,10.2763005 14.5,8 Z M8.38562069,21.535506 C8.3653679,21.5600428 8.34281979,21.5825909 8.31828296,21.6028437 C8.10527953,21.7786574 7.79008094,21.7485092 7.61426723,21.5355057 C2.53811125,15.3854594 0,10.8736425 0,8 C0,3.581722 3.581722,0 8,0 C12.418278,0 16,3.581722 16,8 C16,10.8736511 13.4618736,15.3854864 8.38562069,21.535506 Z M8,10.5 C9.1045695,10.5 10,9.6045695 10,8.5 C10,7.3954305 9.1045695,6.5 8,6.5 C6.8954305,6.5 6,7.3954305 6,8.5 C6,9.6045695 6.8954305,10.5 8,10.5 Z M8,12 C6.06700338,12 4.5,10.4329966 4.5,8.5 C4.5,6.56700338 6.06700338,5 8,5 C9.93299662,5 11.5,6.56700338 11.5,8.5 C11.5,10.4329966 9.93299662,12 8,12 Z" id="path-1"></path>
    </defs>
    <g id="pin" stroke="none" stroke-width="1" fill="none" fill-rule="evenodd">
        <g id="icon/ui/pin_dark">
            <rect id="Rectangle" fill="#FF0000" opacity="0" x="0" y="0" width="24" height="24"></rect>
            <g id="Group" transform="translate(4.000000, 1.000000)">
                <mask id="mask-2" fill="white">
                    <use xlink:href="#path-1"></use>
                </mask>
                <use id="Oval-2" fill="#FF0000" fill-rule="nonzero" opacity="0" xlink:href="#path-1"></use>
                <g id="Black-058%-(Secondary)" mask="url(#mask-2)" fill="#000000">
                    <g transform="translate(-16.000000, -13.000000)" id="Rectangle-435-Copy-4">
                        <rect x="0" y="0" width="48" height="48"></rect>
                    </g>
                </g>
            </g>
        </g>
    </g>
</svg>