<?xml version="1.0" encoding="UTF-8"?>
<svg width="24px" height="24px" viewBox="0 0 24 24" version="1.1" xmlns="http://www.w3.org/2000/svg" xmlns:xlink="http://www.w3.org/1999/xlink">
    <!-- Generator: Sketch 52.3 (67297) - http://www.bohemiancoding.com/sketch -->
    <title>pound</title>
    <desc>Created with Sketch.</desc>
    <defs>
        <path d="M20.75,19.0453529 L10.662,19.0453529 C12.359,17.5563529 15.298,14.4553529 14.594,11.3333529 L14.582,11.2943529 L18.42,11.2943529 C18.697,11.2943529 18.92,11.0703529 18.92,10.7943529 C18.92,10.5173529 18.697,10.2943529 18.42,10.2943529 L14.282,10.2943529 L12.827,5.44935286 C12.424,3.89935286 12.789,2.59335286 13.854,1.77335286 C15.199,0.73535286 17.342,0.73635286 19.184,1.77235286 C19.424,1.90535286 19.729,1.82135286 19.865,1.58135286 C20,1.34035286 19.915,1.03535286 19.674,0.89935286 C17.485,-0.32864714 14.902,-0.29664714 13.243,0.98035286 C11.861,2.04535286 11.356,3.76635286 11.864,5.71935286 L13.239,10.2943529 L10.115,10.2943529 C9.839,10.2943529 9.615,10.5173529 9.615,10.7943529 C9.615,11.0703529 9.839,11.2943529 10.115,11.2943529 L13.539,11.2943529 L13.627,11.5873529 C14.429,15.1493529 9.013,19.1003529 8.958,19.1393529 C8.782,19.2663529 8.708,19.4923529 8.774,19.6983529 C8.841,19.9053529 9.033,20.0453529 9.25,20.0453529 L20.75,20.0453529 C21.026,20.0453529 21.25,19.8213529 21.25,19.5453529 C21.25,19.2693529 21.026,19.0453529 20.75,19.0453529 M10.376,8.70835286 C10.376,8.98435286 10.152,9.20835286 9.876,9.20835286 L5.604,9.20835286 L5.604,13.2923529 C5.604,13.5683529 5.38,13.7923529 5.104,13.7923529 C4.827,13.7923529 4.604,13.5683529 4.604,13.2923529 L4.604,9.20835286 L0.5,9.20835286 C0.224,9.20835286 0,8.98435286 0,8.70835286 C0,8.43235286 0.224,8.20835286 0.5,8.20835286 L4.604,8.20835286 L4.604,3.96135286 C4.604,3.68535286 4.827,3.46135286 5.104,3.46135286 C5.38,3.46135286 5.604,3.68535286 5.604,3.96135286 L5.604,8.20835286 L9.876,8.20835286 C10.152,8.20835286 10.376,8.43235286 10.376,8.70835286" id="path-1"></path>
    </defs>
    <g id="pound" stroke="none" stroke-width="1" fill="none" fill-rule="evenodd">
        <g id="ui/add_gbp_24">
            <rect id="Rectangle" fill="#FF0000" opacity="0" x="0" y="0" width="24" height="24"></rect>
            <g id="icon/ui/add_gbp_dark" stroke-width="1" transform="translate(1.000000, 2.000000)">
                <mask id="mask-2" fill="white">
                    <use xlink:href="#path-1"></use>
                </mask>
                <g id="Mask"></g>
                <g id="Black-058%-(Secondary)" mask="url(#mask-2)" fill="#000000">
                    <g transform="translate(-13.000000, -14.000000)" id="Rectangle-435-Copy-4">
                        <rect x="0" y="0" width="48" height="48"></rect>
                    </g>
                </g>
            </g>
        </g>
    </g>
</svg>