<?xml version="1.0" encoding="UTF-8"?>
<svg width="24px" height="24px" viewBox="0 0 24 24" version="1.1" xmlns="http://www.w3.org/2000/svg" xmlns:xlink="http://www.w3.org/1999/xlink">
    <!-- Generator: Sketch 52.3 (67297) - http://www.bohemiancoding.com/sketch -->
    <title>settings</title>
    <desc>Created with Sketch.</desc>
    <defs>
        <path d="M15.3213,12.00005 C15.3213,10.8395399 14.7035123,9.74801121 13.7083568,9.1494964 C13.4699658,9.00849036 13.1565071,9.08254389 13.012458,9.32296425 C12.8673946,9.56439904 12.9455057,9.8748152 13.1859255,10.019879 C13.8879109,10.4418826 14.3068703,11.1814035 14.3068703,12.00005 C14.3068703,13.2721476 13.2711376,14.3068681 12.0000572,14.3068681 C10.7279624,14.3068681 9.69222968,13.2721476 9.69222968,12.00005 C9.69222968,10.7279524 10.7279624,9.69323189 12.0000572,9.69323189 C12.2800398,9.69323189 12.5072721,9.46599914 12.5072721,9.18601594 C12.5072721,8.90501831 12.2800398,8.6788 12.0000572,8.6788 C10.1679972,8.6788 8.6778,10.167986 8.6778,12.00005 C8.6778,13.832114 10.1679972,15.3213 12.0000572,15.3213 C13.8311028,15.3213 15.3213,13.832114 15.3213,12.00005 M13.0905095,21 L10.9084761,21 C10.6508115,21 10.4347385,20.8072588 10.4043057,20.5506087 L10.0533138,17.4728359 C9.85752931,17.4028404 9.66783138,17.3237151 9.48422002,17.2354599 L7.08408476,19.1720018 C6.88322813,19.3343102 6.58904418,19.3180794 6.40746168,19.1354824 L4.86350316,17.5925383 C4.68192065,17.4109558 4.66467538,17.121844 4.82394049,16.9199729 L6.74830929,14.4782462 C6.66816952,14.3057935 6.59310189,14.1272543 6.52919297,13.9477006 L3.44939134,13.5946799 C3.19274121,13.5652615 3,13.348174 3,13.0905095 L3,10.9094905 C3,10.651826 3.19274121,10.4347385 3.44939134,10.4053201 L6.52817854,10.0512849 C6.5971596,9.85651488 6.67628494,9.66580252 6.7635257,9.48422002 L4.82698377,7.08307033 C4.66467538,6.88221371 4.68090622,6.59005861 4.86350316,6.40644725 L6.40746168,4.86451758 C6.58701533,4.6839495 6.87511271,4.66670424 7.07495491,4.8208972 L9.56740307,6.73816501 C9.71246619,6.6783138 9.86767358,6.61744815 9.99853472,6.56875564 L10.4053201,3.44127592 C10.4398106,3.1886835 10.6538548,3 10.9084761,3 L13.0905095,3 C13.348174,3 13.5652615,3.19274121 13.5946799,3.44939134 L13.9477006,6.52919297 C14.1363841,6.59918846 14.3270965,6.68135708 14.5167944,6.7746844 L16.9138864,4.82901262 C17.1167719,4.66670424 17.408927,4.67989179 17.5925383,4.86451758 L19.1354824,6.40644725 C19.3160505,6.58701533 19.3343102,6.87409829 19.1780884,7.07596934 L17.2506763,9.56233093 C17.3166141,9.70435077 17.3937106,9.88086114 17.4606628,10.0492561 L20.5506087,10.4053201 C20.8062444,10.4347385 21,10.651826 21,10.9094905 L21,13.0905095 C21,13.348174 20.8062444,13.5652615 20.5506087,13.5946799 L18.4284265,13.8411858 C18.1504734,13.8685753 17.897881,13.6738052 17.8654193,13.3958521 C17.833972,13.117899 18.0327998,12.866321 18.3107529,12.8328449 L19.9855726,12.6390893 L19.9855726,11.3609107 L17.03156,11.0210775 C16.8286745,10.9977457 16.6592651,10.8547115 16.6034716,10.658927 C16.5304328,10.4124211 16.2900135,9.89709197 16.2037872,9.71855275 C16.1185753,9.54508566 16.1408927,9.33814247 16.2585663,9.18597836 L18.1017809,6.8081605 L17.1989405,5.90430568 L14.8961903,7.7738954 C14.7338819,7.90272768 14.5076646,7.9220018 14.3281109,7.82157349 C13.9923354,7.63288999 13.6585888,7.48985573 13.3380298,7.39551398 C13.1422453,7.33769161 13.0002254,7.16929666 12.9758792,6.96641118 L12.6370604,4.01442741 L11.3548242,4.01442741 L10.965284,7.00293057 C10.9409378,7.19262849 10.8121055,7.35087917 10.6325518,7.4147881 C10.4499549,7.48072588 9.93158251,7.67346709 9.73072588,7.77592426 C9.55522994,7.8662083 9.34422904,7.84693417 9.19003607,7.72723174 L6.80917493,5.89619026 L5.90329125,6.80207394 L7.76172227,9.10482417 C7.89156898,9.26611812 7.90982867,9.49030658 7.80940036,9.67087466 C7.63897656,9.97418846 7.5,10.3069206 7.3965284,10.6609558 C7.33870604,10.8567403 7.17031109,10.9987601 6.96742561,11.022092 L4.01442741,11.3609107 L4.01442741,12.6380748 L6.96742561,12.9768936 C7.17031109,13.0002254 7.33870604,13.1422453 7.3965284,13.3380298 C7.4888413,13.6545311 7.63390442,14.0045086 7.79215509,14.2976781 C7.88954013,14.4752029 7.87026601,14.6933048 7.74447701,14.8535843 L5.90024797,17.1938683 L6.80308837,18.0967087 L9.10583859,16.2382777 C9.26814698,16.1074166 9.49233544,16.0911858 9.67188909,16.1905996 C9.97520289,16.3610234 10.3089495,16.5 10.6619702,16.6034716 C10.8577547,16.6602795 10.9997746,16.8296889 11.0241208,17.0325744 L11.3619252,19.9855726 L12.6380748,19.9855726 L12.9768936,17.0325744 C13.0012399,16.8296889 13.1442741,16.6602795 13.3400586,16.6024572 C13.6443868,16.514202 13.9903066,16.3721821 14.2895627,16.2108882 C14.466073,16.1165464 14.6841749,16.1337917 14.8424256,16.2585663 L17.1938683,18.1007665 L18.0987376,17.1948828 L16.2737827,14.8911181 C16.1003156,14.6709874 16.136835,14.3514427 16.3569657,14.1779757 C16.5750676,14.0045086 16.8946123,14.0400135 17.0690938,14.2611587 L19.1740307,16.9189585 C19.3343102,17.1208296 19.3170649,17.4099414 19.1354824,17.5925383 L17.5925383,19.1354824 C17.4139991,19.3170649 17.1228584,19.3343102 16.9209874,19.1760595 L14.4691163,17.2557484 C14.2976781,17.3348738 14.1211677,17.4079125 13.9477006,17.470807 L13.5946799,20.5506087 C13.5652615,20.8072588 13.348174,21 13.0905095,21" id="path-1"></path>
    </defs>
    <g id="settings" stroke="none" stroke-width="1" fill="none" fill-rule="evenodd">
        <g id="ui/settings_24">
            <g id="icon/ui/settings_dark">
                <rect id="Rectangle" fill="#FF0000" opacity="0" x="0" y="0" width="24" height="24"></rect>
                <mask id="mask-2" fill="white">
                    <use xlink:href="#path-1"></use>
                </mask>
                <g id="settings"></g>
                <g id="Black-058%-(Secondary)" mask="url(#mask-2)" fill="#000000">
                    <g transform="translate(-12.000000, -12.000000)" id="Rectangle-435-Copy-4">
                        <rect x="0" y="0" width="48" height="48"></rect>
                    </g>
                </g>
            </g>
        </g>
    </g>
</svg>