<?xml version="1.0" encoding="UTF-8"?>
<svg width="24px" height="24px" viewBox="0 0 24 24" version="1.1" xmlns="http://www.w3.org/2000/svg" xmlns:xlink="http://www.w3.org/1999/xlink">
    <!-- Generator: Sketch 52.3 (67297) - http://www.bohemiancoding.com/sketch -->
    <title>share</title>
    <desc>Created with Sketch.</desc>
    <defs>
        <path d="M13.5290165,4.81139331 L10,1.96372403 L6.47098351,4.81139331 C6.14862964,5.07151032 5.67644369,5.02105738 5.41632669,4.69870351 C5.15620968,4.37634964 5.20666262,3.90416369 5.52901649,3.64404669 L9.52901649,0.416326687 C9.80384692,0.194557771 10.1961531,0.194557771 10.4709835,0.416326687 L14.4709835,3.64404669 C14.7933374,3.90416369 14.8437903,4.37634964 14.5836733,4.69870351 C14.3235563,5.02105738 13.8513704,5.07151032 13.5290165,4.81139331 Z M13,8.75 C12.5857864,8.75 12.25,8.41421356 12.25,8 C12.25,7.58578644 12.5857864,7.25 13,7.25 L17.25,7.25 C18.666373,7.25 19.9767534,8.5885796 19.9961806,10.027908 L19.9961806,18.25 C19.9961806,19.6592904 18.4536393,21 17,21 L2.75,21 C1.23204185,21 0,19.7259741 0,18.25 L0,10 C0,8.53629739 1.21119426,7.25 2.75,7.25 L7,7.25 C7.41421356,7.25 7.75,7.58578644 7.75,8 C7.75,8.41421356 7.41421356,8.75 7,8.75 L2.75,8.75 C2.06046821,8.75 1.5,9.34522145 1.5,10 L1.5,18.25 C1.5,18.9085858 2.07192478,19.5 2.75,19.5 L17,19.5 C17.6683193,19.5 18.4961806,18.7804592 18.4961806,18.25 L18.4962493,10.0380659 C18.4878493,9.41791476 17.8340051,8.75 17.25,8.75 L13,8.75 Z M9.25,5 C9.25,4.58578644 9.58578644,4.25 10,4.25 C10.4142136,4.25 10.75,4.58578644 10.75,5 L10.75,16.75 C10.75,17.1642136 10.4142136,17.5 10,17.5 C9.58578644,17.5 9.25,17.1642136 9.25,16.75 L9.25,5 Z" id="path-1"></path>
    </defs>
    <g id="share" stroke="none" stroke-width="1" fill="none" fill-rule="evenodd">
        <g id="ui/share_24">
            <rect id="Rectangle" fill="#FF0000" opacity="0" x="0" y="0" width="24" height="24"></rect>
            <g id="icon/ui/share_dark-copy" stroke-width="1" transform="translate(2.000000, 1.000000)">
                <mask id="mask-2" fill="white">
                    <use xlink:href="#path-1"></use>
                </mask>
                <g id="Combined-Shape" fill-rule="nonzero"></g>
                <g id="Black-058%-(Secondary)" mask="url(#mask-2)" fill="#000000">
                    <g transform="translate(-14.000000, -11.000000)" id="Rectangle-435-Copy-4">
                        <rect x="0" y="0" width="48" height="48"></rect>
                    </g>
                </g>
            </g>
        </g>
    </g>
</svg>