<?xml version="1.0" encoding="UTF-8"?>
<svg width="24px" height="24px" viewBox="0 0 24 24" version="1.1" xmlns="http://www.w3.org/2000/svg" xmlns:xlink="http://www.w3.org/1999/xlink">
    <!-- Generator: Sketch 52.3 (67297) - http://www.bohemiancoding.com/sketch -->
    <title>signed-out</title>
    <desc>Created with Sketch.</desc>
    <defs>
        <path d="M16.2339,12.9609733 C16.2339,13.2404656 16.007094,13.4673 15.7276365,13.4673 C15.4481791,13.4673 15.2213731,13.2404656 15.2213731,12.9609733 C15.2213731,10.9781978 13.5669041,9.36605347 11.53375,9.36605347 C9.50059593,9.36605347 7.84612693,10.9781978 7.84612693,12.9609733 C7.84612693,13.2404656 7.62033342,13.4673 7.33986346,13.4673 C7.06040603,13.4673 6.8336,13.2404656 6.8336,12.9609733 C6.8336,10.4202257 8.94168106,8.3534 11.53375,8.3534 C14.1248064,8.3534 16.2339,10.4202257 16.2339,12.9609733 M11.6886437,2.9863 C12.6090373,2.9863 13.3573,3.71338719 13.3573,4.60655 C13.3573,5.49971281 12.6090373,6.2268 11.6886437,6.2268 C10.7692627,6.2268 10.021,5.49971281 10.021,4.60655 C10.021,3.71338719 10.7692627,2.9863 11.6886437,2.9863 M11.6886437,7.2395 C13.1669248,7.2395 14.3698,6.05874562 14.3698,4.6066 C14.3698,3.15546704 13.1669248,1.9737 11.6886437,1.9737 C10.2103627,1.9737 9.0085,3.15546704 9.0085,4.6066 C9.0085,6.05874562 10.2103627,7.2395 11.6886437,7.2395 M21.6296112,13.9737 L2.37030111,13.9737 C1.71418245,13.9737 1.0125,13.4440803 1.0125,12.6572456 L1.0125,2.32814175 C1.0125,1.69320566 1.55724049,1.0127 2.37030111,1.0127 L21.6296112,1.0127 C22.2857298,1.0127 22.9874123,1.54130708 22.9874123,2.32814175 L22.9945,12.724081 C22.8750216,13.4248398 22.2756046,13.9737 21.6296112,13.9737 M21.6296671,0 L2.37033287,0 C0.951778256,0 0,1.20404829 0,2.32809674 L0,12.6571906 C0,14.049593 1.22516137,14.9863 2.37033287,14.9863 L21.6296671,14.9863 C22.7738261,14.9863 23.7893937,14.0860486 24,12.809089 L24,2.32809674 C24,0.935694385 22.7738261,0 21.6296671,0" id="path-1"></path>
    </defs>
    <g id="signed-out" stroke="none" stroke-width="1" fill="none" fill-rule="evenodd">
        <g id="ui/signed_out_24">
            <rect id="Rectangle" fill="#FF0000" opacity="0" x="0" y="0" width="24" height="24"></rect>
            <g id="icon/ui/signed_out_dark" stroke-width="1" transform="translate(0.000000, 5.000000)">
                <mask id="mask-2" fill="white">
                    <use xlink:href="#path-1"></use>
                </mask>
                <g id="Mask"></g>
                <g id="Black-058%-(Secondary)" mask="url(#mask-2)" fill="#000000">
                    <g transform="translate(-12.000000, -17.000000)" id="Rectangle-435-Copy-4">
                        <rect x="0" y="0" width="48" height="48"></rect>
                    </g>
                </g>
            </g>
        </g>
    </g>
</svg>