<?xml version="1.0" encoding="UTF-8"?>
<svg width="24px" height="24px" viewBox="0 0 24 24" version="1.1" xmlns="http://www.w3.org/2000/svg" xmlns:xlink="http://www.w3.org/1999/xlink">
    <!-- Generator: Sketch 52.3 (67297) - http://www.bohemiancoding.com/sketch -->
    <title>transfer-balance</title>
    <desc>Created with Sketch.</desc>
    <defs>
        <path d="M23.2845,10.5041383 L21.0395,8.26812981 C20.8445,8.07412907 20.5275,8.07212906 20.3325,8.27012982 C20.1385,8.46513055 20.1385,8.78113175 20.3345,8.9771325 L21.7195,10.3571377 L9.9865,10.3571377 C9.4765,10.3571377 9.2055,10.0131364 9.1225,9.6911352 C9.0395,9.37013399 9.1075,8.94213236 9.5515,8.69413142 L14.0775,6.17712188 C14.8415,5.75312027 15.2075,4.90011704 14.9875,4.05711384 C14.7685,3.21011063 14.0315,2.64210848 13.1545,2.64210848 L2.2795,2.64210848 L3.6665,1.26010324 C3.8625,1.0651025 3.8625,0.748101298 3.6685,0.553100558 C3.4725,0.356099811 3.1565,0.358099819 2.9615,0.551100551 L0.7165,2.78710903 C0.6215,2.88110938 0.5685,3.00910987 0.5685,3.14211037 C0.5685,3.27511088 0.6215,3.40211136 0.7165,3.49611172 L2.9615,5.7331202 C3.0585,5.82912056 3.1855,5.87812075 3.3135,5.87812075 C3.4415,5.87812075 3.5705,5.82912056 3.6685,5.73112019 C3.8625,5.53511945 3.8625,5.21911825 3.6665,5.02411751 L2.2795,3.64211227 L13.1545,3.64211227 C13.6655,3.64211227 13.9365,3.98511357 14.0195,4.30811479 C14.1025,4.62811601 14.0335,5.05711763 13.5915,5.30411857 L9.0645,7.82112811 C8.3015,8.24512972 7.9345,9.09813295 8.1535,9.94213615 C8.3735,10.7881394 9.1095,11.3571415 9.9865,11.3571415 L21.7225,11.3571415 L20.3345,12.7391468 C20.1385,12.9351475 20.1385,13.2511487 20.3325,13.4461494 C20.4305,13.5451498 20.5585,13.59415 20.6865,13.59415 C20.8145,13.59415 20.9415,13.5451498 21.0395,13.4481494 L23.2845,11.213141 C23.3795,11.1191406 23.4315,10.9911401 23.4315,10.8581396 C23.4315,10.7261391 23.3795,10.5981386 23.2845,10.5041383" id="path-1"></path>
    </defs>
    <g id="transfer-balance" stroke="none" stroke-width="1" fill="none" fill-rule="evenodd">
        <g id="ui/transfer_balance_24">
            <rect id="Rectangle" fill="#FF0000" opacity="0" x="0" y="0" width="24" height="24"></rect>
            <g id="icon/ui/transfer_balance_dark" stroke-width="1" transform="translate(0.000000, 5.000000)">
                <mask id="mask-2" fill="white">
                    <use xlink:href="#path-1"></use>
                </mask>
                <g id="Mask"></g>
                <g id="Black-058%-(Secondary)" mask="url(#mask-2)" fill="#000000">
                    <g transform="translate(-12.000000, -17.000000)" id="Rectangle-435-Copy-4">
                        <rect x="0" y="0" width="48" height="48"></rect>
                    </g>
                </g>
            </g>
        </g>
    </g>
</svg>