<?xml version="1.0" encoding="UTF-8"?>
<svg width="24px" height="24px" viewBox="0 0 24 24" version="1.1" xmlns="http://www.w3.org/2000/svg" xmlns:xlink="http://www.w3.org/1999/xlink">
    <!-- Generator: Sketch 52.3 (67297) - http://www.bohemiancoding.com/sketch -->
    <title>wifi</title>
    <desc>Created with Sketch.</desc>
    <defs>
        <path d="M22.8571476,11.1798464 C23.0476175,10.989375 23.0476175,10.6797368 22.8571476,10.4892653 C16.8724873,4.50357822 7.13117556,4.50357822 1.14358496,10.4892653 C0.952138346,10.6797368 0.952138346,10.989375 1.14358496,11.1798464 C1.33405481,11.3703179 1.64271364,11.3703179 1.83416026,11.1798464 C7.44081116,5.57510217 16.561875,5.57510217 22.1665723,11.1798464 C22.2622956,11.2755705 22.387322,11.3224558 22.5113716,11.3224558 C22.6363979,11.3224558 22.7614243,11.2755705 22.8571476,11.1798464 M5.38472675,14.7322488 C7.15267568,12.9643131 9.50180118,11.9914601 12.0003721,11.9914601 C14.498943,11.9914601 16.8490453,12.9643131 18.6150407,14.7322488 C18.8064871,14.9227171 19.1151456,14.9227171 19.3056152,14.7322488 C19.4970616,14.5408039 19.4970616,14.2321477 19.3056152,14.0416795 C17.354034,12.0901128 14.7597399,11.0147 12.0003721,11.0147 C9.2410043,11.0147 6.64573342,12.0901128 4.69415223,14.0416795 C4.50368259,14.2321477 4.50368259,14.5408039 4.69415223,14.7322488 C4.78987543,14.8269946 4.91490165,14.8748558 5.03992787,14.8748558 C5.1649541,14.8748558 5.28998032,14.8269946 5.38472675,14.7322488 M15.4014733,18.4343 C15.2764474,18.4343 15.1514215,18.3864375 15.0566753,18.2907126 C13.3717558,16.606735 10.629,16.606735 8.94505724,18.2907126 C8.75458808,18.4821625 8.4449536,18.4821625 8.25448444,18.2907126 C8.06303852,18.1002395 8.06303852,17.7915754 8.25448444,17.6001255 C10.3203422,15.5342248 13.6804136,15.5342248 15.7472481,17.6001255 C15.9377173,17.7915754 15.9377173,18.1002395 15.7472481,18.2907126 C15.6515252,18.3864375 15.5264993,18.4343 15.4014733,18.4343" id="path-1"></path>
    </defs>
    <g id="wifi" stroke="none" stroke-width="1" fill="none" fill-rule="evenodd">
        <g id="icon/ui/wifi_dark">
            <rect id="bounds" fill="#FF0000" opacity="0" x="0" y="0" width="24" height="24"></rect>
            <mask id="mask-2" fill="white">
                <use xlink:href="#path-1"></use>
            </mask>
            <g id="Mask"></g>
            <g id="Black-058%-(Secondary)" mask="url(#mask-2)" fill="#000000">
                <g transform="translate(-12.000000, -12.000000)" id="Rectangle-435-Copy-4">
                    <rect x="0" y="0" width="48" height="48"></rect>
                </g>
            </g>
        </g>
    </g>
</svg>