<?xml version="1.0" encoding="UTF-8"?>
<svg width="24px" height="24px" viewBox="0 0 24 24" version="1.1" xmlns="http://www.w3.org/2000/svg" xmlns:xlink="http://www.w3.org/1999/xlink">
    <!-- Generator: Sketch 51.2 (57519) - http://www.bohemiancoding.com/sketch -->
    <title>plus</title>
    <desc>Created with Sketch.</desc>
    <defs></defs>
    <g id="plus" stroke="none" stroke-width="1" fill="none" fill-rule="evenodd">
        <rect id="Bounds" fill="#FF0000" opacity="0" x="0" y="0" width="24" height="24"></rect>
        <g id="add-copy-3" transform="translate(2.000000, 2.000000)" fill="#000000" fill-rule="nonzero">
            <path d="M10,20.75 C4.06293894,20.75 -0.75,15.9370611 -0.75,10 C-0.75,4.06293894 4.06293894,-0.75 10,-0.75 C15.9370611,-0.75 20.75,4.06293894 20.75,10 C20.75,15.9370611 15.9370611,20.75 10,20.75 Z M10,19.25 C15.1086339,19.25 19.25,15.1086339 19.25,10 C19.25,4.89136606 15.1086339,0.75 10,0.75 C4.89136606,0.75 0.75,4.89136606 0.75,10 C0.75,15.1086339 4.89136606,19.25 10,19.25 Z" id="Oval-34"></path>
            <g id="Page-1" transform="translate(5.500000, 4.893939)">
                <path d="M3.71399999,0.0799676471 C3.71399999,-0.354128174 4.06590418,-0.706032366 4.5,-0.706032366 C4.93409582,-0.706032366 5.28600001,-0.354128174 5.28600001,0.0799676471 L5.28600001,9.34554118 C5.28600001,9.779637 4.93409582,10.1315412 4.5,10.1315412 C4.06590418,10.1315412 3.71399999,9.779637 3.71399999,9.34554118 L3.71399999,0.0799676471 Z" id="Stroke-1"></path>
                <path d="M0.0799676471,5.59848485 C-0.334245915,5.59848485 -0.670032353,5.26269841 -0.670032353,4.84848485 C-0.670032353,4.43427129 -0.334245915,4.09848485 0.0799676471,4.09848485 L9.34554118,4.09848485 C9.75975474,4.09848485 10.0955412,4.43427129 10.0955412,4.84848485 C10.0955412,5.26269841 9.75975474,5.59848485 9.34554118,5.59848485 L0.0799676471,5.59848485 Z" id="Stroke-3"></path>
            </g>
        </g>
    </g>
</svg>