<?xml version="1.0" encoding="UTF-8"?>
<svg width="24px" height="24px" viewBox="0 0 24 24" version="1.1" xmlns="http://www.w3.org/2000/svg" xmlns:xlink="http://www.w3.org/1999/xlink">
    <!-- Generator: Sketch 52.3 (67297) - http://www.bohemiancoding.com/sketch -->
    <title>barista</title>
    <desc>Created with Sketch.</desc>
    <defs>
        <path d="M2.20339794,11.2947397 C2.30819662,10.7416842 2.58824689,10.2388265 2.99158973,9.8575 L2.99158973,11.9023961 C2.99158973,12.0661992 3.08141717,12.2159117 3.22496495,12.2925292 L3.29805983,12.3303977 C3.30422446,12.3339203 3.31038909,12.3365623 3.31567305,12.3392043 C4.95722556,13.1194704 6.76786502,13.1238737 8.41470149,12.3550562 C8.46137654,12.3330396 8.55736861,12.2493768 8.59435638,12.2115083 C8.67537721,12.1287262 8.72029093,12.0177628 8.72029093,11.9023961 L8.72029093,9.8575 C9.12275311,10.2379458 9.40368404,10.7416842 9.50848272,11.2947397 L10.8101,18.2044102 C10.5036299,18.761869 9.01795443,21.1194 5.83436413,21.1194 C2.66222243,21.1194 1.2073701,18.7759596 0.9009,18.2061716 L2.20339794,11.2947397 Z M11.6713293,18.4562343 C11.7091976,18.3725718 11.7215268,18.2801028 11.7039137,18.1893951 L10.3732385,11.1309253 C10.1698063,10.0512393 9.45999545,9.11245839 8.47629976,8.62369349 C8.33979767,8.55588286 8.1795178,8.56292812 8.04829967,8.64306795 C7.91884285,8.72320779 7.83958357,8.86499364 7.83958357,9.01734738 L7.83958357,11.64611 C6.53708945,12.1974016 5.17294923,12.1894756 3.87221643,11.6249742 L3.87221643,9.01734738 C3.87221643,8.86499364 3.79295715,8.72320779 3.66261968,8.64306795 C3.53404351,8.56292812 3.37112167,8.55500221 3.23550024,8.62369349 C2.25180455,9.11333905 1.54199369,10.0512393 1.33856154,11.1309253 L0.00788634887,18.1893951 C-0.00972682379,18.2801028 0.00260239707,18.3725718 0.0404707183,18.4562343 C0.107400774,18.6006621 1.72605134,22 5.87747614,22 C9.984868,22 11.6043992,18.6006621 11.6713293,18.4562343 L11.6713293,18.4562343 Z M4.10738813,2.88258578 C5.14217231,1.85045948 6.82512769,1.84781751 7.85991187,2.88258578 C8.89469604,3.91735405 8.89469604,5.5994029 7.85991187,6.63417117 C6.85771238,7.6372359 5.11134895,7.63811656 4.10738813,6.63417117 C3.07260396,5.5994029 3.07260396,3.91735405 4.10738813,2.88258578 L4.10738813,2.88258578 Z M8.482482,7.25690133 C9.85983933,5.879544 9.85983933,3.638256 8.482482,2.260018 C7.10336333,0.882660666 4.86207534,0.882660666 3.484718,2.260018 C2.10736067,3.638256 2.10736067,5.879544 3.484718,7.25690133 C4.17339667,7.94558 5.0787185,8.2908 5.98315967,8.2908 C6.8884815,8.2908 7.79380333,7.94558 8.482482,7.25690133 L8.482482,7.25690133 Z M9.1905529,14.028256 C9.41952433,13.9498796 9.54281665,13.6988993 9.4635573,13.4690542 C9.38517862,13.2392091 9.1341907,13.1150399 8.9043386,13.1951774 C7.96027175,13.517489 6.96776863,13.6821673 5.95412969,13.6821673 C5.71018704,13.6821673 5.5138,13.879429 5.5138,14.1224837 C5.5138,14.3655383 5.71018704,14.5628 5.95412969,14.5628 C7.06552182,14.5628 8.15401681,14.3831509 9.1905529,14.028256 L9.1905529,14.028256 Z M10.2472996,8.06882354 C11.1843416,7.13180058 11.7013,5.88478506 11.7013,4.55851008 C11.7013,3.2322351 11.1843416,1.98521958 10.2472996,1.04819662 C10.0746865,0.876467792 9.7963921,0.876467792 9.62465976,1.04819662 C9.45204675,1.22080612 9.45204675,1.49909489 9.62465976,1.67082372 C10.3961343,2.44140182 10.8206214,3.46649084 10.8206214,4.55851008 C10.8206214,5.64964866 10.3961343,6.67561835 9.62465976,7.44619644 C9.45204675,7.61792527 9.45204675,7.89709471 9.62465976,8.06882354 C9.71008559,8.15512829 9.82281246,8.1974 9.93553932,8.1974 C10.0482662,8.1974 10.1609931,8.15512829 10.2472996,8.06882354 L10.2472996,8.06882354 Z M11.1614524,9.3026 C11.0487273,9.3026 10.9360023,9.25944781 10.8496972,9.17402408 C10.6779676,9.00141531 10.6779676,8.7231277 10.8496972,8.55139958 C11.8915231,7.50958236 12.4648356,6.12430891 12.4648356,4.65096975 C12.4648356,3.1776306 11.8915231,1.79323781 10.8496972,0.751420581 C10.6779676,0.579692467 10.6779676,0.301404856 10.8496972,0.128796085 C11.0223074,-0.0429320285 11.3005973,-0.0429320285 11.4723269,0.128796085 C12.6805984,1.33617683 13.3455,2.94337584 13.3455,4.65096975 C13.3455,6.35944432 12.6805984,7.96664334 11.4723269,9.17402408 C11.3869024,9.25944781 11.2741774,9.3026 11.1614524,9.3026 L11.1614524,9.3026 Z" id="path-1"></path>
    </defs>
    <g id="barista" stroke="none" stroke-width="1" fill="none" fill-rule="evenodd">
        <g id="icon/ui/barista_dark">
            <rect id="Rectangle" fill="#FF0000" opacity="0" x="0" y="0" width="24" height="24"></rect>
            <g transform="translate(5.000000, 1.000000)">
                <mask id="mask-2" fill="white">
                    <use xlink:href="#path-1"></use>
                </mask>
                <g id="Mask"></g>
                <g id="Black-058%-(Secondary)" mask="url(#mask-2)" fill="#000000">
                    <g transform="translate(-17.000000, -13.000000)" id="Rectangle-435-Copy-4">
                        <rect x="0" y="0" width="48" height="48"></rect>
                    </g>
                </g>
            </g>
        </g>
    </g>
</svg>