<?xml version="1.0" encoding="UTF-8"?>
<svg width="24px" height="24px" viewBox="0 0 24 24" version="1.1" xmlns="http://www.w3.org/2000/svg" xmlns:xlink="http://www.w3.org/1999/xlink">
    <!-- Generator: Sketch 52.3 (67297) - http://www.bohemiancoding.com/sketch -->
    <title>bicycle</title>
    <desc>Created with Sketch.</desc>
    <defs>
        <path d="M19.0067,18.0356 C17.3449853,18.0356 15.9927,16.6767676 15.9927,15.0074 C15.9927,13.9494588 16.5371392,13.0197821 17.3577149,12.4777922 L17.5398475,13.0265329 C17.6730197,13.4257924 17.8101087,13.8385534 18.066661,14.2175606 L18.5670359,15.2205313 C18.652227,15.3902648 18.8265259,15.4895975 19.0067,15.4895975 C19.0791613,15.4895975 19.1526019,15.4732027 19.2231048,15.4404133 C19.464969,15.3227571 19.5648481,15.0334387 19.4463641,14.7942687 L18.9156337,13.7401851 C18.7011873,13.4161484 18.5885785,13.0815034 18.4710736,12.7256417 L18.2576064,12.0852834 C18.4984914,12.0225978 18.7462309,11.9792 19.0067,11.9792 C20.6684147,11.9792 22.0207,13.337068 22.0207,15.0074 C22.0207,16.6767676 20.6684147,18.0356 19.0067,18.0356 L19.0067,18.0356 Z M7.08291763,12.7459 C7.65576939,13.2714947 8.03767057,14.0266152 8.1023,14.7827 L5.853,14.5956076 L7.08291763,12.7459 Z M8.63987058,10.4053 L10.284,14.9649 L9.10206778,14.866533 C9.05800237,13.759422 8.4998405,12.6445959 7.6342,11.918416 L8.63987058,10.4053 Z M19.0067655,11.0148368 C18.6405395,11.0148368 18.2919393,11.0804154 17.9541105,11.172997 L16.4686429,6.7078635 C16.4030356,6.50919881 16.2150265,6.37611276 16.0035163,6.37611276 L14.1273423,6.37611276 C13.8561001,6.37611276 13.6377353,6.59117211 13.6377353,6.85830861 C13.6377353,7.12448071 13.8561001,7.34050445 14.1273423,7.34050445 L15.6490408,7.34050445 L16.2003383,8.99925816 C16.1797748,9.01565282 16.1552944,9.02626113 16.1366894,9.04651335 L11.1818667,14.5753709 L9.45453332,9.78330861 L15.4248008,9.21817507 C15.6940847,9.19310089 15.8909067,8.95778932 15.8654471,8.6925816 C15.8399875,8.42833828 15.6079138,8.22581602 15.3317755,8.25860534 L9.11768371,8.84591988 L8.43908844,6.96439169 L9.49761873,6.96439169 C9.76788178,6.96439169 9.98722571,6.74836795 9.98722571,6.48219585 C9.98722571,6.21602374 9.76788178,6 9.49761873,6 L6.36903013,6 C6.09876708,6 5.87942315,6.21602374 5.87942315,6.48219585 C5.87942315,6.74836795 6.09876708,6.96439169 6.36903013,6.96439169 L7.40014243,6.96439169 L8.22855744,9.26350148 L4.58392309,14.7431751 C4.48893933,14.8849407 4.47718877,15.0652819 4.55258824,15.2186202 C4.62798772,15.3709941 4.77976588,15.4732196 4.95112832,15.4876855 L8.03173543,15.745178 C7.70076112,17.0567507 6.52570437,18.0356083 5.11759469,18.0356083 C3.6027507,18.0356083 1.97921396,16.818546 1.97921396,15.0074184 C1.97921396,13.337092 3.33150843,11.9792285 4.99323452,11.9792285 C5.3565229,11.9792285 5.53767748,11.9792285 5.83633774,12.0785608 C6.0928918,12.1643917 6.37098856,12.0284125 6.4581386,11.7767062 C6.54430943,11.525 6.40721948,11.2511128 6.15164463,11.1652819 C5.69924779,11.0148368 5.38785775,11.0148368 4.99323452,11.0148368 C2.79098233,11.0148368 1,12.8057122 1,15.0074184 C1,17.1715134 2.88596608,19 5.11759469,19 C7.03881248,19 8.64472337,17.6363501 9.02465839,15.8281157 L10.9576267,15.9891691 C10.9713357,15.9901335 10.9850447,15.9910979 10.9987537,15.9910979 L10.9987537,15.9910979 L10.9987537,15.9910979 L10.9997329,15.9910979 C11.0007122,15.9910979 11.0026706,15.9901335 11.0036498,15.9901335 C11.0565274,15.9891691 11.1103841,15.981454 11.1632617,15.9631306 C11.1652201,15.9621662 11.1671785,15.9602374 11.1701162,15.959273 C11.1759915,15.9563798 11.1818667,15.954451 11.187742,15.9515579 C11.2043887,15.9448071 11.2171184,15.9332344 11.2318066,15.9245549 C11.2650999,15.9062315 11.2993724,15.8908012 11.3267904,15.865727 C11.3287488,15.8647626 11.329728,15.8637982 11.3316865,15.8618694 C11.3375618,15.8560831 11.3404994,15.848368 11.3473539,15.8416172 C11.35225,15.8358309 11.3610629,15.8339021 11.365959,15.8281157 L16.5489384,10.0446588 L17.0493168,11.5491098 C15.8399875,12.2357567 15.013531,13.5203264 15.013531,15.0074184 C15.013531,17.2091246 16.8045133,19 19.0067655,19 C21.2090177,19 23,17.2091246 23,15.0074184 C23,12.8057122 21.2090177,11.0148368 19.0067655,11.0148368 L19.0067655,11.0148368 Z" id="path-1"></path>
    </defs>
    <g id="bicycle" stroke="none" stroke-width="1" fill="none" fill-rule="evenodd">
        <g id="icon/ui/transportation_bicycle_dark">
            <rect id="Rectangle" fill="#FF0000" opacity="0" x="0" y="0" width="24" height="24"></rect>
            <mask id="mask-2" fill="white">
                <use xlink:href="#path-1"></use>
            </mask>
            <g id="Mask"></g>
            <g id="Black-058%-(Secondary)" mask="url(#mask-2)" fill="#000000">
                <g transform="translate(-12.000000, -12.000000)" id="Rectangle-435-Copy-4">
                    <rect x="0" y="0" width="48" height="48"></rect>
                </g>
            </g>
        </g>
    </g>
</svg>