<?xml version="1.0" encoding="UTF-8"?>
<svg width="24px" height="24px" viewBox="0 0 24 24" version="1.1" xmlns="http://www.w3.org/2000/svg" xmlns:xlink="http://www.w3.org/1999/xlink">
    <!-- Generator: Sketch 52.3 (67297) - http://www.bohemiancoding.com/sketch -->
    <title>cake</title>
    <desc>Created with Sketch.</desc>
    <defs>
        <path d="M10.131656,1.3064 C9.6067832,2.05966006 9.1463,2.85999887 9.1463,3.12775928 C9.1463,3.58579632 9.5384912,4.0762 10.1219,4.0762 C10.5833588,4.0762 11.0975,3.68681948 11.0975,3.12775928 C11.0975,2.79918881 10.6457972,2.01650453 10.131656,1.3064 M10.1219,5.057 C8.9541068,5.057 8.1707,4.05952735 8.1707,3.12776823 C8.1707,2.30585861 9.3677612,0.672828161 9.7345868,0.192236618 C9.8253176,0.0735599302 9.9648284,0.00196159814 10.1140952,0 C10.2818984,0.0176543832 10.404824,0.0647327386 10.4994572,0.180467029 C10.7618936,0.503149922 12.0731,2.16266195 12.0731,3.12776823 C12.0731,4.28118794 11.0643296,5.057 10.1219,5.057 M17.6302522,13.4840921 C17.2526908,13.7871628 16.9551295,14.0255 16.3414703,14.0255 C15.7112257,14.0255 15.4195181,13.8048174 15.0497616,13.5252862 C14.6380538,13.2133881 14.1258581,12.8269484 13.1707351,12.8269484 C12.2146365,12.8269484 11.7034165,13.2133881 11.2917087,13.5252862 C10.9219522,13.8048174 10.629269,14.0255 10,14.0255 C9.36975542,14.0255 9.07804778,13.8048174 8.70829129,13.5252862 C8.29658352,13.2133881 7.78438785,12.8269484 6.82926486,12.8269484 C5.87316627,12.8269484 5.36194621,13.2133881 4.95023844,13.5252862 C4.58048195,13.8048174 4.2877987,14.0255 3.65852973,14.0255 C2.98633388,14.0255 2.69462625,13.7930477 2.32682097,13.4988042 C2.01169868,13.2477165 1.65560074,12.964262 1.01267321,12.8338141 C1.0029171,12.8279292 0.9756,12.79262 0.9756,12.7180783 L0.9756,11.6391857 C0.9756,11.189974 1.36681994,10.8104 1.82925946,10.8104 L18.1707405,10.8104 C18.6331801,10.8104 19.0244,11.189974 19.0244,11.6391857 L19.0244,12.5984193 C19.0244,12.6425558 19.0244,12.761234 18.786351,12.8406797 C18.2770821,12.9662236 17.9336671,13.2408508 17.6302522,13.4840921 M18.1707317,9.82960352 L10.4878049,9.82960352 L10.4878049,5.88480287 C10.4878049,5.61410048 10.2692683,5.3944 10,5.3944 C9.7297561,5.3944 9.51219512,5.61410048 9.51219512,5.88480287 L9.51219512,9.82960352 L1.82926829,9.82960352 C0.820487805,9.82960352 0,10.6417107 0,11.6391901 L0,12.7180764 C0,13.2938094 0.40195122,13.7675385 0.909268293,13.8048092 C1.24292683,13.886216 1.45365854,14.0558954 1.72,14.2667687 C2.13268293,14.5963194 2.64585366,15.0062962 3.65853659,15.0062962 C4.61365854,15.0062962 5.12585366,14.6198587 5.53756098,14.3079625 C5.90731707,14.0284329 6.19902439,13.8077516 6.82926829,13.8077516 C7.45853659,13.8077516 7.75121951,14.0284329 8.12097561,14.3079625 C8.53268293,14.6198587 9.04390244,15.0062962 10,15.0062962 C10.955122,15.0062962 11.4673171,14.6198587 11.8790244,14.3079625 C12.2487805,14.0284329 12.5404878,13.8077516 13.1707317,13.8077516 C13.8,13.8077516 14.0926829,14.0284329 14.462439,14.3079625 C14.8741463,14.6198587 15.3853659,15.0062962 16.3414634,15.0062962 C17.2965854,15.0062962 17.8185366,14.5874921 18.2390244,14.2510758 C18.3395122,14.1696689 18.4370732,14.0990509 18.5365854,14.0303945 L18.5365854,19.3110525 C18.5365854,19.7612424 18.2692683,20.0191943 17.804878,20.0191943 L2.07317073,20.0191943 C1.73073171,20.0191943 1.34146341,19.6415841 1.34146341,19.3110525 L1.34146341,14.6355516 C1.34146341,14.3648492 1.12292683,14.1451487 0.853658537,14.1451487 C0.583414634,14.1451487 0.365853659,14.3648492 0.365853659,14.6355516 L0.365853659,19.3110525 C0.365853659,20.1790656 1.19512195,21 2.07317073,21 L17.804878,21 C18.8097561,21 19.5121951,20.3055895 19.5121951,19.3110525 L19.5121951,13.53803 C19.8185366,13.3065598 20,12.9809323 20,12.5984181 L20,11.6391901 C20,10.6417107 19.1785366,9.82960352 18.1707317,9.82960352" id="path-1"></path>
    </defs>
    <g id="cake" stroke="none" stroke-width="1" fill="none" fill-rule="evenodd">
        <g id="ui/bday_cake_24">
            <rect id="Rectangle" fill="#FF0000" opacity="0" x="0" y="0" width="24" height="24"></rect>
            <g id="icon/ui/bday_cake_dark" stroke-width="1" transform="translate(2.000000, 2.000000)">
                <mask id="mask-2" fill="white">
                    <use xlink:href="#path-1"></use>
                </mask>
                <g id="bday_cake"></g>
                <g id="Black-058%-(Secondary)" mask="url(#mask-2)" fill="#000000">
                    <g transform="translate(-14.000000, -14.000000)" id="Rectangle-435-Copy-4">
                        <rect x="0" y="0" width="48" height="48"></rect>
                    </g>
                </g>
            </g>
        </g>
    </g>
</svg>