<?xml version="1.0" encoding="UTF-8"?>
<svg width="24px" height="24px" viewBox="0 0 24 24" version="1.1" xmlns="http://www.w3.org/2000/svg" xmlns:xlink="http://www.w3.org/1999/xlink">
    <!-- Generator: Sketch 52.3 (67297) - http://www.bohemiancoding.com/sketch -->
    <title>calendar</title>
    <desc>Created with Sketch.</desc>
    <defs>
        <path d="M14.5351,16.7527 L17.0803,16.7527 L17.0803,14.3276 L14.5351,14.3276 L14.5351,16.7527 Z M17.5836997,13.3226 L14.0307003,13.3226 C13.7528233,13.3226 13.5273,13.5477269 13.5273,13.8251153 L13.5273,17.2552847 C13.5273,17.5326731 13.7528233,17.7578 14.0307003,17.7578 L17.5836997,17.7578 C17.8615767,17.7578 18.0871,17.5326731 18.0871,17.2552847 L18.0871,13.8251153 C18.0871,13.5477269 17.8615767,13.3226 17.5836997,13.3226 L17.5836997,13.3226 Z M3.0566,16.7527 L5.6028,16.7527 L5.6028,14.3276 L3.0566,14.3276 L3.0566,16.7527 Z M6.10619969,13.3226 L2.55320031,13.3226 C2.27532334,13.3226 2.0498,13.5477269 2.0498,13.8251153 L2.0498,17.2552847 C2.0498,17.5326731 2.27532334,17.7578 2.55320031,17.7578 L6.10619969,17.7578 C6.38407666,17.7578 6.6096,17.5326731 6.6096,17.2552847 L6.6096,13.8251153 C6.6096,13.5477269 6.38407666,13.3226 6.10619969,13.3226 L6.10619969,13.3226 Z M8.7954,16.7527 L11.3416,16.7527 L11.3416,14.3276 L8.7954,14.3276 L8.7954,16.7527 Z M11.8449997,13.3226 L8.29200031,13.3226 C8.01412334,13.3226 7.7886,13.5477269 7.7886,13.8251153 L7.7886,17.2552847 C7.7886,17.5326731 8.01412334,17.7578 8.29200031,17.7578 L11.8449997,17.7578 C12.1228767,17.7578 12.3484,17.5326731 12.3484,17.2552847 L12.3484,13.8251153 C12.3484,13.5477269 12.1228767,13.3226 11.8449997,13.3226 L11.8449997,13.3226 Z M14.5351,11.3447 L17.0803,11.3447 L17.0803,8.9196 L14.5351,8.9196 L14.5351,11.3447 Z M17.5836997,7.9146 L14.0307003,7.9146 C13.7528233,7.9146 13.5273,8.13972685 13.5273,8.4171153 L13.5273,11.8472847 C13.5273,12.1246731 13.7528233,12.3498 14.0307003,12.3498 L17.5836997,12.3498 C17.8615767,12.3498 18.0871,12.1246731 18.0871,11.8472847 L18.0871,8.4171153 C18.0871,8.13972685 17.8615767,7.9146 17.5836997,7.9146 L17.5836997,7.9146 Z M3.0566,11.3447 L5.6028,11.3447 L5.6028,8.9196 L3.0566,8.9196 L3.0566,11.3447 Z M6.10619969,7.9146 L2.55320031,7.9146 C2.27532334,7.9146 2.0498,8.13972685 2.0498,8.4171153 L2.0498,11.8472847 C2.0498,12.1246731 2.27532334,12.3498 2.55320031,12.3498 L6.10619969,12.3498 C6.38407666,12.3498 6.6096,12.1246731 6.6096,11.8472847 L6.6096,8.4171153 C6.6096,8.13972685 6.38407666,7.9146 6.10619969,7.9146 L6.10619969,7.9146 Z M8.7954,11.3447 L11.3416,11.3447 L11.3416,8.9196 L8.7954,8.9196 L8.7954,11.3447 Z M11.8449997,7.9146 L8.29200031,7.9146 C8.01412334,7.9146 7.7886,8.13972685 7.7886,8.4171153 L7.7886,11.8472847 C7.7886,12.1246731 8.01412334,12.3498 8.29200031,12.3498 L11.8449997,12.3498 C12.1228767,12.3498 12.3484,12.1246731 12.3484,11.8472847 L12.3484,8.4171153 C12.3484,8.13972685 12.1228767,7.9146 11.8449997,7.9146 L11.8449997,7.9146 Z M18.9932,18.995 L1.0068,18.995 L1.0068,6.39901771 L18.2662937,6.39901771 C18.545176,6.39901771 18.7696914,6.17389204 18.7696914,5.89650505 C18.7696914,5.61811304 18.545176,5.39399239 18.2662937,5.39399239 L1.0068,5.39399239 L1.0068,3.66836392 C1.0068,3.2663538 1.36924635,3.1156 1.59678211,3.1156 L18.4032179,3.1156 C18.8361399,3.1156 18.9932,3.44625333 18.9932,3.66836392 L18.9932,18.995 Z M18.4032217,2.11055276 L16.5497105,2.11055276 L16.5497105,0.502512563 C16.5497105,0.225125628 16.3241883,0 16.0463126,0 C15.7684369,0 15.5429147,0.225125628 15.5429147,0.502512563 L15.5429147,2.11055276 L3.39793607,2.11055276 L3.39793607,0.502512563 C3.39793607,0.225125628 3.17342059,0 2.89453813,0 C2.61666247,0 2.3911402,0.225125628 2.3911402,0.502512563 L2.3911402,2.11055276 L1.59677825,2.11055276 C0.812484269,2.11055276 0,2.69346734 0,3.66834171 L0,19.4974874 C0,19.7758794 0.225522275,20 0.503397936,20 L19.4966021,20 C19.7744777,20 20,19.7758794 20,19.4974874 L20,3.66834171 C20,2.90251256 19.4019633,2.11055276 18.4032217,2.11055276 L18.4032217,2.11055276 Z" id="path-1"></path>
    </defs>
    <g id="calendar" stroke="none" stroke-width="1" fill="none" fill-rule="evenodd">
        <g id="ui/calendar_24">
            <rect id="Rectangle" fill="#FF0000" opacity="0" x="0" y="0" width="24" height="24"></rect>
            <g id="icon/ui/calendar_dark" stroke-width="1" transform="translate(2.000000, 2.000000)">
                <mask id="mask-2" fill="white">
                    <use xlink:href="#path-1"></use>
                </mask>
                <g id="Mask"></g>
                <g id="Black-058%-(Secondary)" fill="#D8D8D8" mask="url(#mask-2)">
                    <g transform="translate(-14.000000, -14.000000)" fill="#000000" id="Rectangle-435-Copy-4">
                        <rect x="0" y="0" width="48" height="48"></rect>
                    </g>
                </g>
            </g>
        </g>
    </g>
</svg>