<?xml version="1.0" encoding="UTF-8"?>
<svg width="24px" height="24px" viewBox="0 0 24 24" version="1.1" xmlns="http://www.w3.org/2000/svg" xmlns:xlink="http://www.w3.org/1999/xlink">
    <!-- Generator: Sketch 52.3 (67297) - http://www.bohemiancoding.com/sketch -->
    <title>camera</title>
    <desc>Created with Sketch.</desc>
    <defs>
        <path d="M19.9795,10.442713 L19.9795,13.988087 C19.9795,14.259899 19.7589048,14.4805 19.4871,14.4805 C19.2152952,14.4805 18.9947,14.259899 18.9947,13.988087 L18.9947,10.442713 C18.9947,10.170901 19.2152952,9.9503 19.4871,9.9503 C19.7589048,9.9503 19.9795,10.170901 19.9795,10.442713 L19.9795,10.442713 Z M11.8113924,18.0544 C9.44584568,18.0544 7.5215,16.1162644 7.5215,13.7349576 C7.5215,11.3536508 9.44584568,9.4165 11.8113924,9.4165 C14.1759543,9.4165 16.1003,11.3536508 16.1003,13.7349576 C16.1003,16.1162644 14.1759543,18.0544 11.8113924,18.0544 L11.8113924,18.0544 Z M11.8114424,8.4317 C8.90225849,8.4317 6.5367,10.811026 6.5367,13.7349576 C6.5367,16.6588892 8.90225849,19.0392 11.8114424,19.0392 C14.7196415,19.0392 17.0852,16.6588892 17.0852,13.7349576 C17.0852,10.811026 14.7196415,8.4317 11.8114424,8.4317 L11.8114424,8.4317 Z M20.8717272,19.7001 L3.00212171,19.7001 C2.39350137,19.7001 1.9848,19.2874588 1.9848,18.6729286 L1.9848,11.0759964 C1.9848,9.18316471 3.51422945,7.6429 5.39327091,7.6429 L18.6056505,7.6429 C20.4856768,7.6429 22.0151062,9.18316471 22.0151062,11.0759964 L22.022,18.7192153 C21.9432142,19.1919308 21.55027,19.7001 20.8717272,19.7001 L20.8717272,19.7001 Z M5.0043,5.50480102 C5.0043,5.12267906 5.31254791,4.9848 5.5193596,4.9848 L8.53881035,4.9848 C8.6363073,4.9848 8.67274555,4.9848 8.6757,5.12464876 L8.6757,6.532 L5.0043,6.532 L5.0043,5.50480102 Z M18.605712,6.65804185 L9.66054882,6.65804185 L9.66054882,5.11383673 C9.64577644,4.44711041 9.19472671,4 8.53883343,4 L5.51936076,4 C4.78172702,4 4.01947267,4.5623349 4.01947267,5.50481214 L4.01947267,6.90129355 C2.27239357,7.48430977 1,9.12502772 1,11.0759654 L1,18.6729031 C1,19.8389356 1.84202516,20.6849 3.00214871,20.6849 L20.8717937,20.6849 C21.9442679,20.6849 22.8168226,19.9423422 23,18.7999455 L23,11.0759654 C23,8.63950914 21.0283809,6.65804185 18.605712,6.65804185 L18.605712,6.65804185 Z" id="path-1"></path>
    </defs>
    <g id="camera" stroke="none" stroke-width="1" fill="none" fill-rule="evenodd">
        <g id="icon/ui/camera_dark">
            <rect id="bounds" fill="#FF0000" opacity="0" x="0" y="0" width="24" height="24"></rect>
            <mask id="mask-2" fill="white">
                <use xlink:href="#path-1"></use>
            </mask>
            <g id="Mask"></g>
            <g id="Black-058%-(Secondary)" mask="url(#mask-2)" fill="#000000">
                <g transform="translate(-12.000000, -12.000000)" id="Rectangle-435-Copy-4">
                    <rect x="0" y="0" width="48" height="48"></rect>
                </g>
            </g>
        </g>
    </g>
</svg>