<?xml version="1.0" encoding="UTF-8"?>
<svg width="24px" height="24px" viewBox="0 0 24 24" version="1.1" xmlns="http://www.w3.org/2000/svg" xmlns:xlink="http://www.w3.org/1999/xlink">
    <!-- Generator: Sketch 52.3 (67297) - http://www.bohemiancoding.com/sketch -->
    <title>car</title>
    <desc>Created with Sketch.</desc>
    <defs>
        <path d="M17.1219,10.962 C16.1557897,10.962 15.3703,10.1886361 15.3703,9.2388 C15.3703,8.28896386 16.1557897,7.5156 17.1219,7.5156 C18.0880103,7.5156 18.8735,8.28896386 18.8735,9.2388 C18.8735,10.1886361 18.0880103,10.962 17.1219,10.962 M23.9676863,7.79480969 L23.8185691,6.83148789 C23.6810031,6.42560554 23.5203345,6.08719723 23.2515034,5.83702422 L22.427158,4.63598616 C22.1572767,4.37024221 21.9220495,4.13875433 21.5020009,4.11384083 L17.8034727,3.11937716 C17.7572673,3.10795848 17.6522552,3.04982699 17.5955486,2.99480969 C15.3398874,1.03598616 12.5948696,0 9.65767957,0 L7.00087198,0 C6.90846128,0 6.79399803,0 4.74836119,0.638408304 L2.8360898,1.37543253 L1.65050253,1.95467128 C1.20420086,2.24740484 0.860811106,2.69688581 0.667588736,3.27820069 L0.0343654235,6.27093426 C-0.131553786,7.08477509 0.312647642,7.9349481 1.16534636,8.4384083 C1.41212493,8.58477509 1.73556238,8.50588235 1.88467965,8.25882353 C2.03379691,8.01384083 1.95293755,7.69515571 1.70300861,7.54775087 C1.23885487,7.27266436 0.986825696,6.85224913 1.06243445,6.48062284 L1.67885582,3.54913495 C1.7219108,3.42145329 1.83532393,3.22629758 1.9896918,3.04878893 L15.4995059,5.76124567 C15.5341599,5.76851211 15.5688139,5.7716263 15.6045181,5.7716263 C15.8491964,5.7716263 16.0676217,5.60138408 16.1180275,5.35640138 C16.1757842,5.07508651 15.9920129,4.80103806 15.7084801,4.74394464 L3.3958046,2.27128028 L5.09700156,1.61730104 C5.94760003,1.35259516 6.91791237,1.06089965 7.00087198,1.03806228 L9.65767957,1.03806228 C12.3365397,1.03806228 14.8421298,1.98477509 16.8772654,3.75155709 C17.0568362,3.92802768 17.3823739,4.11072664 17.6606561,4.14705882 L21.2846257,5.13010381 C21.3297809,5.14359862 21.390688,5.14878893 21.4379434,5.14878893 C21.4767979,5.16643599 21.5923113,5.27958478 21.6196145,5.29204152 L22.4439599,6.49307958 C22.61723,6.66228374 22.7096407,6.82525952 22.8010013,7.07024221 L22.9333166,7.97024221 C23.0078752,8.33979239 22.7694976,8.72283737 22.367301,8.8816609 C22.3011434,8.90761246 22.3011434,8.90553633 22.2507375,8.95432526 C22.2097828,8.96885813 22.0984699,8.96885813 22.0564651,8.96885813 L19.896365,8.96885813 C19.7566988,7.57474048 18.5732118,6.47750865 17.1219438,6.47750865 C15.5772149,6.47750865 14.3202194,7.71695502 14.3202194,9.23875433 C14.3202194,10.7615917 15.5772149,12 17.1219438,12 C18.3946911,12 19.4595144,11.1539792 19.7997538,10.0069204 L22.0564651,10.0069204 C22.2150334,10.0069204 22.5636738,10.0069204 22.8356553,9.81280277 C23.6600007,9.44844291 24.1315053,8.60242215 23.9676863,7.79480969 M5.22932493,10.962 C4.26320087,10.962 3.4777,10.1886361 3.4777,9.2388 C3.4777,8.28896386 4.26320087,7.5156 5.22932493,7.5156 C6.195449,7.5156 6.982,8.28896386 6.982,9.2388 C6.982,10.1886361 6.195449,10.962 5.22932493,10.962 M13.1997396,7.55708647 C13.1997396,7.55708647 7.46712991,7.56642904 7.4461275,7.56954323 C6.93366853,6.91037265 6.13557669,6.4775 5.2293224,6.4775 C3.68459465,6.4775 2.4276,7.71694831 2.4276,9.23875 C2.4276,10.7615898 3.68459465,12 5.2293224,12 C6.77405016,12 8.03209492,10.7615898 8.03209492,9.23875 C8.03209492,9.01660432 7.99744094,8.80276316 7.94703514,8.59515038 L13.1997396,8.59515038 C13.4906231,8.59515038 13.7248,8.36366212 13.7248,8.07611842 C13.7248,7.78961278 13.4906231,7.55708647 13.1997396,7.55708647" id="path-1"></path>
    </defs>
    <g id="car" stroke="none" stroke-width="1" fill="none" fill-rule="evenodd">
        <g id="icon/ui/car_dark">
            <rect id="Rectangle" fill="#FF0000" opacity="0" x="0" y="0" width="24" height="24"></rect>
            <g id="icon/ui/subaru_dark" transform="translate(0.000000, 6.000000)">
                <mask id="mask-2" fill="white">
                    <use xlink:href="#path-1"></use>
                </mask>
                <g id="willys_whip_2"></g>
                <g id="Black-058%-(Secondary)" mask="url(#mask-2)" fill="#000000">
                    <g transform="translate(-12.000000, -18.000000)" id="Rectangle-435-Copy-4">
                        <rect x="0" y="0" width="48" height="48"></rect>
                    </g>
                </g>
            </g>
        </g>
    </g>
</svg>