<?xml version="1.0" encoding="UTF-8"?>
<svg width="24px" height="25px" viewBox="0 0 24 25" version="1.1" xmlns="http://www.w3.org/2000/svg" xmlns:xlink="http://www.w3.org/1999/xlink">
    <!-- Generator: Sketch 52.3 (67297) - http://www.bohemiancoding.com/sketch -->
    <title>coffee-cup</title>
    <desc>Created with Sketch.</desc>
    <defs>
        <path d="M17.74995,6.5201 L6.24995,6.5201 L5.72395,6.5201 L5.85495,5.8011 L5.87395,5.7631 C5.92595,5.6531 6.08495,5.3181 6.12495,5.2701 L7.24495,5.2691 C7.24695,5.2691 7.24795,5.2701 7.24995,5.2701 C7.25295,5.2701 7.25695,5.2691 7.25995,5.2691 L17.93395,5.2551 C17.93995,5.2591 18.07695,5.3511 18.25795,5.8761 L18.32195,6.5201 L17.74995,6.5201 Z M16.24995,21.1451 C16.24995,21.3341 16.00195,21.5201 15.74995,21.5201 L8.24995,21.5201 C7.99795,21.5201 7.74995,21.3341 7.74895,21.1101 L6.78695,7.5201 L17.21295,7.5201 L16.24995,21.1451 Z M19.24792,5.7201 C19.24392,5.6841 19.23592,5.6471 19.22392,5.6121 C19.11392,5.2801 18.77692,4.2701 17.99992,4.2701 L10.81791,4.2701 L15.22292,3.0101 C15.41592,2.9731 15.61492,3.0141 15.74292,3.1191 C15.83192,3.1921 15.87492,3.2821 15.87492,3.3951 C15.87492,3.6711 16.09892,3.8951 16.37492,3.8951 C16.65092,3.8951 16.87492,3.6711 16.87492,3.3951 C16.87492,2.9811 16.69792,2.6091 16.37692,2.3461 C16.01692,2.0511 15.51192,1.9311 14.98792,2.0391 L7.178913,4.2701 L6.124912,4.2701 C5.476912,4.2701 5.146912,4.9611 4.927912,5.4211 C4.906912,5.4641 4.891912,5.5091 4.882911,5.5561 L4.632911,6.9311 C4.605911,7.0771 4.645911,7.2271 4.740911,7.3401 C4.835911,7.4541 4.976912,7.5201 5.124912,7.5201 L5.783912,7.5201 L6.749912,21.1451 C6.749912,21.8901 7.436913,22.5201 8.249913,22.5201 L15.74992,22.5201 C16.56292,22.5201 17.24992,21.8901 17.24892,21.1801 L18.21592,7.5201 L18.87492,7.5201 C19.01592,7.5201 19.15092,7.4601 19.24592,7.3551 C19.33992,7.2511 19.38692,7.1111 19.37292,6.9701 L19.24792,5.7201 Z M12.12495,11.2701 C13.22795,11.2701 14.12495,12.1671 14.12495,13.2701 C14.12495,14.3731 13.22795,15.2701 12.12495,15.2701 C11.02195,15.2701 10.12495,14.3731 10.12495,13.2701 C10.12495,12.1671 11.02195,11.2701 12.12495,11.2701 Z M12.12495,16.2701 C13.77895,16.2701 15.12495,14.9241 15.12495,13.2701 C15.12495,11.6161 13.77895,10.2701 12.12495,10.2701 C10.47095,10.2701 9.12495,11.6161 9.12495,13.2701 C9.12495,14.9241 10.47095,16.2701 12.12495,16.2701 Z" id="path-1"></path>
    </defs>
    <g id="coffee-cup" stroke="none" stroke-width="1" fill="none" fill-rule="evenodd">
        <g id="ui/coffee_cup_24">
            <g id="ui/coffee_cup">
                <rect id="Bounds" fill="#FF0000" opacity="0" x="0" y="0.5" width="24" height="24"></rect>
                <mask id="mask-2" fill="white">
                    <use xlink:href="#path-1"></use>
                </mask>
                <g id="Clip-5"></g>
                <g id="Black-058%-(Secondary)" mask="url(#mask-2)" fill="#000000">
                    <g transform="translate(-12.000000, -11.500000)" id="Rectangle-435-Copy-4">
                        <rect x="0" y="0" width="48" height="48"></rect>
                    </g>
                </g>
            </g>
        </g>
    </g>
</svg>