<?xml version="1.0" encoding="UTF-8"?>
<svg width="24px" height="24px" viewBox="0 0 24 24" version="1.1" xmlns="http://www.w3.org/2000/svg" xmlns:xlink="http://www.w3.org/1999/xlink">
    <!-- Generator: Sketch 52.3 (67297) - http://www.bohemiancoding.com/sketch -->
    <title>credit-card</title>
    <desc>Created with Sketch.</desc>
    <defs>
        <path d="M19.5935,9.135 L18.1955,9.135 C17.9185,9.135 17.6955,8.911 17.6955,8.635 C17.6955,8.359 17.9185,8.135 18.1955,8.135 L19.5935,8.135 C19.8695,8.135 20.0935,8.359 20.0935,8.635 C20.0935,8.911 19.8695,9.135 19.5935,9.135 M10.8015,9.135 L4.0245,9.135 C3.7475,9.135 3.5245,8.911 3.5245,8.635 C3.5245,8.359 3.7475,8.135 4.0245,8.135 L10.8015,8.135 C11.0775,8.135 11.3015,8.359 11.3015,8.635 C11.3015,8.911 11.0775,9.135 10.8015,9.135 M21.0245,14.164 L2.9775,14.164 C2.3255,14.164 1.7955,13.638 1.7955,12.99 L1.7955,5.302 L22.2045,5.302 L22.2045,12.99 C22.2045,13.638 21.6755,14.164 21.0245,14.164 M2.9775,1.836 L21.0245,1.836 C21.6755,1.836 22.2045,2.363 22.2045,3.01 L22.2045,3.302 L1.7955,3.302 L1.7955,3.01 C1.7955,2.363 2.3255,1.836 2.9775,1.836 M21.0245,0.836 L2.9775,0.836 C1.7745,0.836 0.7955,1.812 0.7955,3.01 L0.7955,12.99 C0.7955,14.189 1.7745,15.164 2.9775,15.164 L21.0245,15.164 C22.2265,15.164 23.2045,14.189 23.2045,12.99 L23.2045,3.01 C23.2045,1.812 22.2265,0.836 21.0245,0.836" id="path-1"></path>
    </defs>
    <g id="credit-card" stroke="none" stroke-width="1" fill="none" fill-rule="evenodd">
        <g id="ui/credit_card_24">
            <rect id="Rectangle" fill="#FF0000" opacity="0" x="0" y="0" width="24" height="24"></rect>
            <g id="icon/ui/credit_card_dark" stroke-width="1" transform="translate(0.000000, 4.000000)">
                <mask id="mask-2" fill="white">
                    <use xlink:href="#path-1"></use>
                </mask>
                <g id="Mask"></g>
                <g id="Black-058%-(Secondary)" mask="url(#mask-2)" fill="#000000">
                    <g transform="translate(-12.000000, -16.000000)" id="Rectangle-435-Copy-4">
                        <rect x="0" y="0" width="48" height="48"></rect>
                    </g>
                </g>
            </g>
        </g>
    </g>
</svg>