<?xml version="1.0" encoding="UTF-8"?>
<svg width="24px" height="24px" viewBox="0 0 24 24" version="1.1" xmlns="http://www.w3.org/2000/svg" xmlns:xlink="http://www.w3.org/1999/xlink">
    <!-- Generator: Sketch 52.3 (67297) - http://www.bohemiancoding.com/sketch -->
    <title>help</title>
    <desc>Created with Sketch.</desc>
    <defs>
        <path d="M17.0381386,18.9861 L14.8867,15.5710804 C15.2751272,15.2400922 15.6197467,14.8604292 15.9156912,14.4428 L19.321,16.5883824 C18.6999059,17.510282 17.9230516,18.3153621 17.0381386,18.9861 M5.9266,19.6334205 L7.9865224,16.2621876 C8.86267087,16.7499114 9.86926811,17.0302796 10.9410897,17.0302796 C12.0956587,17.0302796 13.1733213,16.7012364 14.0942507,16.1405 L16.234,19.5360704 C14.7085282,20.4745251 12.9202118,21.0265 11.0004731,21.0265 C9.14790587,21.0265 7.4170259,20.5124916 5.9266,19.6334205 M2.6995,16.6165469 L6.024976,14.5206 C6.3530455,14.9703573 6.7404985,15.3743601 7.1776,15.7199528 L5.1128065,19.098 C4.1743525,18.4136291 3.3527185,17.5783655 2.6995,16.6165469 M2.30037891,6.0357 L5.5616,8.08976899 C5.10892304,8.94060136 4.84997235,9.9101998 4.84997235,10.9391813 C4.84997235,11.9301966 5.09237356,12.8637758 5.51389856,13.6922178 L2.19232054,15.7862 C1.41546847,14.3629541 0.9735,12.7313808 0.9735,10.9995378 C0.9735,9.19273589 1.46122292,7.50080608 2.30037891,6.0357 M5.21600444,2.8241 L7.273,6.08822972 C6.82616566,6.42700608 6.42800608,6.82516566 6.08922972,7.272 L2.8251,5.21500444 C3.48220932,4.29018391 4.29021042,3.48120932 5.21600444,2.8241 M16.0948,2.37923788 L14.0095787,5.6872 C13.1071509,5.15761454 12.0606463,4.84901419 10.9411297,4.84901419 C9.91117441,4.84901419 8.94157569,5.1079659 8.09074308,5.56064465 L6.0357,2.30038416 C7.50178,1.46122485 9.1937103,0.9735 11.0005127,0.9735 C12.8618308,0.9735 14.5995152,1.49237693 16.0948,2.37923788 M19.2275,5.28409746 L15.882551,7.3917 C15.5739512,6.96433856 15.2166764,6.57494317 14.8117,6.24006314 L16.9066739,2.9156 C17.8042417,3.57270472 18.5908304,4.37096527 19.2275,5.28409746 M10.9410367,16.0568 C8.11888934,16.0568 5.8234,13.7613107 5.8234,10.9391633 C5.8234,8.11798934 8.11888934,5.8225 10.9410367,5.8225 C13.7622107,5.8225 16.0577,8.11798934 16.0577,10.9391633 C16.0577,13.7613107 13.7622107,16.0568 10.9410367,16.0568 M19.8252399,15.7551 L16.4092638,13.6036676 C16.8045007,12.7976105 17.0313238,11.8961506 17.0313238,10.9392012 C17.0313238,9.9637554 16.7947658,9.043799 16.3859,8.22508648 L19.7454138,6.1087 C20.5582779,7.55726627 21.0275,9.22389629 21.0275,10.9995582 C21.0275,12.7197306 20.5913765,14.3396327 19.8252399,15.7551 M20.3577395,5.24616133 C20.347031,5.21890349 20.2934888,5.13226249 20.2779128,5.1137661 C19.4465476,3.8083101 18.3533121,2.68587106 17.0644039,1.83114297 C17.052722,1.82238152 17.0021002,1.7912297 16.9865243,1.78344175 C15.2614901,0.660029205 13.208388,0 11.0005,0 C8.90359053,0 6.94783792,0.600646046 5.27829301,1.62281517 C5.12934819,1.70069472 5.05438903,1.74742245 4.93367558,1.83308996 C1.96354058,3.80441612 0,7.17562724 0,10.9995133 C0,17.0643834 4.93562257,22 11.0005,22 C17.0663509,22 22.001,17.0643834 22.001,10.9995133 C22.001,8.88897739 21.3925653,6.9225187 20.3577395,5.24616133" id="path-1"></path>
    </defs>
    <g id="help" stroke="none" stroke-width="1" fill="none" fill-rule="evenodd">
        <g id="ui/help_24">
            <rect id="Rectangle" fill="#FF0000" opacity="0" x="0" y="0" width="24" height="24"></rect>
            <g id="icon/ui/help_dark" stroke-width="1" transform="translate(1.000000, 1.000000)">
                <mask id="mask-2" fill="white">
                    <use xlink:href="#path-1"></use>
                </mask>
                <g id="help"></g>
                <g id="Black-058%-(Secondary)" mask="url(#mask-2)" fill="#000000">
                    <g transform="translate(-13.000000, -13.000000)" id="Rectangle-435-Copy-4">
                        <rect x="0" y="0" width="48" height="48"></rect>
                    </g>
                </g>
            </g>
        </g>
    </g>
</svg>