<?xml version="1.0" encoding="UTF-8"?>
<svg width="24px" height="24px" viewBox="0 0 24 24" version="1.1" xmlns="http://www.w3.org/2000/svg" xmlns:xlink="http://www.w3.org/1999/xlink">
    <!-- Generator: Sketch 52.3 (67297) - http://www.bohemiancoding.com/sketch -->
    <title>list-view</title>
    <desc>Created with Sketch.</desc>
    <defs>
        <path d="M23,5.35075 C23,5.0769856 22.7778183,4.8548 22.5040588,4.8548 L8.78434121,4.8548 C8.51058166,4.8548 8.2884,5.0769856 8.2884,5.35075 C8.2884,5.6245144 8.51058166,5.8467 8.78434121,5.8467 L22.5040588,5.8467 C22.7778183,5.8467 23,5.6245144 23,5.35075 M3.42515,3.9919 C2.6346308,3.9919 1.9919,4.60191533 1.9919,5.35079595 C1.9919,6.09967656 2.6346308,6.7087 3.42515,6.7087 C4.2156692,6.7087 4.8584,6.09967656 4.8584,5.35079595 C4.8584,4.60191533 4.2156692,3.9919 3.42515,3.9919 M3.42515,7.7005 C2.08809389,7.7005 1,6.64613589 1,5.35074594 C1,4.05436411 2.08809389,3 3.42515,3 C4.76220611,3 5.8503,4.05436411 5.8503,5.35074594 C5.8503,6.64613589 4.76220611,7.7005 3.42515,7.7005 M23,19.08445 C23,18.8096937 22.7778183,18.5885 22.5040588,18.5885 L8.78434121,18.5885 C8.51058166,18.5885 8.2884,18.8096937 8.2884,19.08445 C8.2884,19.3582144 8.51058166,19.5804 8.78434121,19.5804 L22.5040588,19.5804 C22.7778183,19.5804 23,19.3582144 23,19.08445 M3.42515,17.7265 C2.6346308,17.7265 1.9919,18.3355216 1.9919,19.0844 C1.9919,19.8332784 2.6346308,20.4423 3.42515,20.4423 C4.2156692,20.4423 4.8584,19.8332784 4.8584,19.0844 C4.8584,18.3355216 4.2156692,17.7265 3.42515,17.7265 M3.42515,21.4341 C2.08809389,21.4341 1,20.3797377 1,19.08435 C1,17.7889623 2.08809389,16.7346 3.42515,16.7346 C4.76220611,16.7346 5.8503,17.7889623 5.8503,19.08435 C5.8503,20.3797377 4.76220611,21.4341 3.42515,21.4341 M23,12.21755 C23,11.9427937 22.7778183,11.7216 22.5040588,11.7216 L8.78434121,11.7216 C8.51058166,11.7216 8.2884,11.9427937 8.2884,12.21755 C8.2884,12.4913144 8.51058166,12.7135 8.78434121,12.7135 L22.5040588,12.7135 C22.7778183,12.7135 23,12.4913144 23,12.21755 M3.42515,10.8597 C2.6346308,10.8597 1.9919,11.4687216 1.9919,12.2176 C1.9919,12.9664784 2.6346308,13.5755 3.42515,13.5755 C4.2156692,13.5755 4.8584,12.9664784 4.8584,12.2176 C4.8584,11.4687216 4.2156692,10.8597 3.42515,10.8597 M3.42515,14.5673 C2.08809389,14.5673 1,13.5129377 1,12.21755 C1,10.9221623 2.08809389,9.8678 3.42515,9.8678 C4.76220611,9.8678 5.8503,10.9221623 5.8503,12.21755 C5.8503,13.5129377 4.76220611,14.5673 3.42515,14.5673" id="path-1"></path>
    </defs>
    <g id="list-view" stroke="none" stroke-width="1" fill="none" fill-rule="evenodd">
        <g id="icon/ui/list_view_dark">
            <rect id="bounds" fill="#FF0000" opacity="0" x="0" y="0" width="24" height="24"></rect>
            <mask id="mask-2" fill="white">
                <use xlink:href="#path-1"></use>
            </mask>
            <g id="Mask"></g>
            <g id="Black-058%-(Secondary)" mask="url(#mask-2)" fill="#000000">
                <g transform="translate(-12.000000, -12.000000)" id="Rectangle-435-Copy-4">
                    <rect x="0" y="0" width="48" height="48"></rect>
                </g>
            </g>
        </g>
    </g>
</svg>