<?xml version="1.0" encoding="UTF-8"?>
<svg width="24px" height="24px" viewBox="0 0 24 24" version="1.1" xmlns="http://www.w3.org/2000/svg" xmlns:xlink="http://www.w3.org/1999/xlink">
    <!-- Generator: Sketch 52.3 (67297) - http://www.bohemiancoding.com/sketch -->
    <title>lock-outline</title>
    <desc>Created with Sketch.</desc>
    <defs>
        <path d="M4.9892,14.1251 L5.66885946,11.3626483 C5.69742922,11.2457896 5.66660395,11.123014 5.58766121,11.0327813 C5.45759363,10.886338 5.30271548,10.6393076 5.30271548,10.2976067 C5.30271548,9.67337399 5.8192266,9.166 6.45302408,9.166 C7.0875734,9.166 7.60408452,9.67337399 7.60408452,10.2976067 C7.60408452,10.6378283 7.44845453,10.8855984 7.31913879,11.0335209 C7.23944421,11.1237536 7.20861895,11.2465292 7.2371887,11.3626483 L7.9176,14.1251 L4.9892,14.1251 Z M8.01158533,11.3619554 C8.23412953,11.0476165 8.35592737,10.6763268 8.35592737,10.2976409 C8.35592737,9.26586973 7.50259065,8.4264 6.45302408,8.4264 C5.40420935,8.4264 4.55087263,9.26586973 4.55087263,10.2976409 C4.55087263,10.6770664 4.67191863,11.0483561 4.89521467,11.3619554 L4.14563167,14.4084539 C4.11856548,14.5179178 4.14487983,14.6340383 4.21630449,14.724272 C4.28697731,14.8130265 4.39599389,14.8648 4.51102519,14.8648 L8.39502297,14.8648 C8.51080611,14.8648 8.61907085,14.8130265 8.69049551,14.724272 C8.76192017,14.6340383 8.78823452,14.5179178 8.76116833,14.4084539 L8.01158533,11.3619554 Z M12.2482,16.1953141 C12.2482,16.2315551 12.2181264,16.2604 12.1812862,16.2604 L0.817962004,16.2604 C0.781121797,16.2604 0.7518,16.2315551 0.7518,16.1953141 L0.7518,7.19792553 C0.7518,7.16168451 0.781121797,7.1321 0.817962004,7.1321 L12.1812862,7.1321 C12.2181264,7.1321 12.2482,7.16168451 12.2482,7.19792553 L12.2482,16.1953141 Z M2.8194,4.35337331 C2.8194,2.36084255 4.46742685,0.7396 6.49212408,0.7396 C8.51757315,0.7396 10.1656,2.36084255 10.1656,4.35337331 L10.1656,6.3925 L2.8194,6.3925 L2.8194,4.35337331 Z M12.1812504,6.39247335 L10.9174137,6.39247335 L10.9174137,4.35336089 C10.9174137,1.95331738 8.93181424,0 6.49210572,0 C4.0523972,0 2.06754959,1.95331738 2.06754959,4.35336089 L2.06754959,6.39247335 L0.817997802,6.39247335 C0.367647909,6.39247335 0,6.75340439 0,7.19791168 L0,16.1953013 C0,16.6383293 0.367647909,17 0.817997802,17 L12.1812504,17 C12.6331039,17 13,16.6383293 13,16.1953013 L13,7.19791168 C13,6.75340439 12.6331039,6.39247335 12.1812504,6.39247335 L12.1812504,6.39247335 Z" id="path-1"></path>
    </defs>
    <g id="lock-outline" stroke="none" stroke-width="1" fill="none" fill-rule="evenodd">
        <g id="ui/locked_outline_24">
            <rect id="Rectangle" fill="#FF0000" opacity="0" x="0" y="0" width="24" height="24"></rect>
            <g id="icon/ui/locked_outline_dark" stroke-width="1" transform="translate(6.000000, 4.000000)">
                <mask id="mask-2" fill="white">
                    <use xlink:href="#path-1"></use>
                </mask>
                <g id="Mask"></g>
                <g id="Black-058%-(Secondary)" mask="url(#mask-2)" fill="#000000">
                    <g transform="translate(-18.000000, -16.000000)" id="Rectangle-435-Copy-4">
                        <rect x="0" y="0" width="48" height="48"></rect>
                    </g>
                </g>
            </g>
        </g>
    </g>
</svg>