<?xml version="1.0" encoding="UTF-8"?>
<svg width="24px" height="24px" viewBox="0 0 24 24" version="1.1" xmlns="http://www.w3.org/2000/svg" xmlns:xlink="http://www.w3.org/1999/xlink">
    <!-- Generator: Sketch 52.3 (67297) - http://www.bohemiancoding.com/sketch -->
    <title>mail</title>
    <desc>Created with Sketch.</desc>
    <defs>
        <path d="M12.4101369,13.9274906 C11.992224,14.3443704 11.3860433,14.3443704 10.974337,13.9326628 L2.3554,5.04060665 C2.3636755,5.03957221 2.37195101,5.0344 2.38022651,5.0344 L21.3032,5.0344 L12.4101369,13.9274906 Z M21.6197578,4 L2.38024223,4 C1.87750528,4 1.45131675,4.24929984 1.23822249,4.46239432 C1.1327098,4.56790711 1.08512564,4.70755641 1.09029783,4.84617126 C1.04271368,5.01685372 1.07685014,5.20615609 1.20925822,5.34373651 L10.2378346,14.6588614 C10.6516098,15.0726371 11.1708978,15.2795249 11.6891513,15.2795249 C12.2084393,15.2795249 12.7277273,15.0726371 13.1415025,14.6588614 L22.4514461,5.3489087 C22.4535149,5.34683982 22.4535149,5.34477095 22.4555838,5.34373651 C22.7524676,5.57958864 22.9655618,5.9375046 22.9655618,6.37921014 L22.9655618,16.9304899 C22.9655618,17.5801177 22.4245507,18.2752608 21.6197578,18.2752608 L21.1615017,18.2752608 C21.1356407,18.2152633 21.0994354,18.1594036 21.0497823,18.110785 L15.9293134,13.1465113 C15.7244946,12.947899 15.3976122,12.9520367 15.1979656,13.1568557 C14.998319,13.3627091 15.0034912,13.6895919 15.2093444,13.8882042 L19.7329425,18.2752608 L3.6288091,18.2752608 L8.02103358,13.883032 C8.22274902,13.6813164 8.22274902,13.3533991 8.02103358,13.1516835 C7.81931813,12.9499679 7.49140123,12.9499679 7.28968579,13.1516835 L2.32438257,18.1169916 C2.2819706,18.1594036 2.25404077,18.2090567 2.22921426,18.2597442 C1.62717124,18.1842302 1.03443817,17.6732172 1.03443817,16.9304899 L1.03443817,9.17219595 C1.03443817,8.88669073 0.803758459,8.65497635 0.517219085,8.65497635 C0.23171415,8.65497635 0,8.88669073 0,9.17219595 L0,16.9304899 C0,18.3538782 1.23098142,19.3097 2.38024223,19.3097 L21.6197578,19.3097 C23.0431447,19.3097 24,18.0797518 24,16.9304899 L24,6.37921014 C24,4.95685625 22.7690186,4 21.6197578,4 L21.6197578,4 Z" id="path-1"></path>
    </defs>
    <g id="mail" stroke="none" stroke-width="1" fill="none" fill-rule="evenodd">
        <g id="icon/ui/envelope_dark">
            <rect id="bounds" fill="#FF0000" opacity="0" x="0" y="0" width="24" height="24"></rect>
            <mask id="mask-2" fill="white">
                <use xlink:href="#path-1"></use>
            </mask>
            <g id="Mask"></g>
            <g id="Black-058%-(Secondary)" mask="url(#mask-2)" fill="#000000">
                <g transform="translate(-12.000000, -12.000000)" id="Rectangle-435-Copy-4">
                    <rect x="0" y="0" width="48" height="48"></rect>
                </g>
            </g>
        </g>
    </g>
</svg>