<?xml version="1.0" encoding="UTF-8"?>
<svg width="24px" height="24px" viewBox="0 0 24 24" version="1.1" xmlns="http://www.w3.org/2000/svg" xmlns:xlink="http://www.w3.org/1999/xlink">
    <!-- Generator: Sketch 52.3 (67297) - http://www.bohemiancoding.com/sketch -->
    <title>minus</title>
    <desc>Created with Sketch.</desc>
    <defs>
        <path d="M16.5,11 C16.5,10.586 16.157,10.25 15.734,10.25 L6.266,10.25 C5.843,10.25 5.5,10.586 5.5,11 C5.5,11.414 5.843,11.75 6.266,11.75 L15.734,11.75 C16.157,11.75 16.5,11.414 16.5,11 M11,1.535 C5.781,1.535 1.535,5.781 1.535,11 C1.535,16.219 5.781,20.465 11,20.465 C16.219,20.465 20.465,16.219 20.465,11 C20.465,5.781 16.219,1.535 11,1.535 M11,22 C4.934,22 0,17.066 0,11 C0,4.934 4.934,0 11,0 C17.066,0 22,4.934 22,11 C22,17.066 17.066,22 11,22" id="path-1"></path>
    </defs>
    <g id="minus" stroke="none" stroke-width="1" fill="none" fill-rule="evenodd">
        <g id="ui/remove_circle_24">
            <rect id="Bounds" fill="#FF0000" opacity="0" x="0" y="0" width="24" height="24"></rect>
            <g id="remove" stroke-width="1" transform="translate(1.000000, 1.000000)">
                <mask id="mask-2" fill="white">
                    <use xlink:href="#path-1"></use>
                </mask>
                <g id="Mask"></g>
                <g id="Black-058%-(Secondary)" mask="url(#mask-2)" fill="#000000">
                    <g transform="translate(-13.000000, -13.000000)" id="Rectangle-435-Copy-4">
                        <rect x="0" y="0" width="48" height="48"></rect>
                    </g>
                </g>
            </g>
        </g>
    </g>
</svg>