<?xml version="1.0" encoding="UTF-8"?>
<svg width="24px" height="24px" viewBox="0 0 24 24" version="1.1" xmlns="http://www.w3.org/2000/svg" xmlns:xlink="http://www.w3.org/1999/xlink">
    <!-- Generator: Sketch 52.3 (67297) - http://www.bohemiancoding.com/sketch -->
    <title>open-now</title>
    <desc>Created with Sketch.</desc>
    <defs>
        <path d="M12.7881836,20.4951001 C12.7823525,20.5864545 12.7075198,20.6574 12.6161657,20.6574 L7.5926624,20.6574 C7.50228016,20.6574 7.42744755,20.5864545 7.42161644,20.4902408 L6.7938,11.5239 L13.416,11.5239 L12.7881836,20.4951001 Z M6.12226788,10.2381006 C6.14170508,10.1506296 6.19612923,10.0369173 6.23986293,9.9718 L13.9700371,9.9718 C14.0137708,10.0359454 14.0672231,10.1447982 14.0827728,10.2138031 L14.144,10.5520243 L13.9369938,10.5520243 L6.27290617,10.5520243 L6.0659,10.5520243 L6.12226788,10.2381006 Z M15.0351908,10.0185076 C14.9525828,9.66572301 14.6474191,9 14.0788815,9 L6.13101845,9 C5.56248092,9 5.25731719,9.66572301 5.16984988,10.0428041 L5.00754942,10.9524635 C4.98228108,11.0943549 5.02115545,11.2391618 5.11348205,11.3499536 C5.20580866,11.4607455 5.34186892,11.5239163 5.48667592,11.5239163 L5.82002356,11.5239163 L6.45173193,20.5534527 C6.48769071,21.1569768 6.98916997,21.6293 7.59269442,21.6293 L12.6162337,21.6293 C13.22073,21.6293 13.7222093,21.1569768 13.7581681,20.558312 L14.3898764,11.5239163 L14.7232241,11.5239163 C14.8680311,11.5239163 15.0031195,11.4607455 15.0964179,11.3499536 C15.1887446,11.2391618 15.2276189,11.0943549 15.2023506,10.9524635 L15.0351908,10.0185076 Z M10.1038781,13.4792 C9.15146476,13.4792 8.3769,14.2547429 8.3769,15.2071641 C8.3769,16.1605571 9.15146476,16.9361 10.1038781,16.9361 C11.0572634,16.9361 11.8328,16.1605571 11.8328,15.2071641 C11.8328,14.2547429 11.0572634,13.4792 10.1038781,13.4792 L10.1038781,13.4792 Z M10.1039281,17.908 C8.61602541,17.908 7.4051,16.6960964 7.4051,15.2072141 C7.4051,13.7193036 8.61602541,12.5074 10.1039281,12.5074 C11.5937746,12.5074 12.8047,13.7193036 12.8047,15.2072141 C12.8047,16.6960964 11.5937746,17.908 10.1039281,17.908 L10.1039281,17.908 Z M19.285,19.2419998 C19.285,21.3089997 17.604,22.9919996 15.5370001,22.9919996 L4.75200035,22.9949996 C2.6850004,22.9959996 1.00200045,21.3149997 1.00200045,19.2469998 L1.00000045,11.5810002 C0.999000446,9.51500035 2.6800004,7.83300045 4.74700035,7.83200045 L15.5330001,7.82900045 C17.6,7.82800045 19.282,9.51000035 19.283,11.5760002 L19.285,19.2419998 Z M12.9469985,1 C13.2529977,1 13.502997,1.25 13.502997,1.556 C13.503997,1.863 13.2539977,2.113 12.9469985,2.113 C12.6399993,2.113 12.39,1.863 12.39,1.557 C12.39,1.25 12.6399993,1 12.9469985,1 L12.9469985,1 Z M17.0170001,7.09000065 C16.9870001,7.03500065 16.9480001,6.98400066 16.8970001,6.94200066 L12.1650002,3.04600089 L12.2630002,2.9480009 C12.4700002,3.05000089 12.7010002,3.11300089 12.9470002,3.11300089 C13.8060002,3.11300089 14.5040002,2.41400093 14.5030002,1.55600098 C14.5030002,0.69800103 13.8050002,-0.000998928315 12.9460002,1.07162575e-06 C12.0880002,1.07162575e-06 11.3900002,0.69800103 11.3900002,1.55700098 C11.3900002,1.80300096 11.4530002,2.03400095 11.5560002,2.24100094 L9.85300028,3.94500084 C9.65800029,4.14000083 9.65800029,4.45700081 9.85300028,4.6520008 C9.95100028,4.75000079 10.0780003,4.79800079 10.2070003,4.79800079 C10.3340003,4.79800079 10.4620003,4.74900079 10.5600003,4.6520008 L11.4550002,3.75700085 L15.1860001,6.82900067 L5.09300041,6.83200067 L10.4570003,2.41200093 C10.6700003,2.23600094 10.7000003,1.92100096 10.5240003,1.70700097 C10.3470003,1.49600098 10.0330003,1.46400098 9.82000028,1.64000097 L3.38200045,6.94600066 C3.33200046,6.98800066 3.29300046,7.03900065 3.26300046,7.09400065 C1.37400051,7.72100061 -0.000999454874,9.48500051 5.4509949e-07,11.5820004 L0.00200054505,19.2479999 C0.00300054502,21.8659998 2.13400049,23.9959996 4.75200042,23.9949996 L15.5370001,23.9919996 C18.1560001,23.9909996 20.285,21.8599998 20.285,19.2419999 L20.283,11.5760004 C20.282,9.47900051 18.906,7.71600061 17.0170001,7.09000065 L17.0170001,7.09000065 Z" id="path-1"></path>
    </defs>
    <g id="open-now" stroke="none" stroke-width="1" fill="none" fill-rule="evenodd">
        <g id="icon/ui/open_now_dark">
            <rect id="Rectangle" fill="#FF0000" opacity="0" x="0" y="0" width="24" height="24"></rect>
            <g transform="translate(2.000000, 0.000000)">
                <mask id="mask-2" fill="white">
                    <use xlink:href="#path-1"></use>
                </mask>
                <g id="Mask"></g>
                <g id="Black-058%-(Secondary)" mask="url(#mask-2)" fill="#000000">
                    <g transform="translate(-14.000000, -12.000000)" id="Rectangle-435-Copy-4">
                        <rect x="0" y="0" width="48" height="48"></rect>
                    </g>
                </g>
            </g>
        </g>
    </g>
</svg>