<?xml version="1.0" encoding="UTF-8"?>
<svg width="24px" height="24px" viewBox="0 0 24 24" version="1.1" xmlns="http://www.w3.org/2000/svg" xmlns:xlink="http://www.w3.org/1999/xlink">
    <!-- Generator: Sketch 52.3 (67297) - http://www.bohemiancoding.com/sketch -->
    <title>refresh</title>
    <desc>Created with Sketch.</desc>
    <defs>
        <path d="M13.8569902,2.37350045 L13.8009902,0.775500494 C13.7869902,0.361500507 14.1109902,0.014500517 14.5249902,0.000500517401 C14.9389902,-0.0144994821 15.2859902,0.309500508 15.2999902,0.723500496 L15.4159902,4.0435004 C15.4309902,4.45750038 15.1069902,4.80450037 14.6929902,4.81950037 L11.3579902,4.93550037 C10.9449902,4.95050037 10.5969902,4.62650038 10.5829902,4.21250039 C10.5679902,3.7985004 10.8919902,3.45050041 11.3059902,3.43650041 L12.6849902,3.38850042 C11.6059902,2.69150044 10.3379902,2.30850045 9.00699023,2.30850045 C5.26899023,2.30850045 2.23999023,5.32450036 2.23999023,9.04250025 C2.23999023,12.7615001 5.26899023,15.7765 9.00699023,15.7765 C12.7449902,15.7765 15.7739902,12.7615001 15.7739902,9.04250025 C15.7739902,8.62850026 16.1099902,8.29250027 16.5239902,8.29250027 C16.9379902,8.29250027 17.2739902,8.62850026 17.2739902,9.04250025 C17.2739902,13.5915001 13.5719902,17.2765 9.00699023,17.2765 C4.44199023,17.2765 0.739990234,13.5915001 0.739990234,9.04250025 C0.739990234,4.49450038 4.44199023,0.808500493 9.00699023,0.808500493 C10.7799902,0.808500493 12.4659902,1.36750048 13.8569902,2.37350045" id="path-1"></path>
    </defs>
    <g id="refresh" stroke="none" stroke-width="1" fill="none" fill-rule="evenodd">
        <g id="ui/refresh_centered_24">
            <rect id="Rectangle" fill="#FF0000" opacity="0" x="0" y="0" width="24" height="24"></rect>
            <g id="ui/refresh_centered" stroke-width="1" transform="translate(3.000000, 3.000000)">
                <g id="refresh">
                    <mask id="mask-2" fill="white">
                        <use xlink:href="#path-1"></use>
                    </mask>
                    <g id="Mask"></g>
                    <g id="Color/black_58" mask="url(#mask-2)" fill="#000000">
                        <g transform="translate(-15.000000, -15.000000)" id="Rectangle-435-Copy-4">
                            <rect x="0" y="0" width="48" height="48"></rect>
                        </g>
                    </g>
                </g>
            </g>
        </g>
    </g>
</svg>