<?xml version="1.0" encoding="UTF-8"?>
<svg width="24px" height="24px" viewBox="0 0 24 24" version="1.1" xmlns="http://www.w3.org/2000/svg" xmlns:xlink="http://www.w3.org/1999/xlink">
    <!-- Generator: Sketch 52.3 (67297) - http://www.bohemiancoding.com/sketch -->
    <title>search</title>
    <desc>Created with Sketch.</desc>
    <defs>
        <path d="M22.7689449,21.6580005 L18.0829532,16.9740024 C17.7789537,16.6700025 17.2829546,16.6700025 16.9799551,16.9780024 C16.6759557,17.2860022 16.6779557,17.782002 16.9839551,18.0880019 L21.6699468,22.7720001 C21.8209466,22.924 22.0199462,23 22.2189459,23 C22.4199455,23 22.6209451,22.922 22.7729449,22.7680001 C23.0769443,22.4600002 23.0749443,21.9640004 22.7689449,21.6580005 Z M1,10.118 C1,5.091 5.09,1 10.117,1 C15.145,1 19.237,5.091 19.237,10.118 C19.237,10.713 19.179,11.308 19.065,11.886 C18.982,12.312 18.565,12.587 18.149,12.503 C17.726,12.419 17.451,12.007 17.535,11.582 C17.629,11.103 17.676,10.611 17.676,10.118 C17.676,5.956 14.285,2.569 10.117,2.569 C5.95,2.569 2.56,5.956 2.56,10.118 C2.56,14.282 5.95,17.669 10.117,17.669 C12.225,17.669 14.182,16.824 15.625,15.29 C15.921,14.974 16.416,14.962 16.728,15.26 C17.041,15.558 17.054,16.054 16.758,16.369 C15.042,18.193 12.622,19.238 10.117,19.238 C5.09,19.238 1,15.147 1,10.118 Z" id="path-1"></path>
    </defs>
    <g id="search" stroke="none" stroke-width="1" fill="none" fill-rule="evenodd">
        <g id="ui/search_24">
            <g id="Group-2">
                <rect id="Bounds" fill="#FF0000" opacity="0" x="0" y="0" width="24" height="24"></rect>
                <mask id="mask-2" fill="white">
                    <use xlink:href="#path-1"></use>
                </mask>
                <g id="Mask"></g>
                <g id="Black-058%-(Secondary)" mask="url(#mask-2)" fill="#000000">
                    <g transform="translate(-12.000000, -12.000000)" id="Rectangle-435-Copy-4">
                        <rect x="0" y="0" width="48" height="48"></rect>
                    </g>
                </g>
            </g>
        </g>
    </g>
</svg>