<?xml version="1.0" encoding="UTF-8"?>
<svg width="24px" height="24px" viewBox="0 0 24 24" version="1.1" xmlns="http://www.w3.org/2000/svg" xmlns:xlink="http://www.w3.org/1999/xlink">
    <!-- Generator: Sketch 52.3 (67297) - http://www.bohemiancoding.com/sketch -->
    <title>yen</title>
    <desc>Created with Sketch.</desc>
    <defs>
        <path d="M22.7420509,2.75691532 C22.884051,2.52091557 22.807051,2.21291589 22.5710509,2.06991604 C22.3370509,1.93091619 22.0290508,2.00491611 21.8850508,2.24091586 L16.28705,11.5339061 L10.7210492,2.25891585 C10.5790492,2.02291609 10.2730491,1.94491617 10.0350491,2.08691602 C9.79904904,2.22891588 9.72204903,2.53591556 9.86404905,2.77291531 L15.7530499,12.587905 L15.7530499,13.2539043 L11.8380493,13.2539043 C11.5610493,13.2539043 11.3380493,13.4779041 11.3380493,13.7539038 C11.3380493,14.0299035 11.5610493,14.2539033 11.8380493,14.2539033 L15.7530499,14.2539033 L15.7530499,16.411901 L11.8380493,16.411901 C11.5610493,16.411901 11.3380493,16.6359008 11.3380493,16.9119005 C11.3380493,17.1889002 11.5610493,17.4119 11.8380493,17.4119 L16.7830501,17.4119 L20.2700506,17.4119 C20.5470506,17.4119 20.7700507,17.1889002 20.7700507,16.9119005 C20.7700507,16.6359008 20.5470506,16.411901 20.2700506,16.411901 L16.7830501,16.411901 L16.7530501,16.411901 L16.7530501,14.2539033 L20.2700506,14.2539033 C20.5470506,14.2539033 20.7700507,14.0299035 20.7700507,13.7539038 C20.7700507,13.4779041 20.5470506,13.2539043 20.2700506,13.2539043 L16.7530501,13.2539043 L16.7530501,12.6999049 L22.7420509,2.75691532 Z M16.7829968,22.4359 L16.7999966,18.2599 C16.8009966,17.9839 16.5779981,17.7589 16.3019999,17.7579 L16.2999999,17.7579 C16.0240018,17.7579 15.8010032,17.9809 15.8000032,18.2559 L15.7830034,22.4319 C15.7820034,22.7079 16.0050019,22.9329 16.2810001,22.9339 L16.2830001,22.9339 C16.5579982,22.9339 16.7819968,22.7109 16.7829968,22.4359 L16.7829968,22.4359 Z M11.377,12.0189 C11.377,12.2949 11.152,12.5189 10.876,12.5189 L6.603,12.5189 L6.603,16.6029 C6.603,16.8789 6.38,17.1029 6.103,17.1029 C5.827,17.1029 5.603,16.8789 5.603,16.6029 L5.603,12.5189 L1.5,12.5189 C1.224,12.5189 1,12.2949 1,12.0189 C1,11.7419 1.224,11.5189 1.5,11.5189 L5.603,11.5189 L5.603,7.2719 C5.603,6.9949 5.827,6.7719 6.103,6.7719 C6.38,6.7719 6.603,6.9949 6.603,7.2719 L6.603,11.5189 L10.876,11.5189 C11.152,11.5189 11.377,11.7419 11.377,12.0189 L11.377,12.0189 Z" id="path-1"></path>
    </defs>
    <g id="yen" stroke="none" stroke-width="1" fill="none" fill-rule="evenodd">
        <g id="ui/add_yen_24">
            <g id="icon/ui/add_yen_dark">
                <rect id="Bounds" fill="#FF0000" opacity="0" x="0" y="0" width="24" height="24"></rect>
                <mask id="mask-2" fill="white">
                    <use xlink:href="#path-1"></use>
                </mask>
                <g id="Mask"></g>
                <g id="Black-058%-(Secondary)" mask="url(#mask-2)" fill="#000000">
                    <g transform="translate(-12.000000, -12.000000)" id="Rectangle-435-Copy-4">
                        <rect x="0" y="0" width="48" height="48"></rect>
                    </g>
                </g>
            </g>
        </g>
    </g>
</svg>