<?xml version="1.0" encoding="UTF-8"?>
<svg width="60px" height="69px" viewBox="0 0 60 69" version="1.1" xmlns="http://www.w3.org/2000/svg" xmlns:xlink="http://www.w3.org/1999/xlink">
    <!-- Generator: Sketch 52.5 (67469) - http://www.bohemiancoding.com/sketch -->
    <title>bass-clef</title>
    <desc>Created with Sketch.</desc>
    <g id="bass-clef" stroke="none" stroke-width="1" fill="none" fill-rule="evenodd">
        <g id="Group" fill="#000000">
            <path d="M-2.18306983e-15,68.0886321 C0.354678833,67.4612933 0.980764079,67.1988276 1.60222308,66.9211903 C5.30321961,65.2614355 9.11293289,63.826218 12.6473846,61.8235888 C18.8612036,58.304575 24.3440757,53.9579596 28.5354542,48.1564037 C32.2618952,42.9981164 34.4716984,37.3088291 34.972104,30.9702045 C35.4285602,25.1785099 35.1170597,19.4581212 33.615072,13.8272439 C32.9666266,11.3990561 31.9087584,9.15595973 30.2772357,7.19277632 C27.5492929,3.90967825 23.9469896,2.79685364 19.8041866,3.19131091 C16.3784517,3.51749671 13.3004563,4.76003706 10.6735198,7.00085769 C8.90243872,8.51193241 7.80216329,10.3863629 7.47909715,12.6780079 C7.43514781,12.9882636 7.27091608,13.4191324 7.59860848,13.605741 C7.89391717,13.7749025 8.12677153,13.3857552 8.36733631,13.2234209 C10.5177695,11.7737905 12.7992796,10.7830959 15.4778759,11.4309161 C18.6106152,12.1894878 20.7001361,14.0373682 21.487369,17.1907506 C21.9738958,19.1402796 21.997798,21.0814645 21.5043319,23.0363036 C20.1627206,28.3516151 15.2573582,29.7671098 11.4168033,29.2793483 C6.87383,28.7028338 4.58460945,25.7732301 3.4897313,21.6959076 C1.36628455,13.7900739 5.30013543,5.76514448 13.0953593,1.96166627 C15.2242034,0.92318169 17.4995452,0.436937266 19.7995604,0 C21.8351085,0 23.8706566,0 25.9062046,0 C28.1214052,0.379285822 30.33969,0.747193068 32.4500291,1.55052043 C37.3947146,3.43253668 40.7818976,6.9204491 43.1150674,11.5181518 C44.7558425,14.7511842 45.4944998,18.2102708 45.7196437,21.7702476 C46.0373126,26.8018532 45.629432,31.7636704 43.8706875,36.5601189 C41.5606489,42.8592979 37.7894877,48.1662651 32.7545903,52.6418377 C24.933922,59.5949054 15.7754977,64.217641 5.91002882,67.6168005 C4.77582759,68.0074649 3.62620556,68.3556493 2.50511203,68.7781738 C1.58834434,69.1240824 0.763330533,69.1013253 -3.55271368e-15,68.4527464 C-2.18306983e-15,68.331375 -2.18306983e-15,68.2100036 -2.18306983e-15,68.0886321 Z" id="Shape"></path>
            <path d="M51.2727273,10.9153749 C51.2727273,8.40850285 53.0907644,6.57652996 55.5826041,6.57143912 C58.1070122,6.56634829 59.9641312,8.40413928 59.9995945,10.9422836 C60.0328867,13.3742476 58.0114785,15.3720362 55.5579969,15.332764 C53.0958305,15.2920374 51.2727273,13.4135197 51.2727273,10.9153749 Z" id="Shape"></path>
            <path d="M55.6208121,35.0476181 C53.1175981,35.0490725 51.2843706,33.2268199 51.2727816,30.7261311 C51.2611927,28.2327138 53.1038363,26.3202941 55.5520027,26.2861178 C57.9501917,26.2526686 60.0057823,28.3032479 59.9999878,30.721041 C59.993469,33.184645 58.1095398,35.0461639 55.6208121,35.0476181 Z" id="Shape"></path>
        </g>
    </g>
</svg>