<?xml version="1.0" encoding="UTF-8"?>
<svg width="19px" height="49px" viewBox="0 0 19 49" version="1.1" xmlns="http://www.w3.org/2000/svg" xmlns:xlink="http://www.w3.org/1999/xlink">
    <!-- Generator: Sketch 52.3 (67297) - http://www.bohemiancoding.com/sketch -->
    <title>flat</title>
    <desc>Created with Sketch.</desc>
    <g id="flat" stroke="none" stroke-width="1" fill="none" fill-rule="evenodd">
        <g id="Flat" fill="#000000" fill-rule="nonzero">
            <path d="M12.1568277,31.5512701 C12.1568277,33.7214491 11.3426903,35.8000277 9.10912343,38.5897457 C6.74284735,41.5451898 4.75094415,43.2367594 2.12621745,45.2257756 L2.12621745,32.272147 C2.72291791,30.7662315 3.60286225,29.547157 4.76982707,28.6111494 C5.93301531,27.678916 7.11130988,27.2109121 8.30471079,27.2109121 C10.2760883,27.2109121 11.5261379,28.3280825 12.0661896,30.5548749 C12.126615,30.7360377 12.1568277,31.0681694 12.1568277,31.5512701 Z M11.8735838,22.4931317 C10.2458756,22.4931317 8.59173127,22.9422644 6.90737428,23.844304 C5.22301729,24.7425694 3.62929835,25.946547 2.12621745,27.444914 L2.12621745,0 L0,0 L0,47.0072095 C0,48.3357365 0.362552177,49 1.08765653,49 C1.50685748,49 2.02769767,48.6489971 2.80600278,48.1847675 C5.00903598,46.8707713 6.38218346,45.9926603 7.87418008,45.0663147 C9.57597356,44.0096828 11.4921487,42.7758134 14.0262373,40.3603098 C15.7747963,38.6052955 17.0399523,36.8351842 17.825482,35.0537503 C18.6072351,33.2685422 19,31.5022052 19,29.7471909 C19,27.1505245 18.3088849,25.3049288 16.9266547,24.214178 C15.3631485,23.0668138 13.6750149,22.4931317 11.8735838,22.4931317 Z" id="path2117"></path>
        </g>
    </g>
</svg>